<svg width="70" height="60" viewBox="0 0 70 60" version="1.1" xmlns="http://www.w3.org/2000/svg" xmlns:xlink="http://www.w3.org/1999/xlink" xmlns:figma="http://www.figma.com/figma/ns">
<title>Group</title>
<desc>Created using Figma</desc>
<g id="Canvas" transform="translate(-91 126)" figma:type="canvas">
<g id="Group" style="mix-blend-mode:normal;" figma:type="frame">
<g id="Group" style="mix-blend-mode:normal;" figma:type="frame">
<g id="Vector" style="mix-blend-mode:normal;" figma:type="vector">
<use xlink:href="#path0_fill" transform="translate(91.3441 -125.933)" fill="#403C91" style="mix-blend-mode:normal;"/>
</g>
<g id="Vector" style="mix-blend-mode:normal;" figma:type="vector">
<use xlink:href="#path1_fill" transform="translate(145.041 -109.455)" fill="#423E92" style="mix-blend-mode:normal;"/>
</g>
<g id="Vector" style="mix-blend-mode:normal;" figma:type="vector">
<use xlink:href="#path2_fill" transform="translate(127.645 -117.493)" fill="#1DC3B4" style="mix-blend-mode:normal;"/>
</g>
<g id="Vector" style="mix-blend-mode:normal;" figma:type="vector">
<use xlink:href="#path3_fill" transform="translate(135.645 -118.35)" fill="#1FCFBF" style="mix-blend-mode:normal;"/>
</g>
<g id="Vector" style="mix-blend-mode:normal;" figma:type="vector">
<use xlink:href="#path4_fill" transform="translate(152.945 -117.572)" fill="#39E7D6" style="mix-blend-mode:normal;"/>
</g>
<g id="Vector" style="mix-blend-mode:normal;" figma:type="vector">
<use xlink:href="#path5_fill" transform="translate(151.045 -121.304)" fill="#73F3E4" style="mix-blend-mode:normal;"/>
</g>
<g id="Vector" style="mix-blend-mode:normal;" figma:type="vector">
<use xlink:href="#path6_fill" transform="translate(143.53 -84.4435)" fill="#2B2875" style="mix-blend-mode:normal;"/>
</g>
<g id="Vector" style="mix-blend-mode:normal;" figma:type="vector">
<use xlink:href="#path7_fill" transform="translate(93.9052 -101.161)" fill="#5E50B1" style="mix-blend-mode:normal;"/>
</g>
<g id="Vector" style="mix-blend-mode:normal;" figma:type="vector">
<use xlink:href="#path8_fill" transform="translate(94.5449 -123.193)" fill="#6B5EB4" style="mix-blend-mode:normal;"/>
</g>
<g id="Vector" style="mix-blend-mode:normal;" figma:type="vector">
<use xlink:href="#path9_fill" transform="translate(136.245 -88.7935)" fill="#3B318C" style="mix-blend-mode:normal;"/>
</g>
<g id="Vector" style="mix-blend-mode:normal;" figma:type="vector">
<use xlink:href="#path10_fill" transform="translate(137.945 -101.008)" fill="#5E50B1" style="mix-blend-mode:normal;"/>
</g>
<g id="Vector" style="mix-blend-mode:normal;" figma:type="vector">
<use xlink:href="#path11_fill" transform="translate(138.145 -107.894)" fill="#6A5EB4" style="mix-blend-mode:normal;"/>
</g>
<g id="Vector" style="mix-blend-mode:normal;" figma:type="vector">
<use xlink:href="#path12_fill" transform="translate(103.639 -113.581)" fill="#5E50B1" style="mix-blend-mode:normal;"/>
</g>
<g id="Vector" style="mix-blend-mode:normal;" figma:type="vector">
<use xlink:href="#path13_fill" transform="translate(101.945 -115.042)" fill="#7866C2" style="mix-blend-mode:normal;"/>
</g>
<g id="Vector" style="mix-blend-mode:normal;" figma:type="vector">
<use xlink:href="#path14_fill" transform="translate(135.645 -103.194)" fill="#7865C2" style="mix-blend-mode:normal;"/>
</g>
<g id="Vector" style="mix-blend-mode:normal;" figma:type="vector">
<use xlink:href="#path15_fill" transform="translate(127.009 -103.497)" fill="#1DB2A4" style="mix-blend-mode:normal;"/>
</g>
<g id="Vector" style="mix-blend-mode:normal;" figma:type="vector">
<use xlink:href="#path16_fill" transform="translate(134.06 -89.6935)" fill="#4B3E98" style="mix-blend-mode:normal;"/>
</g>
<g id="Vector" style="mix-blend-mode:normal;" figma:type="vector">
<use xlink:href="#path17_fill" transform="translate(102.006 -96.9935)" fill="#6B5EB4" style="mix-blend-mode:normal;"/>
</g>
<g id="Vector" style="mix-blend-mode:normal;" figma:type="vector">
<use xlink:href="#path18_fill" transform="translate(105.345 -94.3935)" fill="#4F46A2" style="mix-blend-mode:normal;"/>
</g>
<g id="Vector" style="mix-blend-mode:normal;" figma:type="vector">
<use xlink:href="#path19_fill" transform="translate(112.745 -104.419)" fill="#7865C2" style="mix-blend-mode:normal;"/>
</g>
<g id="Vector" style="mix-blend-mode:normal;" figma:type="vector">
<use xlink:href="#path20_fill" transform="translate(126.545 -94.2989)" fill="#332D82" style="mix-blend-mode:normal;"/>
</g>
<g id="Vector" style="mix-blend-mode:normal;" figma:type="vector">
<use xlink:href="#path21_fill" transform="translate(127.968 -101.894)" fill="#5D50B1" style="mix-blend-mode:normal;"/>
</g>
<g id="Vector" style="mix-blend-mode:normal;" figma:type="vector">
<use xlink:href="#path22_fill" transform="translate(125.432 -99.5175)" fill="#7865C2" style="mix-blend-mode:normal;"/>
</g>
<g id="Vector" style="mix-blend-mode:normal;" figma:type="vector">
<use xlink:href="#path23_fill" transform="translate(125.285 -100.493)" fill="#67EDE1" style="mix-blend-mode:normal;"/>
</g>
<g id="Vector" style="mix-blend-mode:normal;" figma:type="vector">
<use xlink:href="#path24_fill" transform="translate(116.045 -101.67)" fill="#4F47A3" style="mix-blend-mode:normal;"/>
</g>
<g id="Vector" style="mix-blend-mode:normal;" figma:type="vector">
<use xlink:href="#path25_fill" transform="translate(115.423 -97.8029)" fill="#433E93" style="mix-blend-mode:normal;"/>
</g>
<g id="Vector" style="mix-blend-mode:normal;" figma:type="vector">
<use xlink:href="#path26_fill" transform="translate(122.145 -96.0844)" fill="#312D7E" style="mix-blend-mode:normal;"/>
</g>
<g id="Vector" style="mix-blend-mode:normal;" figma:type="vector">
<use xlink:href="#path27_fill" transform="translate(121.653 -99.0935)" fill="#484499" style="mix-blend-mode:normal;"/>
</g>
<g id="Vector" style="mix-blend-mode:normal;" figma:type="vector">
<use xlink:href="#path28_fill" transform="translate(122.145 -98.3792)" fill="#61D0D3" style="mix-blend-mode:normal;"/>
</g>
</g>
</g>
</g>
<defs>
<path id="path0_fill" d="M 54.8009 45.6396C 47.4009 57.0396 34.2009 62.0396 21.2009 58.2396C 8.90087 54.6396 0.100873 43.0396 0.000873381 30.2396C -0.0991266 16.8396 8.40087 5.13957 20.9009 1.33957C 33.7009 -2.56043 47.0009 2.23957 54.4009 13.3396C 54.2009 14.1396 53.7009 14.5396 52.9009 14.6396C 51.4009 14.8396 50.4009 13.9396 49.5009 12.9396C 41.8009 4.53958 32.5009 1.73956 21.6009 5.13956C 11.7009 8.23956 6.00087 15.4396 4.00087 25.5396C 1.10087 40.1396 13.3009 54.9396 28.2009 55.3396C 37.9009 55.6396 45.3009 52.1396 50.9009 44.4396C 51.1009 44.2396 51.4009 44.0396 51.8009 43.9396C 53.1009 44.1396 54.1009 44.6396 54.8009 45.6396Z"/>
<path id="path1_fill" d="M 2.60424 0.261153C 6.90424 9.36115 6.90424 18.3612 2.00424 27.3612C 0.904243 26.9612 0.304243 26.0612 0.0042433 24.9612C 0.104243 21.3612 1.70424 18.0612 1.80424 14.4612C 1.80424 13.1612 2.10424 11.7612 1.80424 10.4612C 1.60424 7.36117 -0.0957567 4.66114 0.0042433 1.56114C 0.504243 0.361141 1.20424 -0.438847 2.60424 0.261153Z"/>
<path id="path2_fill" d="M 20 8.3C 19.1 8.4 18.4 8.89999 17.9 9.59999C 16.2 12.2 13.3 13.3 10.7 14.8C 10.2 15 9.8 15 9.3 15.1C 7.6 14.8 6.5 16.2 5 16.8C 2.8 17.7 0.900002 17.9 1.52588e-06 15C 0.800002 12.3 3.6 11.8 5.5 10.4C 6.3 10.1 7.1 9.79999 7.9 10.2C 9.5 12 10.9 10.8 12.3 10C 17.7 6.60001 23.1 3.20001 28.7 1.2207e-05C 29.1 1.2207e-05 29.3 0.200012 29.6 0.500012C 30.2 4.00001 27.6 4.49999 25.2 5.19999C 23.3 5.79999 21.6 7 20 8.3Z"/>
<path id="path3_fill" d="M 20.8 1.15604C 18.8 4.05604 15.4 4.85604 12.7 6.75604C 9.5 8.95604 6.1 10.756 2.8 12.956C 0.600001 14.356 0.100002 13.556 1.52588e-06 11.456C 1.52588e-06 10.956 0.200002 10.556 0.500002 10.156C 3 8.55604 5.6 7.15604 8.5 6.65604C 9 6.35604 9.6 6.05605 10.1 5.85605C 11.8 4.95605 13.6 4.05604 15.3 3.25604C 16.1 2.15604 16.9 1.05604 18.2 0.656036C 19.1 0.156036 20.3 -0.743964 20.8 1.15604Z"/>
<path id="path4_fill" d="M -3.05176e-06 5.17867C 1.1 3.37867 4.4 3.37868 4.1 0.378678C 4.8 -0.221322 5.5 -0.0213218 6.2 0.378678C 7.6 1.07868 8.2 2.07869 7.8 3.57869C 7.4 5.07869 6.2 5.67868 4.8 5.87868C 3.1 6.27868 1.5 6.17867 -3.05176e-06 5.17867Z"/>
<path id="path5_fill" d="M 8.1 4.11017C 7.4 4.11017 6.7 4.11017 6 4.11017L 5.7 4.11017L 5.4 4.11017C 3 3.11017 1.9 5.91017 3.05176e-06 6.11017C 0.100003 5.61017 0.0999985 5.01016 0.299998 4.51016C 1.2 2.51016 1.8 0.310159 4.7 0.0101592C 7.7 -0.189841 7 2.61017 8.1 4.11017Z"/>
<path id="path6_fill" d="M 2.0151 0.149994C 2.9151 0.549994 3.4151 1.35001 3.5151 2.35001C 3.2151 2.95001 2.9151 3.55 2.5151 4.25C 1.4151 4.35 0.515101 4.05001 0.0151008 2.95001C -0.0848992 1.85001 0.315103 0.849994 1.1151 0.149994C 1.5151 -0.0500061 1.8151 -0.0500061 2.0151 0.149994Z"/>
<path id="path7_fill" d="M 49.0397 19.568C 48.6397 23.168 45.7397 24.868 43.3397 26.568C 33.9397 33.268 23.7397 33.868 13.7397 28.268C 3.73973 22.668 -0.460271 13.568 0.0397294 2.168C 0.0397294 1.668 0.43973 1.168 0.63973 0.667997C 3.73973 -0.432003 6.53973 -0.432003 8.53973 2.668C 8.73973 3.068 8.83973 3.56799 8.93973 4.06799C 8.93973 5.16799 9.03973 6.36798 9.43973 7.36798C 12.2397 19.368 22.7397 25.368 33.6397 21.268C 36.7397 20.068 39.2397 18.168 41.1397 15.468C 41.4397 15.268 41.7397 15.168 42.0397 15.068C 44.6397 16.368 47.5397 16.968 49.0397 19.568Z"/>
<path id="path8_fill" d="M 7.4 24.7992C 5.5 23.3992 3.6 21.9992 1.1 23.4992C 0.4 23.8992 0.1 23.2992 1.90735e-07 22.6992C 1 12.1992 10.1 2.59921 20.8 0.599208C 31.4 -1.40079 40.1 1.59921 47.2 9.69921C 47.9 10.4992 48.5 11.2992 49.6 11.3992C 47.2 12.9992 44.6 14.3992 41.8 15.3992C 40.4 15.7992 39.8 14.6992 39 13.9992C 27.7 3.6992 11.9 10.6992 9.3 22.0992C 9.1 23.2992 8.7 24.4992 7.4 24.7992Z"/>
<path id="path9_fill" d="M 6.7 7.20001C 4.5 5.80001 1.7 5.30001 0 3.20001C 0.2 1.50001 0.999999 0.399994 2.8 -6.10352e-06C 5.3 0.799994 8.1 1.29999 8.8 4.49999C 8.7 5.59999 8.3 6.50001 7.5 7.20001C 7.2 7.20001 6.9 7.20001 6.7 7.20001Z"/>
<path id="path10_fill" d="M 7 16.7147C 5.3 14.8147 3 14.0147 1 12.7147C 0.500001 12.5147 0.100001 12.2147 7.62939e-07 11.7147C 0.200001 8.61465 1 5.71466 1.8 2.81466C 4.7 -0.68534 6.7 -0.885328 9.8 2.01467C 11 5.71467 9.7 9.11465 9 12.6146C 8.7 14.0146 8.1 15.3147 7.7 16.7147C 7.4 16.7147 7.2 16.7147 7 16.7147Z"/>
<path id="path11_fill" d="M 9.5 8.80001C 6.9 7.60001 4.3 7.09999 2.1 9.49999C -0.3 8.59999 0.100002 6.5 1.52588e-06 4.7C 2.3 2.8 4.8 1.29999 7.4 -1.2207e-05C 8.4 2.89999 9.7 5.70001 9.5 8.80001Z"/>
<path id="path12_fill" d="M 30.0057 7.38744C 28.3057 8.88744 25.8057 9.18743 24.5057 11.1874C 24.3057 11.6874 24.1057 12.0874 23.6057 12.1874C 22.5057 12.2874 21.7057 11.6874 20.8057 11.2874C 16.0057 9.18744 12.0057 11.0874 10.5057 16.1874C 10.2057 17.2874 10.1057 18.3874 9.70569 19.3874C 7.30569 22.7874 7.10569 22.8874 1.00569 21.1874C -1.19431 16.0874 0.505693 11.4874 3.30569 7.38744C 8.80569 -0.71256 20.0057 -2.41255 27.8057 3.58745C 29.0057 4.48745 30.5057 5.38744 30.0057 7.38744Z"/>
<path id="path13_fill" d="M 31.7 8.84835C 26.7 2.34835 18.5 0.848355 10.8 4.94835C 4.7 8.14835 1 17.3483 3.3 22.8483C 4.2 23.2483 4.6 24.0483 4.9 24.8483C 8.7 34.5483 22 37.4483 30 29.7483C 30.3 29.4483 30.7 29.1483 31 28.8483C 31.3 28.6483 31.6 28.5484 31.9 28.5484C 32.6 28.6484 33.2 28.9483 33.5 29.6483C 33.6 32.9483 30.7 33.9483 28.7 35.1483C 17.5 41.6483 2.1 35.5484 0.599999 21.5484C -0.200001 20.5484 0.700001 19.1483 7.62939e-07 18.1483C 7.62939e-07 17.7483 7.62939e-07 17.2483 7.62939e-07 16.8483C 1.5 11.7483 3.1 6.94834 7.9 3.74834C 17.1 -2.35166 27.1 -0.951639 34.4 7.54836C 34.1 7.74836 33.9 8.04834 33.6 8.24834C 33 8.34834 32.4 8.54835 31.7 8.84835Z"/>
<path id="path14_fill" d="M 2.5 0C 4.4 1.1 3.4 3.39999 4.6 4.79999C 4.5 8.09999 3.9 11.2 2.6 14.2C 1.7 14.7 0.900001 14.3 0.300001 13.6C 0.100001 13.3 1.52588e-06 13 1.52588e-06 12.6C 1 9.00001 0.600002 5.30001 1.52588e-06 1.70001C 0.100002 1.00001 0.500001 0.400012 1.3 0.200012C 1.7 0.200012 2.1 0.1 2.5 0Z"/>
<path id="path15_fill" d="M 9.93607 0.503631C 9.63607 0.903631 9.33607 1.20361 9.13607 1.60361C 7.43607 4.10361 5.13607 5.40362 2.13607 5.30362C 1.83607 5.20362 1.43607 5.10362 1.13607 4.90362C 0.53607 4.50362 0.236067 3.90361 0.0360672 3.20361C -0.0639328 2.70361 0.0360687 2.20362 0.436069 1.80362C 0.636069 1.50362 0.83607 1.30363 1.13607 1.00363C 2.53607 3.40363 4.23607 2.60361 6.13607 1.60361C 7.33607 1.00361 8.13607 -0.896369 9.93607 0.503631Z"/>
<path id="path16_fill" d="M 2.28511 0C 2.88511 0.2 3.58511 0.500012 4.18511 0.700012C 4.38511 0.900012 4.68511 1.19999 4.88511 1.39999C 3.98511 2.29999 3.08511 3.20001 2.18511 4.10001C 1.98511 4.10001 1.68511 4.10001 1.48511 4.10001C 1.08511 3.90001 0.585113 3.7 0.185113 3.5C -0.414887 1.6 0.485112 0.5 2.28511 0Z"/>
<path id="path17_fill" d="M 0.038591 1.2207e-05C 1.03859 1.00001 0.538591 2.20001 0.638591 3.40001C -0.361409 2.40001 0.138591 1.10001 0.038591 1.2207e-05Z"/>
<path id="path18_fill" d="M 28.3 8.2C 25.7 12.5 21.4 14.3 16.8 14.5C 7.8 14.8 1.5 9.49999 3.8147e-07 2.09999C 0.1 1.49999 0.3 0.900012 1 1.40001C 3.7 3.40001 5.6 2.19999 7.4 -1.2207e-05C 8.5 0.199988 8.9 1.10001 9.5 1.90001C 12.3 5.50001 14.8 6.19999 19 4.49999C 20 4.09999 21 3.49999 22.1 3.59999C 24.4 4.79999 27.1 5.6 28.3 8.2Z"/>
<path id="path19_fill" d="M 14.7 14.0254C 11.8 15.8254 9 17.4254 5.4 16.0254C 2.5 14.9254 1.2 12.6254 -7.10543e-15 10.0254C 0.2 5.42535 1.6 1.62536 6.8 0.225364C 10.1 -0.674636 12.3 1.32536 14.8 2.62536C 14.8 3.02536 14.8 3.42538 14.8 3.92538C 14.6 4.92538 13.8 5.22536 12.9 5.22536C 12.1 5.22536 11.4 4.72538 10.7 4.42538C 7.5 3.12538 6.1 3.62537 4.1 6.82537C 3.5 8.72537 4 10.4254 5.6 11.5254C 7.9 13.0254 10.2 12.2254 12.4 10.9254C 12.7 10.8254 13.1 10.7254 13.4 10.7254C 13.8 10.7254 14.1 10.9254 14.4 11.1254C 15.3 12.1254 15.7 13.0254 14.7 14.0254Z"/>
<path id="path20_fill" d="M 0.900001 3.90534C 1.2 2.80534 0.699999 2.00536 -7.62939e-07 1.30536C 0.499999 0.505365 1.4 0.205346 2.2 0.00534649C 5.4 -0.0946535 8 1.20535 9.7 4.00535C 9.7 4.20535 9.7 4.40535 9.8 4.60535C 9.1 5.80535 8.4 7.00535 7.7 8.10535L 7.4 8.10535L 7.1 8.10535C 5 6.70535 2.5 5.90534 0.900001 3.90534Z"/>
<path id="path21_fill" d="M 8.2767 11.6C 5.7767 10.6 3.8767 8.30001 0.876701 8.30001C -0.223299 6.50001 -0.323298 4.70001 0.776702 2.90001C 3.7767 3.30001 5.5767 0.699988 8.0767 -1.2207e-05C 9.6767 3.79999 10.0767 7.69999 8.2767 11.6Z"/>
<path id="path22_fill" d="M 3.41332 0.524012C 3.41332 2.32401 3.41332 4.12401 3.51332 5.92401C 2.91332 6.72401 2.01332 6.52401 1.11332 6.52401C 0.513322 6.32401 0.313322 5.92401 0.113322 5.42401C 0.213322 3.72401 -0.486676 1.924 0.713324 0.324C 1.41332 0.024 2.01332 -0.176006 2.71332 0.223994C 2.91332 0.323994 3.21332 0.424012 3.41332 0.524012Z"/>
<path id="path23_fill" d="M 2.85981 1.09999C 2.15981 1.19999 1.55981 1.40001 0.859809 1.50001C 0.559809 1.60001 0.359806 1.60001 0.0598061 1.40001C -0.0401939 1.10001 -0.0401931 0.899994 0.259807 0.699994C 0.959807 0.499994 1.55981 0.200012 2.25981 1.2207e-05C 2.45981 0.400012 2.65981 0.799988 2.85981 1.09999Z"/>
<path id="path24_fill" d="M 9.5 1.97619C 9.5 2.17619 9.4 2.3762 9.5 2.6762C 9.7 2.7762 9.8 2.9762 9.8 3.1762C 9.8 3.3762 9.8 3.47619 9.7 3.47619C 9 4.27619 7.9 4.3762 7.2 5.1762C 6.7 5.7762 6.7 6.4762 6.5 7.0762C 6.4 7.3762 6.2 7.57618 5.9 7.77618C 2.5 8.77618 1.9 5.47619 -7.62939e-07 3.97619C 1.9 -0.523809 4.9 -1.22381 9.5 1.97619Z"/>
<path id="path25_fill" d="M 0.622169 0.00939345C 2.12217 -0.0906065 3.12217 0.609393 3.72217 2.00939C 4.42217 3.40939 5.42217 4.00941 6.82217 2.80941C 8.72217 2.30941 9.72217 3.20939 10.2222 4.90939C 8.22217 7.70939 5.32217 7.60941 2.82217 6.20941C 0.52217 5.10941 -0.877831 2.80939 0.622169 0.00939345Z"/>
<path id="path26_fill" d="M 3.4 3.19084C 2.3 2.49084 1.1 1.79086 1.52588e-06 1.09086C 1.4 -0.50914 1.9 -0.409158 4 1.79084C 4.1 2.29084 4.2 2.69084 4.3 3.19084C 4 3.09084 3.7 3.09084 3.4 3.19084Z"/>
<path id="path27_fill" d="M 4.49232 4.69999C 3.09232 4.99999 2.09232 2.80001 0.492318 4.00001C -0.507682 3.30001 0.292318 2.60001 0.492318 2.00001C 1.59232 1.50001 2.69232 1.19999 3.79232 0.699988C 3.79232 0.499988 3.79232 0.200006 3.79232 6.10352e-06C 3.99232 6.10352e-06 4.19232 0.100012 4.39232 0.100012C 4.49232 1.70001 5.79232 3.19999 4.49232 4.69999Z"/>
<path id="path28_fill" d="M 3.3 0.0857359C 2.4 0.985736 1.4 1.68575 1.52588e-06 1.38575C 0.900002 0.285754 2 -0.214264 3.3 0.0857359Z"/>
</defs>
</svg>
