<svg width="41" height="40" viewBox="0 0 41 40" version="1.1" xmlns="http://www.w3.org/2000/svg" xmlns:xlink="http://www.w3.org/1999/xlink" xmlns:figma="http://www.figma.com/figma/ns">
<title>competitions</title>
<desc>Created using Figma</desc>
<g id="Canvas" transform="translate(-879 235)" figma:type="canvas">
<g id="competitions" style="mix-blend-mode:normal;" figma:type="frame">
<g id="Group" style="mix-blend-mode:normal;" figma:type="frame">
<g id="Group" style="mix-blend-mode:normal;" figma:type="frame">
<g id="Vector" style="mix-blend-mode:normal;" figma:type="vector">
<use xlink:href="#path0_fill" transform="translate(879.09 -208.858)" fill="#2E8E87" style="mix-blend-mode:normal;"/>
</g>
<g id="Vector" style="mix-blend-mode:normal;" figma:type="vector">
<use xlink:href="#path1_fill" transform="translate(888.287 -235)" fill="#332B7F" style="mix-blend-mode:normal;"/>
</g>
<g id="Vector" style="mix-blend-mode:normal;" figma:type="vector">
<use xlink:href="#path2_fill" transform="translate(879 -200.088)" fill="#333570" style="mix-blend-mode:normal;"/>
</g>
</g>
</g>
<g id="Group" style="mix-blend-mode:normal;" figma:type="frame">
<g id="Group" style="mix-blend-mode:normal;" figma:type="frame">
<g id="Group" style="mix-blend-mode:normal;" figma:type="frame">
<g id="Vector" style="mix-blend-mode:normal;" figma:type="vector">
<use xlink:href="#path3_fill" transform="translate(905.486 -208.858)" fill="#56C3C0" style="mix-blend-mode:normal;"/>
</g>
<g id="Vector" style="mix-blend-mode:normal;" figma:type="vector">
<use xlink:href="#path4_fill" transform="translate(879.078 -235)" fill="#5D5CA9" style="mix-blend-mode:normal;"/>
</g>
<g id="Vector" style="mix-blend-mode:normal;" figma:type="vector">
<use xlink:href="#path5_fill" transform="translate(914.164 -200.177)" fill="#5D5CA9" style="mix-blend-mode:normal;"/>
</g>
</g>
</g>
</g>
</g>
</g>
<defs>
<path id="path0_fill" d="M 4.68854 9.84092C 4.14756 9.2161 3.42624 8.7698 2.5246 8.7698C 1.53279 8.7698 0.63115 9.39462 0.180329 10.2872C 0.0901643 10.555 1.34355e-09 10.912 1.34355e-09 11.2691C 1.34355e-09 12.608 1.17214 13.7684 2.5246 13.7684C 3.96723 13.7684 5.0492 12.608 5.0492 11.2691C 5.0492 11.1798 5.0492 11.1798 5.0492 11.0906L 9.28692 6.89534L 11.7214 9.30536C 11.9918 9.57314 12.4427 9.57314 12.7132 9.30536L 13.705 8.3235C 13.9755 8.05572 13.9755 7.60942 13.705 7.34164L 6.49183 0.200835C 6.22133 -0.0669451 5.77051 -0.0669451 5.50002 0.200835L 4.41805 1.1827C 4.14756 1.45048 4.14756 1.89678 4.41805 2.16456L 6.85248 4.57458L 3.42624 7.96646L 3.51641 8.05572C 3.69674 8.14498 3.87706 8.3235 3.96723 8.50202C 4.23772 8.7698 4.41805 9.03758 4.59838 9.39462C 4.68854 9.57314 4.77871 9.84092 4.86887 10.0194C 4.95903 10.198 4.95903 10.2872 4.95903 10.2872C 4.95903 10.2872 4.86887 10.198 4.77871 10.1087C 4.77871 10.0194 4.77871 9.93018 4.68854 9.84092Z"/>
<path id="path1_fill" d="M 31.1067 0.814829L 28.4017 12.4186C 28.3116 12.9542 27.9509 13.4005 27.5903 13.6683L 21.8198 17.8635L 7.39347 28.5747L 4.41805 30.8062L 2.79509 29.1995L 5.40985 26.4325L 18.3935 12.7757L 21.4591 9.56232L 18.3033 12.5079L 4.41805 25.2721L 1.53279 27.9499L 1.71975e-07 26.4325L 2.5246 23.1298L 14.6968 7.15229L 17.4919 3.58189C 17.7624 3.22485 18.2132 2.86781 18.664 2.77855L 30.2952 0.0114886C 30.746 -0.0777715 31.1968 0.368529 31.1067 0.814829Z"/>
<path id="path2_fill" d="M 2.5246 4.99856C 3.9189 4.99856 5.0492 3.8796 5.0492 2.49928C 5.0492 1.11897 3.9189 0 2.5246 0C 1.1303 0 0 1.11897 0 2.49928C 0 3.8796 1.1303 4.99856 2.5246 4.99856Z"/>
<path id="path3_fill" d="M 9.03897 10.1087C 8.9488 10.198 8.85864 10.2872 8.85864 10.2872C 8.85864 10.2872 8.9488 10.198 9.03897 10.1087C 9.03897 9.84092 9.12913 9.6624 9.2193 9.39462C 9.39962 9.03758 9.57995 8.7698 9.85045 8.50202C 9.94061 8.3235 10.1209 8.23424 10.3013 8.05572L 10.3914 7.96646L 6.96519 4.57458L 9.39962 2.16456C 9.67012 1.89678 9.67012 1.45048 9.39962 1.1827L 8.40782 0.200835C 8.13733 -0.0669451 7.6865 -0.0669451 7.41601 0.200835L 0.20287 7.34164C -0.0676229 7.60942 -0.0676229 8.05572 0.20287 8.3235L 1.19468 9.30536C 1.46517 9.57314 1.91599 9.57314 2.18648 9.30536L 4.62092 6.89534L 8.85864 11.0906C 8.85864 11.1798 8.85864 11.1798 8.85864 11.2691C 8.85864 12.6972 10.0308 13.7684 11.3832 13.7684C 12.8259 13.7684 13.9078 12.608 13.9078 11.2691C 13.9078 10.912 13.8177 10.555 13.7275 10.2872C 13.3669 9.39462 12.375 8.7698 11.3832 8.7698C 10.5718 8.7698 9.76028 9.2161 9.2193 9.84092C 9.2193 9.93018 9.12913 10.0194 9.03897 10.1087Z"/>
<path id="path4_fill" d="M 0.823083 0.0114886C 0.372262 -0.0777715 -0.0785593 0.368529 0.011605 0.814829L 2.71653 12.4186C 2.8067 12.9542 3.07719 13.4005 3.52801 13.6683L 26.7002 30.8062L 28.3232 29.1995L 9.65918 9.47306L 29.5855 27.9499L 31.1183 26.4325L 13.6264 3.58189C 13.3559 3.22485 12.9051 2.86781 12.3641 2.77855L 0.823083 0.0114886Z"/>
<path id="path5_fill" d="M 2.61477 5.17708C 4.05886 5.17708 5.22953 4.01816 5.22953 2.58854C 5.22953 1.15893 4.05886 0 2.61477 0C 1.17067 0 0 1.15893 0 2.58854C 0 4.01816 1.17067 5.17708 2.61477 5.17708Z"/>
</defs>
</svg>
