<svg width="48" height="40" viewBox="0 0 48 40" version="1.1" xmlns="http://www.w3.org/2000/svg" xmlns:xlink="http://www.w3.org/1999/xlink" xmlns:figma="http://www.figma.com/figma/ns">
<title>Group</title>
<desc>Created using Figma</desc>
<g id="Canvas" transform="translate(-878 235)" figma:type="canvas">
<g id="Group" style="mix-blend-mode:normal;" figma:type="frame">
<g id="Group" style="mix-blend-mode:normal;" figma:type="frame">
<g id="Vector" style="mix-blend-mode:normal;" figma:type="vector">
<use xlink:href="#path0_fill" transform="translate(878.5 -235)" fill="#403C91" style="mix-blend-mode:normal;"/>
</g>
<g id="Vector" style="mix-blend-mode:normal;" figma:type="vector">
<use xlink:href="#path1_fill" transform="translate(914.704 -223.973)" fill="#423E92" style="mix-blend-mode:normal;"/>
</g>
<g id="Vector" style="mix-blend-mode:normal;" figma:type="vector">
<use xlink:href="#path2_fill" transform="translate(903.014 -229.417)" fill="#1DC3B4" style="mix-blend-mode:normal;"/>
</g>
<g id="Vector" style="mix-blend-mode:normal;" figma:type="vector">
<use xlink:href="#path3_fill" transform="translate(908.347 -229.98)" fill="#1FCFBF" style="mix-blend-mode:normal;"/>
</g>
<g id="Vector" style="mix-blend-mode:normal;" figma:type="vector">
<use xlink:href="#path4_fill" transform="translate(919.949 -229.514)" fill="#39E7D6" style="mix-blend-mode:normal;"/>
</g>
<g id="Vector" style="mix-blend-mode:normal;" figma:type="vector">
<use xlink:href="#path5_fill" transform="translate(918.732 -231.955)" fill="#73F3E4" style="mix-blend-mode:normal;"/>
</g>
<g id="Vector" style="mix-blend-mode:normal;" figma:type="vector">
<use xlink:href="#path6_fill" transform="translate(913.662 -207.149)" fill="#2B2875" style="mix-blend-mode:normal;"/>
</g>
<g id="Vector" style="mix-blend-mode:normal;" figma:type="vector">
<use xlink:href="#path7_fill" transform="translate(880.246 -218.366)" fill="#5E50B1" style="mix-blend-mode:normal;"/>
</g>
<g id="Vector" style="mix-blend-mode:normal;" figma:type="vector">
<use xlink:href="#path8_fill" transform="translate(880.559 -233.212)" fill="#6B5EB4" style="mix-blend-mode:normal;"/>
</g>
<g id="Vector" style="mix-blend-mode:normal;" figma:type="vector">
<use xlink:href="#path9_fill" transform="translate(908.721 -210.05)" fill="#3B318C" style="mix-blend-mode:normal;"/>
</g>
<g id="Vector" style="mix-blend-mode:normal;" figma:type="vector">
<use xlink:href="#path10_fill" transform="translate(909.844 -218.444)" fill="#5E50B1" style="mix-blend-mode:normal;"/>
</g>
<g id="Vector" style="mix-blend-mode:normal;" figma:type="vector">
<use xlink:href="#path11_fill" transform="translate(910.031 -222.961)" fill="#6A5EB4" style="mix-blend-mode:normal;"/>
</g>
<g id="Vector" style="mix-blend-mode:normal;" figma:type="vector">
<use xlink:href="#path12_fill" transform="translate(886.812 -226.864)" fill="#5E50B1" style="mix-blend-mode:normal;"/>
</g>
<g id="Vector" style="mix-blend-mode:normal;" figma:type="vector">
<use xlink:href="#path13_fill" transform="translate(885.705 -227.798)" fill="#7866C2" style="mix-blend-mode:normal;"/>
</g>
<g id="Vector" style="mix-blend-mode:normal;" figma:type="vector">
<use xlink:href="#path14_fill" transform="translate(908.347 -219.78)" fill="#7865C2" style="mix-blend-mode:normal;"/>
</g>
<g id="Vector" style="mix-blend-mode:normal;" figma:type="vector">
<use xlink:href="#path15_fill" transform="translate(902.511 -219.922)" fill="#1DB2A4" style="mix-blend-mode:normal;"/>
</g>
<g id="Vector" style="mix-blend-mode:normal;" figma:type="vector">
<use xlink:href="#path16_fill" transform="translate(907.213 -210.704)" fill="#4B3E98" style="mix-blend-mode:normal;"/>
</g>
<g id="Vector" style="mix-blend-mode:normal;" figma:type="vector">
<use xlink:href="#path17_fill" transform="translate(885.654 -215.57)" fill="#6B5EB4" style="mix-blend-mode:normal;"/>
</g>
<g id="Vector" style="mix-blend-mode:normal;" figma:type="vector">
<use xlink:href="#path18_fill" transform="translate(887.857 -213.792)" fill="#4F46A2" style="mix-blend-mode:normal;"/>
</g>
<g id="Vector" style="mix-blend-mode:normal;" figma:type="vector">
<use xlink:href="#path19_fill" transform="translate(892.909 -220.383)" fill="#7865C2" style="mix-blend-mode:normal;"/>
</g>
<g id="Vector" style="mix-blend-mode:normal;" figma:type="vector">
<use xlink:href="#path20_fill" transform="translate(902.172 -213.792)" fill="#332D82" style="mix-blend-mode:normal;"/>
</g>
<g id="Vector" style="mix-blend-mode:normal;" figma:type="vector">
<use xlink:href="#path21_fill" transform="translate(903.201 -218.938)" fill="#5D50B1" style="mix-blend-mode:normal;"/>
</g>
<g id="Vector" style="mix-blend-mode:normal;" figma:type="vector">
<use xlink:href="#path22_fill" transform="translate(901.42 -217.262)" fill="#7865C2" style="mix-blend-mode:normal;"/>
</g>
<g id="Vector" style="mix-blend-mode:normal;" figma:type="vector">
<use xlink:href="#path23_fill" transform="translate(901.362 -217.909)" fill="#67EDE1" style="mix-blend-mode:normal;"/>
</g>
<g id="Vector" style="mix-blend-mode:normal;" figma:type="vector">
<use xlink:href="#path24_fill" transform="translate(895.155 -218.733)" fill="#4F47A3" style="mix-blend-mode:normal;"/>
</g>
<g id="Vector" style="mix-blend-mode:normal;" figma:type="vector">
<use xlink:href="#path25_fill" transform="translate(894.685 -216.131)" fill="#433E93" style="mix-blend-mode:normal;"/>
</g>
<g id="Vector" style="mix-blend-mode:normal;" figma:type="vector">
<use xlink:href="#path26_fill" transform="translate(899.272 -214.981)" fill="#312D7E" style="mix-blend-mode:normal;"/>
</g>
<g id="Vector" style="mix-blend-mode:normal;" figma:type="vector">
<use xlink:href="#path27_fill" transform="translate(898.959 -216.973)" fill="#484499" style="mix-blend-mode:normal;"/>
</g>
<g id="Vector" style="mix-blend-mode:normal;" figma:type="vector">
<use xlink:href="#path28_fill" transform="translate(899.272 -216.523)" fill="#61D0D3" style="mix-blend-mode:normal;"/>
</g>
</g>
</g>
</g>
<defs>
<path id="path0_fill" d="M 36.864 30.6576C 31.9053 38.3296 23.0171 41.6978 14.2224 39.1717C 5.98901 36.7391 0.0946941 28.88 0.00113341 20.2724C -0.0924272 11.2906 5.61477 3.43149 14.0352 0.905353C 22.6428 -1.71435 31.6246 1.46672 36.5833 8.95157C 36.4898 9.51293 36.1155 9.70005 35.5542 9.88718C 34.525 9.98074 33.8701 9.41937 33.2152 8.76445C 28.0693 3.15081 21.7072 1.18603 14.503 3.52505C 7.95379 5.58339 4.1178 10.355 2.71439 17.1849C 0.749619 27.0088 8.98295 37.0198 18.9939 37.3004C 25.4496 37.4876 30.5019 35.1486 34.3379 29.9092C 34.525 29.722 34.7121 29.6285 34.8993 29.5349C 35.7413 29.6285 36.3962 30.0027 36.864 30.6576Z"/>
<path id="path1_fill" d="M 1.68922 0.169579C 4.5896 6.34458 4.5896 12.426 1.31498 18.4139C 0.566491 18.1332 0.192251 17.4783 0.00512961 16.8234C 0.0986903 14.3908 1.12786 12.1453 1.22142 9.80632C 1.22142 8.87072 1.40854 8.02867 1.22142 7.09307C 1.12786 5.03473 -0.088431 3.16352 0.00512961 1.10519C 0.285812 0.263139 0.753614 -0.298225 1.68922 0.169579Z"/>
<path id="path2_fill" d="M 13.3792 5.61364C 12.8178 5.7072 12.2564 5.98788 11.9758 6.54925C 10.7595 8.3269 8.88826 9.07538 7.20417 10.1045C 6.92349 10.1981 6.54925 10.2917 6.26856 10.2917C 5.05228 10.1046 4.39735 11.0402 3.36818 11.4144C 1.87121 12.0693 0.561365 12.1629 7.13811e-07 10.1981C 0.561365 8.3269 2.43258 8.04622 3.74243 7.11061C 4.30379 6.92349 4.77159 6.73637 5.33296 6.92349C 6.36212 8.13978 7.39129 7.39129 8.3269 6.73637C 11.9758 4.39735 15.6246 2.15189 19.3671 8.30985e-16C 19.6477 8.30985e-16 19.8349 0.0935608 19.9284 0.280682C 20.3027 2.6197 18.6186 2.99394 16.9345 3.46174C 15.6246 3.92955 14.5019 4.77159 13.3792 5.61364Z"/>
<path id="path3_fill" d="M 13.9405 0.750619C 12.6307 2.71539 10.2917 3.27676 8.51402 4.49304C 6.36212 5.99002 4.02311 7.2063 1.87121 8.60971C 0.374244 9.54532 -3.56906e-07 8.98396 -3.56906e-07 7.58055C -3.56906e-07 7.2063 0.0935599 6.92562 0.374242 6.7385C 2.05833 5.70933 3.74242 4.68017 5.80076 4.39948C 6.175 4.21236 6.54924 4.02524 6.92349 3.83812C 8.04622 3.27676 9.2625 2.62183 10.3852 2.06047C 10.853 1.40554 11.3208 0.657058 12.2564 0.376377C 12.8178 0.0956945 13.6599 -0.46567 13.9405 0.750619Z"/>
<path id="path4_fill" d="M -7.13811e-07 3.55956C 0.748484 2.34327 2.99394 2.34327 2.71326 0.284939C 3.18106 -0.182864 3.64887 0.00425724 4.11667 0.284939C 5.05228 0.752742 5.42652 1.40767 5.14583 2.43683C 4.86515 3.466 4.11667 3.84024 3.18106 4.02737C 2.1519 4.30805 1.02917 4.21449 -7.13811e-07 3.55956Z"/>
<path id="path5_fill" d="M 5.42652 2.72574C 4.95871 2.72574 4.49091 2.72574 4.02311 2.72574L 3.83599 2.72574L 3.64887 2.72574C 1.96478 2.07081 1.30985 3.94203 6.64788e-15 4.03559C 1.32958e-14 3.7549 -1.42902e-06 3.38066 0.0935592 3.00642C 0.654923 1.60301 1.12273 0.106039 2.99394 0.0124784C 5.14584 -0.174643 4.67803 1.79013 5.42652 2.72574Z"/>
<path id="path6_fill" d="M 1.32758 0.0935603C 1.9825 0.374242 2.26318 0.935607 2.35674 1.59053C 2.16962 1.96477 1.88894 2.43258 1.70182 2.80682C 0.953338 2.80682 0.391971 2.6197 0.0177284 1.87121C -0.0758323 1.12273 0.204852 0.467803 0.766216 -7.13811e-07C 0.953338 -7.13811e-07 1.14046 -3.55511e-07 1.32758 0.0935603Z"/>
<path id="path7_fill" d="M 32.9662 13.1815C 32.6855 15.614 30.7208 16.7368 29.1302 17.9531C 22.7681 22.444 15.9382 22.9118 9.20181 19.0758C 2.46545 15.3334 -0.341372 9.15835 0.0328706 1.48638C 0.0328706 1.11213 0.313552 0.831452 0.407113 0.457209C 2.46545 -0.291276 4.43022 -0.291275 5.74007 1.76706C 5.92719 2.04774 5.92719 2.42198 6.02075 2.70267C 6.02075 3.45115 6.11431 4.19964 6.39499 4.94812C 8.26621 12.9943 15.2833 17.111 22.6745 14.3042C 24.7329 13.5557 26.417 12.2459 27.7268 10.3746C 27.9139 10.1875 28.1011 10.1875 28.3818 10.094C 30.0658 10.936 31.937 11.4038 32.9662 13.1815Z"/>
<path id="path8_fill" d="M 5.05228 16.7063C 3.74243 15.7707 2.52614 14.8351 0.748485 15.8642C 0.280682 16.1449 0.0935607 15.7707 4.46132e-08 15.3029C 0.748485 8.28581 6.92349 1.83012 14.1277 0.426712C 21.2383 -0.976697 27.1326 1.08164 31.9042 6.60172C 32.372 7.06952 32.7462 7.63088 33.4947 7.72444C 31.8106 8.84717 30.1265 9.78278 28.2553 10.4377C 27.3197 10.7184 26.8519 9.9699 26.3841 9.5021C 18.8057 2.57861 8.04622 7.25664 6.36212 15.0222C 6.175 15.6771 5.98788 16.4256 5.05228 16.7063Z"/>
<path id="path9_fill" d="M 4.49091 4.86515C 2.99394 3.92955 1.12273 3.64886 -7.13811e-07 2.15189C 0.0935599 1.02917 0.748484 0.280683 1.87121 7.13811e-07C 3.5553 0.561365 5.42652 0.842045 5.89432 2.99394C 5.80076 3.74243 5.52008 4.30379 4.95871 4.86515C 4.77159 4.86515 4.67803 4.86515 4.49091 4.86515Z"/>
<path id="path10_fill" d="M 4.77159 11.3885C 3.64886 10.1722 2.05833 9.61082 0.748484 8.67521C 0.374242 8.58165 0.0935607 8.39453 -6.64788e-15 7.92673C 0.187121 5.8684 0.654924 3.90362 1.21629 1.93885C 3.18106 -0.49373 4.49091 -0.587289 6.6428 1.37748C 7.48485 3.81006 6.54925 6.14908 6.08144 8.58165C 5.89432 9.51726 5.52008 10.4529 5.23939 11.3885C 5.05227 11.3885 4.86515 11.3885 4.77159 11.3885Z"/>
<path id="path11_fill" d="M 6.36212 5.98788C 4.58447 5.14583 2.90038 4.86515 1.40341 6.45568C -0.187121 5.89432 0.0935614 4.49091 7.13811e-07 3.18106C 1.49697 1.96477 3.27462 0.935606 4.95871 -3.56906e-07C 5.61364 1.96477 6.45569 3.83599 6.36212 5.98788Z"/>
<path id="path12_fill" d="M 20.2255 5.02544C 19.1028 6.0546 17.4187 6.24172 16.4831 7.55157C 16.3895 7.83225 16.2024 8.11294 15.9217 8.2065C 15.1732 8.30006 14.6119 7.92582 14.0505 7.64513C 10.7759 6.24172 8.06262 7.55157 7.12701 10.9198C 6.93989 11.6682 6.84633 12.4167 6.56565 13.0717C 4.97512 15.4107 4.788 15.4107 0.671327 14.2879C -0.825643 10.8262 0.390645 7.83226 2.26186 5.02544C 6.00428 -0.494642 13.4891 -1.61737 18.8221 2.40574C 19.477 3.15422 20.5062 3.71559 20.2255 5.02544Z"/>
<path id="path13_fill" d="M 21.3318 5.9594C 17.9636 1.56205 12.4436 0.532883 7.29773 3.3397C 3.18106 5.4916 0.748485 11.6666 2.24546 15.409C 2.90038 15.6897 3.0875 16.2511 3.36818 16.8124C 5.89432 23.3617 14.8761 25.2329 20.2091 20.0871C 20.3962 19.8999 20.6769 19.7128 20.864 19.5257C 21.0511 19.4321 21.2383 19.3386 21.5189 19.3386C 21.9868 19.4321 22.361 19.6193 22.5481 20.0871C 22.6417 22.3325 20.6769 22.9874 19.3671 23.8295C 11.8822 28.2268 1.49697 24.1102 0.467803 14.6605C -0.0935608 14.0056 0.561364 13.07 -1.78453e-07 12.4151C -1.78453e-07 12.1344 -1.78453e-07 11.8537 -1.78453e-07 11.4795C 1.02917 8.1113 2.05833 4.74311 5.33296 2.68478C 11.4144 -1.61901 18.1508 -0.683405 23.1095 5.02379C 22.9224 5.21092 22.7352 5.39804 22.5481 5.4916C 22.1739 5.67872 21.7061 5.86584 21.3318 5.9594Z"/>
<path id="path14_fill" d="M 1.68409 -7.13811e-07C 2.90038 0.748484 2.33902 2.33902 3.0875 3.27462C 2.99394 5.42652 2.6197 7.57841 1.68409 9.54319C 1.02917 9.82387 0.561362 9.63675 0.18712 9.16894C 0.0935592 8.98182 -3.56906e-07 8.70114 -3.56906e-07 8.51402C 0.654924 6.08144 0.374242 3.64887 -3.56906e-07 1.12273C 0.0935603 0.654925 0.280681 0.280682 0.842045 0.187121C 1.12273 0.0935606 1.40341 0.0935599 1.68409 -7.13811e-07Z"/>
<path id="path15_fill" d="M 6.67789 0.328942C 6.49077 0.609623 6.30365 0.796744 6.11653 1.07743C 4.9938 2.76152 3.40327 3.60356 1.4385 3.51C 1.25137 3.51 0.970692 3.41644 0.78357 3.22932C 0.409328 2.94864 0.128647 2.5744 0.035086 2.10659C -0.0584747 1.73235 0.0350852 1.45167 0.315767 1.17099C 0.502889 0.983866 0.596449 0.796744 0.78357 0.703184C 1.71918 2.38728 2.84191 1.82591 4.15175 1.17099C 4.90024 0.703184 5.4616 -0.606665 6.67789 0.328942Z"/>
<path id="path16_fill" d="M 1.60204 0C 2.06984 0.187121 2.44408 0.280682 2.91189 0.467803C 3.09901 0.654925 3.19257 0.748485 3.37969 0.935607C 2.81833 1.49697 2.1634 2.15189 1.50848 2.71326C 1.32136 2.71326 1.2278 2.71326 1.04067 2.71326C 0.759992 2.6197 0.47931 2.43258 0.105067 2.33902C -0.269175 1.12273 0.385752 0.374243 1.60204 0Z"/>
<path id="path17_fill" d="M 0.0515536 -7.13811e-07C 0.706478 0.654924 0.425796 1.49697 0.519357 2.24546C -0.229128 1.59053 0.0515536 0.748484 0.0515536 -7.13811e-07Z"/>
<path id="path18_fill" d="M 19.0864 5.52008C 17.3087 8.42046 14.4083 9.63675 11.3208 9.73031C 5.2394 9.91743 1.02917 6.36212 1.66197e-15 1.40341C 0.0935607 1.02917 0.187121 0.654925 0.654924 0.935607C 2.43258 2.33902 3.74243 1.49697 4.95871 7.13811e-07C 5.7072 0.0935614 5.98788 0.748485 6.36212 1.30985C 8.23334 3.74243 9.91743 4.21023 12.7242 3.0875C 13.3792 2.80682 14.0341 2.43258 14.7826 2.43258C 16.5602 3.18106 18.2443 3.74243 19.0864 5.52008Z"/>
<path id="path19_fill" d="M 9.91743 9.30452C 7.95266 10.5208 6.08144 11.55 3.64886 10.7079C 1.68409 9.95945 0.842045 8.36892 -3.56906e-07 6.68482C 0.187121 3.59732 1.12273 0.977626 4.58447 0.13558C 6.73637 -0.425784 8.23334 0.884065 9.91743 1.72611C 9.91743 2.00679 9.91743 2.28747 9.91743 2.56816C 9.73031 3.22308 9.2625 3.4102 8.70114 3.50376C 8.13978 3.50376 7.67197 3.22308 7.20417 3.03596C 5.05228 2.19391 4.11667 2.4746 2.80682 4.62649C 2.43258 5.93634 2.71326 7.05907 3.83599 7.80755C 5.42652 8.83672 6.92349 8.27536 8.42046 7.43331C 8.60758 7.33975 8.88826 7.33975 9.07538 7.33975C 9.35607 7.33975 9.54319 7.43331 9.73031 7.62043C 10.2917 7.99467 10.5724 8.55604 9.91743 9.30452Z"/>
<path id="path20_fill" d="M 0.654925 2.71326C 0.842046 1.96477 0.561363 1.40341 -7.13811e-07 0.935607C 0.374242 0.374243 0.935606 0.187122 1.49697 7.13811e-07C 3.64886 7.13811e-07 5.42652 0.748486 6.54924 2.71326C 6.54924 2.90038 6.54924 2.99394 6.54924 3.0875C 6.08144 3.92955 5.61364 4.67803 5.14583 5.52008L 4.95871 5.52008L 4.77159 5.52008C 3.36818 4.49091 1.68409 4.02311 0.654925 2.71326Z"/>
<path id="path21_fill" d="M 5.52008 7.8591C 3.83599 7.20417 2.52614 5.61364 0.561364 5.61364C -0.187121 4.39735 -0.187121 3.18106 0.561364 1.96477C 2.6197 2.24545 3.74242 0.467804 5.52008 7.13811e-07C 6.45568 2.6197 6.73637 5.2394 5.52008 7.8591Z"/>
<path id="path22_fill" d="M 2.343 0.382679C 2.343 1.59897 2.343 2.81526 2.343 4.03154C 1.87519 4.59291 1.31383 4.40579 0.752465 4.40579C 0.378222 4.31223 0.191102 4.03154 0.0975416 3.6573C 0.191102 2.53457 -0.370262 1.31829 0.471784 0.195558C 0.939587 0.00843707 1.40739 -0.0851239 1.87519 0.101997C 1.96875 0.195558 2.15588 0.289118 2.343 0.382679Z"/>
<path id="path23_fill" d="M 1.93267 0.748486C 1.46487 0.842046 0.997062 0.935606 0.529259 1.02917C 0.342138 1.12273 0.155016 1.12273 0.0614557 0.935606C -0.0321049 0.748484 -0.0321046 0.561363 0.155017 0.467802C 0.62282 0.280681 0.997062 0.0935599 1.46487 -7.13811e-07C 1.65199 0.280681 1.74555 0.467804 1.93267 0.748486Z"/>
<path id="path24_fill" d="M 6.36212 1.29241C 6.36212 1.47954 6.36212 1.5731 6.36212 1.76022C 6.45568 1.85378 6.54924 1.94734 6.54924 2.0409C 6.54924 2.13446 6.54925 2.22802 6.45569 2.22802C 5.98788 2.78939 5.2394 2.88295 4.77159 3.35075C 4.49091 3.72499 4.39735 4.19279 4.30379 4.6606C 4.21023 4.84772 4.11667 5.03484 3.92955 5.1284C 1.59053 5.78333 1.21629 3.53787 -7.13811e-07 2.60227C 1.21629 -0.391676 3.27462 -0.76592 6.36212 1.29241Z"/>
<path id="path25_fill" d="M 0.376611 7.13811e-07C 1.40578 7.13811e-07 2.0607 0.374243 2.43494 1.30985C 2.90275 2.24546 3.55767 2.71326 4.49328 1.87121C 5.80313 1.49697 6.45805 2.1519 6.73873 3.27462C 5.33532 5.14584 3.46411 5.05228 1.78002 4.21023C 0.376611 3.36818 -0.558995 1.96477 0.376611 7.13811e-07Z"/>
<path id="path26_fill" d="M 2.24546 2.12498C 1.49697 1.65718 0.748486 1.18937 7.13811e-07 0.721569C 0.935607 -0.307598 1.21629 -0.307598 2.71326 1.18937C 2.80682 1.47005 2.90038 1.8443 2.90038 2.12498C 2.71326 2.12498 2.43258 2.12498 2.24546 2.12498Z"/>
<path id="path27_fill" d="M 3.02627 3.18106C 2.09066 3.36818 1.34217 1.87121 0.313007 2.71326C -0.341917 2.24546 0.219447 1.77765 0.313007 1.30985C 1.06149 0.935607 1.80998 0.842045 2.55846 0.467803C 2.55846 0.280681 2.55846 0.187121 2.55846 -7.13811e-07C 2.74558 -7.13811e-07 2.83914 0.0935603 2.9327 0.0935603C 2.9327 1.12273 3.77475 2.1519 3.02627 3.18106Z"/>
<path id="path28_fill" d="M 2.24546 0.0175419C 1.59053 0.672466 0.935607 1.04671 7.13811e-07 0.859589C 0.561365 0.204665 1.30985 -0.0760187 2.24546 0.0175419Z"/>
</defs>
</svg>
