<svg width="691" height="325" viewBox="0 0 691 325" fill="none" xmlns="http://www.w3.org/2000/svg">
<path d="M0 0H13.5467H0Z" fill="white"/>
<path d="M248.114 324.211H247.275C247.296 320.972 247.472 317.731 247.811 314.519C250.257 291.277 262.336 269.236 280.948 254.047C302.668 236.322 334.573 226.695 369.603 226.695C378.779 226.695 388.167 227.355 397.647 228.704C401.83 229.298 406.072 230.018 410.174 230.716C420.434 232.46 430.985 234.252 441.623 234.252C443.842 234.252 446.063 234.174 448.287 234.002C467.449 232.517 485.158 224.235 502.283 216.227C507.516 213.779 512.926 211.249 518.289 208.956C544.05 197.939 570.41 192.231 594.642 192.231C601.982 192.231 609.125 192.754 616 193.813V194.517C609.127 193.449 601.979 192.922 594.634 192.922C570.54 192.922 544.318 198.604 518.675 209.57C513.327 211.858 507.923 214.384 502.697 216.828C485.494 224.873 467.707 233.192 448.366 234.69C446.116 234.865 443.868 234.943 441.627 234.943C430.906 234.944 420.31 233.145 410.005 231.394C405.909 230.697 401.674 229.978 397.504 229.385C388.071 228.043 378.727 227.385 369.598 227.385C334.788 227.385 303.1 236.942 281.539 254.539C263.066 269.614 251.077 291.497 248.647 314.578C248.31 317.772 248.134 320.991 248.114 324.211Z" fill="#26DCCE" fill-opacity="0.25"/>
<path d="M331.042 324.211H330.052C333.176 319.988 336.806 316.118 340.876 312.72C356.265 299.877 378.869 292.9 403.685 292.9C410.183 292.9 416.833 293.379 423.545 294.355C426.506 294.787 429.508 295.308 432.411 295.812C439.665 297.072 447.126 298.368 454.642 298.368C456.206 298.368 457.772 298.312 459.34 298.188C472.87 297.117 485.387 291.13 497.491 285.34C501.194 283.569 505.023 281.738 508.819 280.078C527.062 272.1 545.732 267.965 562.895 267.965C568.739 267.965 574.407 268.445 579.827 269.414C594.392 272.022 606.937 278.319 616 286.971V288.051C607.008 279.195 594.377 272.742 579.652 270.106C574.288 269.147 568.676 268.672 562.889 268.672C545.862 268.672 527.33 272.779 509.206 280.706C505.424 282.36 501.602 284.188 497.905 285.955C485.724 291.781 473.128 297.806 459.419 298.892C457.82 299.018 456.224 299.076 454.633 299.076C447.036 299.076 439.537 297.773 432.241 296.505C429.345 296.002 426.35 295.481 423.402 295.052C416.738 294.083 410.131 293.608 403.68 293.608C379.083 293.608 356.698 300.511 341.466 313.223C337.562 316.482 334.068 320.18 331.042 324.211Z" fill="#26DCCE" fill-opacity="0.25"/>
<path d="M76.3023 129.77C74.9944 129.77 73.6963 129.75 72.402 129.71C40.7467 128.734 13.9322 115.214 0 94.4976V93.014C13.5786 114.168 40.5405 128.031 72.4773 129.016C73.7618 129.055 75.0567 129.075 76.3548 129.075C105.748 129.075 138.501 118.951 169.077 100.35C174.047 97.3267 179.037 94.058 183.864 90.8969C199.75 80.4917 216.176 69.7325 235.108 65.5035C243.733 63.577 252.509 63.1089 261.197 63.1089C265.343 63.1089 269.468 63.2152 273.549 63.3209C277.623 63.4259 281.833 63.5349 285.967 63.5349C286.048 63.5349 286.128 63.5349 286.209 63.5349C332.065 63.4837 373.64 48.0227 397.429 22.1734C403.56 15.5122 408.625 8.01252 412.503 0.000632846H413.386C409.464 8.16036 404.32 15.7988 398.083 22.5767C374.127 48.6082 332.288 64.1781 286.164 64.2293C286.07 64.2293 285.977 64.2293 285.884 64.2293C281.748 64.2293 277.545 64.121 273.477 64.016C269.403 63.9103 265.283 63.8033 261.146 63.8033C252.517 63.8033 243.812 64.2676 235.283 66.1739C216.528 70.3634 200.173 81.0753 184.358 91.4338C179.526 94.5994 174.53 97.8714 169.547 100.903C138.82 119.595 105.876 129.769 76.3023 129.77Z" fill="#26DCCE" fill-opacity="0.25"/>
<path d="M103.101 49.8448C102.078 49.8448 101.062 49.8273 100.05 49.7923C71.4586 48.8002 48.3897 33.0838 42.6451 10.6841C41.8844 7.7182 42.0395 4.04099 42.5585 0.000677035H43.3956C42.8807 3.99365 42.7226 7.61443 43.4632 10.5012C49.1293 32.5987 71.9002 48.1031 100.124 49.0823C101.125 49.1173 102.133 49.1348 103.146 49.1348C123.85 49.1348 146.873 41.8991 168.353 28.5902C171.862 26.4161 175.386 24.0642 178.794 21.7902C190.025 14.2932 201.638 6.54195 215.054 3.52096C220.997 2.18262 227.039 1.84285 233.025 1.84285C236.137 1.84285 239.233 1.93492 242.295 2.02569C245.233 2.11193 248.272 2.20205 251.25 2.20854C251.346 2.20854 251.444 2.20854 251.539 2.20854C259.991 2.20854 268.234 1.45119 276.096 0.000677035H279.717C270.761 1.91352 261.266 2.91857 251.499 2.91857C251.401 2.91857 251.306 2.91857 251.208 2.91857C248.216 2.91209 245.171 2.8226 242.226 2.73506C239.179 2.64493 236.095 2.55415 233 2.55415C227.064 2.55415 221.086 2.88874 215.232 4.20633C201.991 7.18777 190.45 14.891 179.29 22.3401C175.876 24.6186 172.346 26.9743 168.825 29.1569C147.194 42.5578 123.987 49.8448 103.101 49.8448Z" fill="#26DCCE" fill-opacity="0.25"/>
<path d="M188.243 324.342H70.3569V308.574H188.243V324.342Z" fill="#0A0B0B"/>
<path d="M208.967 207.438C212.113 207.521 214.218 204.226 212.82 201.405L190.85 157.071C190.384 155.954 189.849 154.873 189.246 153.834L189.244 153.829C184.713 146.035 176.481 140.625 166.857 140.083L104.621 136.585L104.601 136.557L104.139 136.566L104.038 136.562C103.971 136.562 103.906 136.572 103.838 136.572L93.5263 136.768C75.5073 137.111 59.2667 148.777 54.287 166.097C54.0861 166.796 53.9033 167.503 53.7379 168.218L40.8328 212.004C39.9468 215.01 42.1043 218.052 45.2337 218.209L76.2361 219.772L66.2576 302.602C65.866 305.848 68.4006 308.705 71.67 308.705H189.117C191.773 308.705 193.916 306.532 193.877 303.876L193.834 207.01L208.967 207.438Z" fill="#26DCCE"/>
<path d="M104.027 136.886L103.957 136.891L103.841 136.897L93.5328 137.092C75.4354 137.437 59.4248 149.401 54.5984 166.187C54.4003 166.877 54.2174 167.584 54.0538 168.291L41.1436 212.097C40.7497 213.433 40.9861 214.851 41.7921 215.988C42.5975 217.124 43.8584 217.816 45.2497 217.886L76.253 219.449C76.3425 219.453 76.4262 219.495 76.4845 219.563C76.5422 219.633 76.5688 219.721 76.5578 219.811L66.5793 302.64C66.4035 304.096 66.8607 305.559 67.8333 306.655C68.8053 307.752 70.2046 308.381 71.67 308.381H189.117C190.314 308.381 191.437 307.911 192.277 307.059C193.117 306.206 193.571 305.078 193.553 303.881L193.51 207.01C193.51 206.922 193.545 206.838 193.608 206.778C193.67 206.716 193.75 206.682 193.843 206.686L208.975 207.114C210.341 207.171 211.59 206.485 212.324 205.336C213.058 204.187 213.135 202.772 212.53 201.549L190.56 157.216C190.087 156.087 189.554 155.01 188.966 153.997C184.32 146.004 176.048 140.925 166.839 140.407L104.603 136.909L104.494 136.884L104.145 136.89L104.027 136.886ZM189.117 309.03H71.67C70.0185 309.03 68.4435 308.321 67.3476 307.086C66.2531 305.85 65.7383 304.202 65.936 302.563L75.8731 220.079L45.2168 218.533C43.6261 218.453 42.1846 217.662 41.2634 216.363C40.3414 215.063 40.0712 213.441 40.5221 211.913L53.4269 168.126C53.588 167.428 53.7742 166.709 53.9752 166.009C58.8797 148.951 75.141 136.794 93.5205 136.444L103.911 136.244L104.039 136.238L104.151 136.242L104.596 136.233L104.747 136.268L166.875 139.76C176.303 140.29 184.77 145.489 189.524 153.666C190.129 154.709 190.675 155.811 191.149 156.946L213.111 201.262C213.818 202.689 213.728 204.343 212.871 205.685C212.014 207.027 210.537 207.816 208.959 207.763H208.958L194.158 207.344L194.201 303.876C194.221 305.243 193.702 306.537 192.739 307.514C191.776 308.491 190.489 309.03 189.117 309.03Z" fill="#0A0B0B"/>
<path d="M227.617 167.323C231.422 160.35 232.718 151.922 229.299 144.528L224.921 146.124C224.921 146.124 220.729 134.05 220.052 125.233C218.37 122.234 206.195 128.561 206.195 128.561C206.195 128.561 207.403 125.27 208.008 123.624C208.648 121.88 209.299 120.021 208.916 118.202C208.533 116.384 206.667 114.75 204.901 115.327C203.163 115.896 199.871 123.099 198.834 124.794C192.589 134.999 192.665 148.348 193.762 159.885C194.347 166.034 191.565 229.349 192.626 232.16C199.036 249.133 222.924 249.477 229.815 232.694C230.691 229.392 231.194 226.016 231.322 222.63C231.495 218.051 223.908 177.1 223.791 175.711C223.626 173.763 224.55 172.049 225.618 170.417C226.308 169.364 227.059 168.347 227.617 167.323Z" fill="#F5E9D7"/>
<path d="M205.644 115.533C205.439 115.533 205.224 115.564 205.002 115.636C203.816 116.024 201.488 120.483 200.238 122.878C199.753 123.806 199.371 124.538 199.11 124.964C192.71 135.423 193.062 149.104 194.085 159.855C194.35 162.641 193.931 176.993 193.488 192.188C192.963 210.174 192.368 230.559 192.929 232.046C195.847 239.771 202.789 244.644 211.048 244.762C219.309 244.85 226.379 240.208 229.515 232.572C230.367 229.351 230.87 225.989 230.997 222.618C231.123 219.29 227.049 196.215 224.859 183.818C224.041 179.184 223.5 176.122 223.468 175.738C223.295 173.691 224.269 171.885 225.347 170.239C225.556 169.92 225.771 169.604 225.985 169.29C226.481 168.559 226.951 167.869 227.333 167.168C231.431 159.656 232.08 151.571 229.127 144.936L225.031 146.428C224.951 146.458 224.86 146.454 224.781 146.417C224.703 146.38 224.642 146.312 224.614 146.231C224.572 146.109 220.426 134.086 219.735 125.335C218.504 123.467 210.898 126.482 206.345 128.848C206.227 128.91 206.081 128.893 205.981 128.804C205.88 128.715 205.845 128.575 205.89 128.449L207.704 123.513C208.27 121.971 208.975 120.051 208.598 118.269C208.397 117.31 207.72 116.375 206.877 115.888C206.568 115.709 206.138 115.533 205.644 115.533ZM211.353 245.412C211.248 245.412 211.143 245.412 211.038 245.411C202.508 245.289 195.337 240.255 192.323 232.275C191.758 230.78 192.162 215.425 192.839 192.169C193.283 176.995 193.701 162.662 193.439 159.916C192.407 149.066 192.056 135.248 198.557 124.625C198.807 124.219 199.203 123.458 199.663 122.579C201.613 118.843 203.473 115.453 204.801 115.02C205.568 114.767 206.422 114.877 207.201 115.326C208.212 115.91 208.991 116.986 209.233 118.136C209.647 120.099 208.908 122.116 208.313 123.736L206.783 127.898C209.638 126.478 218.744 122.236 220.335 125.075L220.376 125.209C220.981 133.101 224.466 143.757 225.121 145.706L229.188 144.223C229.344 144.166 229.522 144.239 229.593 144.392C232.772 151.266 232.156 159.681 227.902 167.478C227.504 168.207 227.004 168.943 226.521 169.655C226.309 169.965 226.097 170.279 225.889 170.595C224.717 172.385 223.966 173.936 224.114 175.684C224.144 176.038 224.712 179.254 225.498 183.706C227.691 196.126 231.774 219.245 231.646 222.642C231.517 226.061 231.007 229.472 230.129 232.777C226.916 240.608 219.745 245.412 211.353 245.412Z" fill="#0A0B0B"/>
<path d="M221.76 152.38C218.728 152.904 215.846 150.87 215.322 147.838L210.205 118.192C209.681 115.16 211.715 112.277 214.747 111.754C217.778 111.231 220.661 113.264 221.184 116.296L226.302 145.943C226.826 148.975 224.792 151.856 221.76 152.38Z" fill="#5E50B1"/>
<path d="M215.705 111.996C215.405 111.996 215.103 112.022 214.802 112.074C213.421 112.312 212.215 113.074 211.407 114.219C210.599 115.365 210.285 116.756 210.524 118.137L215.641 147.783C215.88 149.164 216.642 150.37 217.787 151.177C218.933 151.985 220.322 152.299 221.705 152.061C224.556 151.568 226.475 148.849 225.982 145.998L220.864 116.351C220.626 114.97 219.864 113.765 218.719 112.957C217.824 112.325 216.778 111.996 215.705 111.996ZM220.8 152.787C219.594 152.787 218.419 152.417 217.414 151.707C216.127 150.799 215.271 149.445 215.002 147.893L209.885 118.247C209.616 116.695 209.969 115.132 210.877 113.845C211.785 112.559 213.139 111.703 214.691 111.434C216.242 111.167 217.806 111.519 219.093 112.427C220.379 113.335 221.235 114.69 221.503 116.241L226.622 145.888C227.174 149.091 225.018 152.147 221.815 152.699C221.477 152.758 221.136 152.787 220.8 152.787Z" fill="#0A0B0B"/>
<path d="M220.885 116.415L210.614 118.188C208.462 118.559 206.418 117.116 206.046 114.965L205.651 112.675C205.28 110.525 206.723 108.479 208.873 108.108L219.146 106.334C221.296 105.964 223.341 107.406 223.713 109.557L224.108 111.847C224.479 113.998 223.037 116.043 220.885 116.415Z" fill="#FEF7EE"/>
<path d="M219.82 106.601C219.615 106.601 219.409 106.618 219.201 106.654L208.928 108.428C206.957 108.768 205.63 110.649 205.97 112.62L206.366 114.91C206.706 116.881 208.586 118.207 210.559 117.868L220.83 116.095C222.801 115.755 224.129 113.874 223.788 111.902L223.393 109.612C223.089 107.849 221.551 106.601 219.82 106.601ZM209.939 118.57C207.897 118.57 206.086 117.099 205.726 115.02L205.331 112.731C204.93 110.407 206.495 108.19 208.818 107.788L219.09 106.015C221.414 105.614 223.631 107.179 224.033 109.503L224.428 111.792C224.828 114.116 223.264 116.333 220.94 116.734L210.669 118.507C210.424 118.549 210.18 118.57 209.939 118.57Z" fill="#0A0B0B"/>
<path d="M193.118 102.71L190.126 103.226C188.663 103.479 187.273 102.498 187.022 101.036L186.926 100.485C186.674 99.0234 187.654 97.6332 189.116 97.381L192.108 96.8642L193.118 102.71Z" fill="#F5E9D7"/>
<path d="M191.844 97.239L189.171 97.7006C187.888 97.9224 187.024 99.1466 187.245 100.43L187.34 100.981C187.448 101.603 187.791 102.146 188.307 102.509C188.822 102.874 189.449 103.015 190.07 102.907L192.743 102.446L191.844 97.239ZM189.662 103.591C189.046 103.591 188.446 103.402 187.933 103.039C187.275 102.575 186.839 101.884 186.702 101.091L186.606 100.541C186.324 98.9047 187.425 97.344 189.061 97.0613L192.054 96.5451C192.138 96.5302 192.225 96.5503 192.296 96.5996C192.366 96.6489 192.413 96.7241 192.429 96.809L193.438 102.655C193.453 102.74 193.432 102.827 193.382 102.897C193.333 102.967 193.258 103.015 193.173 103.03L190.181 103.546C190.007 103.576 189.834 103.591 189.662 103.591Z" fill="#0A0B0B"/>
<path d="M223.821 110.187L208.126 112.897C200.457 114.22 193.167 109.077 191.842 101.409L191.344 98.5176C190.02 90.8494 195.163 83.5592 202.832 82.2358L218.528 79.526L223.821 110.187Z" fill="#5E50B1"/>
<path d="M218.264 79.9008L202.887 82.5548C195.407 83.8464 190.373 90.9823 191.664 98.4625L192.162 101.354C193.454 108.833 200.587 113.868 208.071 112.577L223.447 109.923L218.264 79.9008ZM205.721 113.428C198.84 113.428 192.733 108.471 191.523 101.464L191.024 98.5727C189.673 90.7405 194.945 83.2681 202.777 81.9161L218.473 79.2063C218.647 79.1772 218.817 79.2939 218.848 79.4709L224.141 110.132C224.155 110.217 224.136 110.304 224.086 110.374C224.037 110.445 223.961 110.492 223.876 110.507L208.181 113.217C207.355 113.359 206.532 113.428 205.721 113.428Z" fill="#0A0B0B"/>
<path d="M218.528 79.526L223.821 110.187C235.973 108.09 248.494 109.89 259.691 115.344L284.471 127.417L269.891 42.9592L250.593 62.6413C241.873 71.5338 230.68 77.4284 218.528 79.526Z" fill="#F5E9D7"/>
<path d="M218.528 79.526L218.209 79.5814L223.502 110.243C223.516 110.327 223.565 110.403 223.634 110.453C223.704 110.502 223.792 110.521 223.876 110.507C227.156 109.941 230.462 109.66 233.762 109.66C242.622 109.66 251.435 111.683 259.549 115.636L284.329 127.708C284.439 127.762 284.569 127.75 284.666 127.677C284.764 127.603 284.812 127.482 284.791 127.362L270.21 42.9041C270.189 42.7835 270.104 42.6862 269.987 42.6499C269.871 42.613 269.744 42.6447 269.659 42.7323L250.361 62.4144C241.689 71.2589 230.557 77.1204 218.473 79.2063C218.296 79.2368 218.178 79.405 218.209 79.5814L218.528 79.526L218.583 79.8459C230.802 77.736 242.057 71.8088 250.824 62.8683L269.679 43.6381L284.044 126.849L259.833 115.053C251.631 111.058 242.721 109.012 233.762 109.012C230.425 109.012 227.082 109.296 223.766 109.868L223.821 110.187L224.141 110.132L218.848 79.4709L218.528 79.526Z" fill="#0A0B0B"/>
<path d="M288.401 83.2515C292.448 106.687 291.116 126.481 285.429 127.463C279.742 128.444 271.852 110.242 267.807 86.8068C263.761 63.3709 265.091 43.5765 270.779 42.5948C276.465 41.6131 284.355 59.8156 288.401 83.2515Z" fill="#FEF7EE"/>
<path d="M288.401 83.2515L288.082 83.3065C289.66 92.4466 290.418 101.031 290.418 108.148C290.419 113.697 289.956 118.356 289.072 121.673C288.631 123.331 288.083 124.652 287.453 125.575C286.821 126.501 286.126 127.013 285.374 127.143C285.246 127.165 285.116 127.176 284.984 127.176C284.366 127.177 283.693 126.931 282.973 126.423C281.714 125.538 280.347 123.859 278.979 121.528C274.864 114.531 270.705 101.705 268.126 86.7509C266.548 77.6107 265.79 69.025 265.79 61.9079C265.79 56.3594 266.252 51.7011 267.136 48.3838C267.577 46.7258 268.125 45.4043 268.754 44.4816C269.387 43.5563 270.082 43.0441 270.834 42.9144C270.962 42.8923 271.092 42.8813 271.223 42.8813C271.841 42.8807 272.514 43.1264 273.234 43.6341C274.493 44.5192 275.86 46.1986 277.229 48.5297C281.344 55.5268 285.502 68.3526 288.082 83.3065L288.401 83.2515L288.721 83.1962C286.746 71.76 283.86 61.5682 280.751 54.2164C279.195 50.5398 277.586 47.5733 275.992 45.5068C275.194 44.4738 274.401 43.664 273.608 43.1044C272.817 42.5461 272.017 42.2335 271.223 42.2329C271.055 42.2329 270.888 42.2472 270.723 42.2757C269.743 42.4449 268.907 43.105 268.219 44.1166C267.184 45.6391 266.427 47.9876 265.913 51.008C265.402 54.0277 265.142 57.7191 265.142 61.9079C265.142 69.0704 265.904 77.6879 267.487 86.8618C269.462 98.2973 272.348 108.489 275.457 115.841C277.013 119.518 278.622 122.484 280.216 124.551C281.013 125.584 281.807 126.393 282.599 126.953C283.391 127.512 284.191 127.824 284.984 127.824C285.152 127.824 285.319 127.81 285.484 127.782C286.465 127.612 287.3 126.952 287.989 125.941C289.024 124.418 289.781 122.07 290.294 119.049C290.806 116.028 291.066 112.337 291.066 108.148C291.066 100.986 290.305 92.3688 288.721 83.1962L288.401 83.2515Z" fill="#0A0B0B"/>
<path d="M286.38 82.7898C289.632 101.625 288.562 117.533 283.992 118.322C279.421 119.111 273.08 104.482 269.828 85.6468C266.576 66.8121 267.646 50.9037 272.216 50.1152C276.787 49.3255 283.128 63.9545 286.38 82.7898Z" fill="#F5E9D7"/>
<path d="M260.467 79.7058L271.456 77.8091C275.944 77.0336 280.21 80.0442 280.985 84.532C281.76 89.0203 278.75 93.2863 274.261 94.0612L263.272 95.9584L260.467 79.7058Z" fill="#5E50B1"/>
<path d="M260.467 79.7058L260.522 80.0254L271.51 78.1281C271.967 78.0497 272.421 78.0114 272.868 78.0114C276.651 78.0114 280 80.7315 280.665 84.587C280.744 85.0435 280.782 85.4974 280.782 85.9448C280.782 89.7277 278.061 93.0768 274.206 93.7414L263.537 95.5836L260.786 79.6506L260.467 79.7058L260.148 79.7608L262.953 96.0135C262.984 96.1899 263.151 96.3085 263.328 96.2781L274.316 94.3808C278.488 93.6597 281.43 90.0396 281.43 85.9448C281.43 85.4604 281.389 84.9702 281.304 84.4768C280.583 80.3061 276.963 77.363 272.868 77.363C272.384 77.363 271.893 77.4045 271.4 77.4894L260.411 79.386C260.235 79.4165 260.117 79.5845 260.148 79.7608L260.467 79.7058Z" fill="#0A0B0B"/>
<path d="M286.38 82.7898L286.06 82.8448C287.328 90.1875 287.937 97.0841 287.937 102.8C287.937 107.255 287.566 110.995 286.857 113.653C286.504 114.981 286.066 116.037 285.565 116.77C285.063 117.505 284.518 117.902 283.936 118.002C283.836 118.02 283.736 118.028 283.634 118.028C283.154 118.029 282.625 117.838 282.054 117.435C281.055 116.733 279.959 115.389 278.862 113.52C275.561 107.908 272.219 97.6042 270.148 85.5915C268.879 78.2488 268.27 71.3522 268.27 65.6364C268.27 61.1811 268.642 57.441 269.351 54.7837C269.703 53.4558 270.142 52.3995 270.642 51.6674C271.145 50.9315 271.69 50.5346 272.271 50.4341C272.371 50.4173 272.472 50.4089 272.574 50.4089C273.054 50.4082 273.582 50.5988 274.154 51.0022C275.153 51.7044 276.249 53.0479 277.346 54.9167C280.646 60.5281 283.988 70.8328 286.06 82.8448L286.38 82.7898L286.699 82.7346C285.111 73.5393 282.791 65.3446 280.29 59.4303C279.038 56.4716 277.743 54.0841 276.457 52.4164C275.814 51.5825 275.172 50.9276 274.527 50.4724C273.884 50.0179 273.229 49.7604 272.574 49.7604C272.436 49.7604 272.298 49.7721 272.161 49.7954C271.351 49.9355 270.665 50.4802 270.107 51.3017C269.266 52.5389 268.658 54.433 268.244 56.8658C267.831 59.2981 267.623 62.2672 267.622 65.6364C267.623 71.3976 268.235 78.326 269.508 85.7024C271.096 94.897 273.417 103.092 275.918 109.007C277.169 111.965 278.464 114.352 279.751 116.021C280.394 116.854 281.036 117.509 281.68 117.965C282.324 118.418 282.979 118.676 283.634 118.677C283.772 118.677 283.91 118.665 284.047 118.642C284.856 118.501 285.542 117.957 286.101 117.135C286.942 115.897 287.55 114.003 287.964 111.571C288.376 109.139 288.585 106.169 288.585 102.8C288.585 97.0387 287.973 90.1104 286.699 82.7346L286.38 82.7898Z" fill="#0A0B0B"/>
<path d="M221.774 78.8705L226.911 109.739L221.774 78.8705Z" fill="#F5E9D7"/>
<path d="M226.911 110.064C226.756 110.064 226.618 109.951 226.592 109.793L221.453 78.9239C221.424 78.7469 221.544 78.5802 221.72 78.551C221.894 78.5199 222.064 78.6405 222.093 78.8176L227.232 109.686C227.26 109.863 227.141 110.03 226.964 110.059L226.911 110.064Z" fill="#0A0B0B"/>
<path d="M233.136 128.102L233.175 128.227C233.8 130.195 232.702 132.315 230.735 132.939L219.541 136.494C217.574 137.119 215.453 136.021 214.83 134.054L214.789 133.928C214.165 131.962 215.263 129.841 217.23 129.217L228.424 125.661C230.391 125.037 232.511 126.135 233.136 128.102Z" fill="#F5E9D7"/>
<path d="M229.557 125.809C229.214 125.809 228.866 125.862 228.522 125.971L217.328 129.525C215.527 130.098 214.527 132.029 215.099 133.83L215.138 133.955C215.414 134.824 216.016 135.535 216.831 135.958C217.647 136.38 218.575 136.461 219.443 136.185L230.637 132.63C232.439 132.058 233.439 130.127 232.867 128.326L232.827 128.2C232.364 126.742 231.011 125.809 229.557 125.809ZM218.409 136.995C217.765 136.995 217.124 136.84 216.533 136.534C215.563 136.032 214.849 135.185 214.52 134.152L214.48 134.027C213.801 131.884 214.99 129.588 217.132 128.907L228.326 125.353C230.47 124.672 232.764 125.862 233.445 128.004L233.485 128.129C234.165 130.272 232.976 132.568 230.833 133.249L219.639 136.803C219.236 136.932 218.822 136.995 218.409 136.995Z" fill="#0A0B0B"/>
<path d="M230.926 120.542L230.966 120.668C231.591 122.635 230.492 124.755 228.526 125.379L217.332 128.935C215.365 129.56 213.244 128.461 212.62 126.495L212.58 126.369C211.955 124.402 213.054 122.282 215.02 121.657L226.214 118.102C228.181 117.478 230.302 118.575 230.926 120.542Z" fill="#F5E9D7"/>
<path d="M227.347 118.25C227.004 118.25 226.656 118.302 226.312 118.411L215.119 121.966C214.25 122.241 213.539 122.843 213.116 123.659C212.694 124.474 212.613 125.402 212.889 126.27L212.929 126.396C213.205 127.265 213.806 127.976 214.621 128.398C215.438 128.821 216.366 128.901 217.234 128.626L228.427 125.071C229.296 124.794 230.007 124.193 230.429 123.378C230.852 122.562 230.932 121.635 230.657 120.766L230.617 120.641C230.154 119.183 228.801 118.25 227.347 118.25ZM216.2 129.435C215.555 129.436 214.915 129.28 214.323 128.974C213.354 128.472 212.639 127.626 212.311 126.592L212.271 126.467C211.942 125.433 212.038 124.33 212.541 123.361C213.043 122.391 213.888 121.676 214.922 121.348L226.116 117.793C228.258 117.112 230.554 118.302 231.235 120.444L231.275 120.569C231.604 121.603 231.508 122.706 231.006 123.676C230.503 124.646 229.658 125.36 228.623 125.688L217.43 129.244C217.026 129.372 216.613 129.435 216.2 129.435Z" fill="#0A0B0B"/>
<path d="M233.175 135.855L233.186 135.888C233.803 137.831 232.718 139.925 230.776 140.541L223.14 142.966C221.198 143.584 219.103 142.499 218.487 140.557L218.477 140.523C217.86 138.581 218.944 136.487 220.887 135.87L228.522 133.445C230.464 132.828 232.558 133.913 233.175 135.855Z" fill="#F5E9D7"/>
<path d="M229.639 133.595C229.297 133.595 228.954 133.648 228.62 133.754L220.985 136.179C219.208 136.743 218.222 138.648 218.786 140.425C219.361 142.235 221.266 143.221 223.043 142.658L230.678 140.233C231.535 139.96 232.237 139.368 232.654 138.563C233.07 137.758 233.149 136.843 232.877 135.987L232.866 135.953C232.594 135.096 232.001 134.395 231.197 133.978C230.706 133.724 230.174 133.595 229.639 133.595ZM222.021 143.465C220.313 143.465 218.722 142.369 218.179 140.655C217.495 138.503 218.671 136.233 220.789 135.561L228.423 133.136C229.446 132.812 230.537 132.906 231.495 133.402C232.453 133.899 233.16 134.735 233.484 135.757L233.495 135.79C233.82 136.812 233.725 137.903 233.229 138.861C232.733 139.82 231.897 140.526 230.875 140.851L223.238 143.276C222.834 143.404 222.425 143.465 222.021 143.465Z" fill="#0A0B0B"/>
<path d="M235.261 143.023L235.301 143.149C235.926 145.116 234.828 147.236 232.861 147.861L229.081 149.061C227.114 149.686 224.993 148.587 224.369 146.621L224.329 146.495C223.704 144.528 224.802 142.409 226.77 141.784L230.549 140.583C232.517 139.958 234.636 141.057 235.261 143.023Z" fill="#F5E9D7"/>
<path d="M231.683 140.731C231.339 140.731 230.991 140.783 230.647 140.892L226.868 142.093C225.999 142.368 225.287 142.969 224.865 143.785C224.443 144.601 224.362 145.529 224.638 146.397L224.678 146.523C224.954 147.392 225.555 148.102 226.37 148.525C227.187 148.948 228.115 149.028 228.983 148.752L232.763 147.552C233.632 147.276 234.343 146.675 234.765 145.859C235.188 145.044 235.268 144.116 234.992 143.247L234.953 143.122C234.49 141.664 233.137 140.731 231.683 140.731ZM227.949 149.562C227.304 149.562 226.664 149.407 226.072 149.101C225.103 148.598 224.388 147.753 224.06 146.719L224.02 146.594C223.692 145.56 223.787 144.456 224.29 143.487C224.792 142.518 225.637 141.803 226.671 141.475L230.451 140.274C232.594 139.593 234.89 140.783 235.571 142.925L235.571 142.927L235.61 143.052C235.938 144.085 235.843 145.188 235.341 146.157C234.839 147.127 233.993 147.841 232.959 148.17L229.179 149.37C228.775 149.498 228.362 149.562 227.949 149.562Z" fill="#0A0B0B"/>
<path d="M206.024 129.198C206.024 129.198 207.403 125.27 208.008 123.624C208.648 121.88 209.299 120.021 208.916 118.202C208.533 116.384 206.667 114.75 204.901 115.327C203.163 115.896 199.871 123.099 198.834 124.794" fill="#F5E9D7"/>
<path d="M206.33 129.305L205.719 129.091C205.719 129.091 207.099 125.16 207.704 123.513C208.27 121.971 208.975 120.051 208.598 118.269C208.397 117.31 207.72 116.375 206.877 115.888C206.441 115.636 205.762 115.388 205.002 115.636C203.816 116.024 201.488 120.483 200.238 122.878C199.753 123.806 199.371 124.538 199.11 124.964C199.016 125.117 198.814 125.163 198.665 125.071C198.512 124.978 198.464 124.778 198.557 124.625C198.807 124.219 199.203 123.458 199.663 122.579C201.613 118.843 203.473 115.453 204.801 115.02C205.568 114.767 206.422 114.877 207.201 115.326C208.212 115.91 208.991 116.986 209.233 118.136C209.647 120.099 208.908 122.116 208.313 123.736C207.708 125.38 206.33 129.305 206.33 129.305Z" fill="#0A0B0B"/>
<path d="M202.956 140.011H202.952C202.773 140.01 202.63 139.863 202.632 139.683C202.672 136.117 205.603 129.355 205.727 129.069C205.8 128.904 205.991 128.831 206.154 128.901C206.318 128.972 206.393 129.163 206.321 129.327C206.292 129.397 203.319 136.255 203.281 139.691C203.279 139.869 203.133 140.011 202.956 140.011Z" fill="#0A0B0B"/>
<path d="M180.559 55.3006C180.71 55.0938 180.843 54.8766 180.936 54.6347C182.685 52.6564 183.848 50.1295 184.111 47.2972C184.77 40.1872 179.541 33.8878 172.431 33.2284C171.831 33.1726 171.24 33.1739 170.655 33.1999C164.385 27.7849 160.012 21.9277 149.019 23.3426C144.782 23.8879 140.844 26.0718 138.433 29.5998C138.098 30.0907 137.804 30.6178 137.535 31.1612C137.319 31.5982 131.713 32.2266 130.967 32.4334C125.728 33.8833 119.027 36.0412 116.413 41.2299C115.257 43.5247 114.892 46.1112 114.796 48.6965C110.845 51.8335 109.236 57.3834 110.831 62.4067L114.949 75.3822C115.812 75.1656 116.709 75.0379 117.637 75.0379H122.889C123.211 75.5858 123.533 76.1363 123.848 76.6953C125.479 79.5769 126.535 82.64 126.409 85.9911C133.203 76.491 165.72 78.9687 172.937 78.9687C180.154 78.9687 186.005 73.1179 186.005 65.901C186.005 61.5313 183.852 57.6732 180.559 55.3006Z" fill="#0A0B0B"/>
<path d="M117.637 74.7136H122.889C123.004 74.7136 123.111 74.7739 123.169 74.8737C123.491 75.4229 123.813 75.9754 124.131 76.5356C125.807 79.4996 126.666 82.3007 126.738 85.0682C133.631 77.459 157.328 78.1911 168.899 78.5483C170.628 78.6022 171.992 78.6443 172.937 78.6443C179.964 78.6443 185.681 72.9272 185.681 65.9009C185.681 61.8236 183.695 57.9597 180.369 55.5638C180.299 55.5132 180.252 55.4367 180.238 55.3511C180.225 55.2661 180.246 55.1786 180.297 55.1092C180.455 54.8933 180.562 54.7059 180.633 54.5185L180.693 54.4199C182.47 52.4105 183.541 49.9374 183.788 47.2666C184.099 43.9142 183.086 40.6416 180.935 38.0505C178.785 35.4601 175.753 33.8624 172.401 33.5512C171.881 33.5032 171.331 33.4948 170.67 33.5233C170.584 33.5311 170.507 33.4993 170.443 33.4448C169.56 32.6823 168.708 31.9055 167.885 31.154C162.774 26.4931 158.364 22.4658 149.061 23.6641C144.756 24.2185 140.98 26.4484 138.701 29.7825C138.403 30.2183 138.117 30.7163 137.827 31.3044C137.659 31.6448 136.965 31.8452 132.955 32.4365C132.093 32.5636 131.279 32.6836 131.054 32.7458C125.017 34.4168 119.099 36.6182 116.702 41.3757C115.737 43.2924 115.234 45.6222 115.12 48.708C115.116 48.8033 115.072 48.8915 114.998 48.9499C111.129 52.0221 109.579 57.3897 111.139 62.3086L115.167 74.9969C116.004 74.8089 116.834 74.7136 117.637 74.7136ZM126.409 86.3151L126.305 86.2976C126.169 86.2516 126.08 86.1219 126.085 85.9786C126.196 83.0296 125.372 80.0449 123.566 76.8547C123.282 76.3521 122.993 75.8554 122.703 75.362H117.637C116.791 75.362 115.914 75.4742 115.029 75.6966C114.862 75.7381 114.693 75.6434 114.641 75.48L110.521 62.5045C108.895 57.3806 110.485 51.788 114.478 48.5362C114.559 46.5371 114.83 43.651 116.124 41.0839C118.634 36.1014 124.7 33.8313 130.881 32.1208C131.145 32.0475 131.902 31.9359 132.86 31.7946C134.262 31.5884 136.843 31.2071 137.27 30.9665C137.566 30.3726 137.859 29.8656 138.166 29.4162C140.549 25.9303 144.489 23.5992 148.979 23.0208C158.573 21.7869 163.31 26.1034 168.322 30.6754C169.112 31.3958 169.927 32.1402 170.77 32.8703C171.404 32.8476 171.946 32.858 172.461 32.9054C175.985 33.2328 179.172 34.9129 181.434 37.6362C183.695 40.3602 184.761 43.802 184.434 47.3269C184.175 50.1164 183.063 52.701 181.217 54.8064C181.16 54.9452 181.089 55.082 181.002 55.2246C184.344 57.7528 186.329 61.7205 186.329 65.9009C186.329 73.2851 180.322 79.2927 172.937 79.2927C171.982 79.2927 170.613 79.2499 168.878 79.1968C157.984 78.8583 132.472 78.0704 126.672 86.1796C126.611 86.2665 126.512 86.3151 126.409 86.3151Z" fill="#0A0B0B"/>
<path d="M154.896 56.5904C153.544 55.87 152.191 55.0594 150.676 54.8383C146.935 54.2917 143.509 57.4326 139.73 57.3295C137.012 57.2556 134.449 55.2948 133.666 52.6914C135.891 64.1561 133.203 76.491 126.409 85.9911C126.535 82.64 125.479 79.5769 123.848 76.6953C123.533 76.1363 123.211 75.5858 122.889 75.0379H117.637C116.709 75.0379 115.812 75.1656 114.949 75.3822C110.122 76.5941 106.515 80.971 106.515 86.1603V87.2457C106.515 93.3629 111.519 98.3688 117.637 98.3688H120.605L117.633 135.501C116.764 146.357 124.861 155.862 135.718 156.731L137.636 156.885C148.492 157.754 157.998 149.657 158.866 138.8L159.986 124.814C169.798 124.651 177.706 116.659 177.706 106.807V63.3469C177.706 61.4561 177.399 59.6412 176.855 57.9306C175.979 58.4617 175.052 58.9026 174.092 59.2327C167.806 61.3906 160.76 59.717 154.896 56.5904Z" fill="#F5E9D7"/>
<path d="M117.637 75.362C116.791 75.362 115.914 75.4742 115.029 75.6966C110.207 76.9065 106.839 81.2095 106.839 86.1601V87.2456C106.839 93.2001 111.683 98.0444 117.637 98.0444H120.605C120.696 98.0444 120.782 98.082 120.843 98.1482C120.905 98.215 120.936 98.3038 120.928 98.3946L117.956 135.526C117.543 140.69 119.166 145.707 122.525 149.651C125.885 153.595 130.579 155.994 135.744 156.408L137.662 156.561C142.824 156.977 147.842 155.353 151.786 151.993C155.73 148.634 158.13 143.939 158.544 138.774L159.663 124.788C159.676 124.622 159.814 124.493 159.981 124.49C169.576 124.331 177.382 116.398 177.382 106.807V63.3467C177.382 61.6952 177.141 60.0385 176.665 58.4181C175.864 58.8753 175.035 59.2513 174.197 59.5392C166.546 62.166 158.724 58.9984 154.743 56.8762L154.27 56.6213C153.11 55.995 151.911 55.3465 150.629 55.1585C148.731 54.8829 146.926 55.5929 145.015 56.3451C143.318 57.013 141.556 57.701 139.721 57.6536C137.598 57.5959 135.577 56.4553 134.338 54.7513C135.864 65.6428 133.064 77.2431 126.672 86.1796C126.59 86.2957 126.44 86.3437 126.305 86.2976C126.169 86.2516 126.08 86.1219 126.085 85.9786C126.196 83.0296 125.372 80.0449 123.566 76.8547C123.282 76.3521 122.993 75.8554 122.703 75.362H117.637ZM139.242 157.273C138.7 157.273 138.156 157.252 137.61 157.208L135.692 157.054C130.355 156.627 125.504 154.147 122.032 150.071C118.56 145.995 116.883 140.812 117.31 135.475L120.254 98.6928H117.637C111.325 98.6928 106.191 93.5573 106.191 87.2456V86.1601C106.191 80.9118 109.76 76.3502 114.87 75.0676C115.808 74.8322 116.739 74.7136 117.637 74.7136H122.889C123.004 74.7136 123.111 74.7739 123.169 74.8737C123.491 75.4229 123.813 75.9754 124.131 76.5356C125.785 79.4594 126.642 82.2242 126.735 84.9554C133.008 75.6888 135.479 63.7319 133.347 52.7528C133.314 52.5836 133.42 52.4176 133.588 52.3761C133.757 52.3346 133.926 52.4332 133.975 52.5972C134.723 55.0813 137.147 56.9352 139.739 57.0052C141.465 57.0525 143.142 56.386 144.777 55.7421C146.685 54.9912 148.655 54.2157 150.722 54.5172C152.119 54.7208 153.369 55.3971 154.579 56.0514L155.048 56.3036C158.936 58.3772 166.566 61.4748 173.987 58.9258C174.907 58.61 175.816 58.1821 176.686 57.653C176.773 57.6017 176.876 57.5927 176.969 57.6264C177.062 57.6614 177.134 57.7373 177.164 57.8326C177.739 59.6397 178.031 61.4955 178.031 63.3467V106.807C178.031 116.651 170.097 124.81 160.286 125.131L159.189 138.826C158.763 144.163 156.283 149.015 152.206 152.487C148.548 155.603 143.996 157.273 139.242 157.273Z" fill="#0A0B0B"/>
<path d="M123.245 98.3955L119.742 107.977L117.546 98.3611L123.245 98.3955Z" fill="#0A0B0B"/>
<path d="M117.954 98.6878L119.814 106.836L122.782 98.717L117.954 98.6878ZM119.742 108.301H119.722C119.578 108.291 119.458 108.189 119.426 108.049L117.231 98.433C117.209 98.3364 117.232 98.2352 117.294 98.1581C117.356 98.0809 117.474 98.042 117.548 98.0368L123.247 98.0712C123.352 98.0718 123.451 98.1237 123.511 98.2106C123.572 98.2975 123.586 98.4077 123.55 98.5069L120.047 108.088C119.999 108.216 119.878 108.301 119.742 108.301Z" fill="#0A0B0B"/>
<path d="M116.091 83.1287L120.171 87.6677L116.353 90.1563" fill="#F5E9D7"/>
<path d="M116.354 90.4804C116.248 90.4804 116.145 90.4285 116.082 90.3332C115.985 90.1834 116.027 89.9824 116.177 89.8845L119.676 87.6027L115.85 83.3452C115.73 83.2122 115.741 83.0067 115.875 82.8874C116.007 82.7681 116.213 82.7778 116.333 82.912L120.412 87.451C120.475 87.5216 120.504 87.6163 120.492 87.7097C120.48 87.8037 120.427 87.8873 120.348 87.9392L116.532 90.4279C116.477 90.4635 116.415 90.4804 116.354 90.4804Z" fill="#0A0B0B"/>
<path d="M159.895 92.2277H156.777C156.598 92.2277 156.453 92.0825 156.453 91.9035C156.453 91.7246 156.598 91.5793 156.777 91.5793H159.895C160.922 91.5793 161.889 91.128 162.549 90.3415C163.21 89.5549 163.486 88.5233 163.308 87.5118L161.383 76.5703C161.352 76.3946 161.47 76.2266 161.646 76.1955C161.817 76.1625 161.991 76.2818 162.021 76.4588L163.947 87.4002C164.158 88.6005 163.83 89.8247 163.046 90.7584C162.262 91.6921 161.114 92.2277 159.895 92.2277Z" fill="#0A0B0B"/>
<path d="M170.094 82.3162C170.317 83.5475 169.499 84.727 168.269 84.9494C167.037 85.1731 165.858 84.3555 165.635 83.1241C165.412 81.8928 166.229 80.7139 167.461 80.4909C168.692 80.2678 169.871 81.0848 170.094 82.3162Z" fill="#0A0B0B"/>
<path d="M157.924 112.929C157.822 112.955 157.712 112.948 157.608 112.902C157.503 112.855 155.008 111.76 153.156 113.72C152.978 113.909 152.68 113.918 152.49 113.739C152.3 113.56 152.291 113.262 152.47 113.072C154.795 110.615 157.968 112.03 158.001 112.044C158.236 112.153 158.34 112.432 158.232 112.668C158.172 112.802 158.056 112.893 157.924 112.929Z" fill="#0A0B0B"/>
<path d="M139.764 73.9307C140.893 74.0598 142.148 73.5436 143.389 73.1144C144.631 72.656 145.888 72.2273 146.994 71.8928C148.102 71.5562 149.388 71.2145 150.675 70.9072C151.946 70.5739 153.284 70.3041 154.136 69.5753C154.965 68.8847 155.003 67.6158 153.448 66.5407C151.973 65.4825 148.753 64.8211 145.084 65.9234C141.425 67.0426 139.159 69.3665 138.56 71.0524C137.91 72.7967 138.679 73.8205 139.764 73.9307Z" fill="#0A0B0B"/>
<path d="M174.829 72.0798C173.988 72.2393 173.058 71.8671 172.136 71.5662C171.216 71.2413 170.282 70.9418 169.461 70.7135C168.639 70.4846 167.684 70.259 166.728 70.0619C165.784 69.8433 164.792 69.68 164.161 69.1106C163.549 68.5737 163.528 67.5175 164.692 66.5481C165.796 65.5975 168.197 64.8978 170.921 65.6474C173.637 66.4113 175.308 68.2443 175.742 69.6235C176.217 71.0481 175.637 71.9378 174.829 72.0798Z" fill="#0A0B0B"/>
<path d="M150.37 83.1016C150.268 84.4672 149.077 85.4904 147.712 85.3879C146.346 85.2855 145.323 84.095 145.425 82.7294C145.529 81.3638 146.719 80.3406 148.084 80.4437C149.449 80.5462 150.473 81.7367 150.37 83.1016Z" fill="#0A0B0B"/>
<path d="M145.34 85.5158C145.34 85.5158 147.554 83.9239 149.701 85.8212L145.34 85.5158Z" fill="#F5E9D7"/>
<path d="M149.701 86.1453C149.625 86.1453 149.548 86.1187 149.486 86.0642C147.567 84.3686 145.611 85.7206 145.529 85.7789C145.383 85.8827 145.18 85.8489 145.077 85.7037C144.973 85.5578 145.006 85.3561 145.151 85.2524C145.175 85.2342 147.603 83.5341 149.916 85.5786C150.05 85.6966 150.063 85.9015 149.944 86.0357C149.88 86.1083 149.791 86.1453 149.701 86.1453Z" fill="#0A0B0B"/>
<path d="M166.101 85.3555C166.101 85.3555 168.107 84.4574 169.956 85.395L166.101 85.3555Z" fill="#F5E9D7"/>
<path d="M169.956 85.7191L169.81 85.6841C168.119 84.8262 166.253 85.6426 166.234 85.651C166.07 85.723 165.878 85.651 165.806 85.4876C165.733 85.3242 165.806 85.1329 165.969 85.059C166.057 85.0201 168.136 84.1078 170.104 85.1057C170.263 85.1867 170.327 85.3819 170.246 85.5414C170.188 85.6542 170.074 85.7191 169.956 85.7191Z" fill="#0A0B0B"/>
<path d="M144.673 92.7314C145.532 92.1602 146.673 92.3009 147.433 92.9973C148.819 94.2656 151.834 96.5163 156.153 96.9559C157.213 97.0642 157.761 98.2975 157.306 99.2617C156.304 101.381 153.624 104.648 148.044 102.031C141.246 98.8435 142.435 94.2196 144.673 92.7314Z" fill="#FEF7EE"/>
<path d="M144.853 93.0012C144.04 93.542 143.133 94.7507 143.254 96.3775C143.406 98.4149 145.155 100.319 148.181 101.737C153.798 104.371 156.228 100.785 157.013 99.1229C157.201 98.7235 157.183 98.2366 156.965 97.8508C156.777 97.5181 156.477 97.3151 156.12 97.2788C151.723 96.8308 148.653 94.5535 147.214 93.2366C146.542 92.6199 145.572 92.5233 144.853 93.0012ZM151.854 103.32C150.733 103.32 149.424 103.036 147.907 102.325C143.525 100.27 142.705 97.747 142.607 96.4255C142.491 94.857 143.232 93.3008 144.494 92.4611C145.459 91.8185 146.76 91.9404 147.653 92.758C149.032 94.0218 151.975 96.2044 156.186 96.6337C156.75 96.6914 157.24 97.0188 157.529 97.5324C157.854 98.1062 157.88 98.8046 157.599 99.3998C157.084 100.49 155.401 103.32 151.854 103.32Z" fill="#0A0B0B"/>
<path d="M159.87 124.917C159.87 124.917 139.604 126.225 134.603 118.016C134.603 118.016 139.107 131.553 158.962 136.26L159.87 124.917Z" fill="#0A0B0B" fill-opacity="0.75"/>
<path d="M135.979 120.161C138.208 124.147 144.385 132.356 158.669 135.856L159.517 125.262C156.906 125.391 142.233 125.846 135.979 120.161ZM158.962 136.585L158.887 136.575C139.086 131.881 134.341 118.255 134.294 118.118C134.243 117.961 134.317 117.791 134.466 117.721C134.614 117.654 134.794 117.706 134.879 117.847C139.722 125.795 159.648 124.608 159.849 124.593C159.943 124.589 160.035 124.622 160.101 124.69C160.167 124.757 160.201 124.849 160.193 124.943L159.285 136.286C159.278 136.38 159.229 136.467 159.152 136.522C159.097 136.563 159.03 136.585 158.962 136.585Z" fill="#0A0B0B"/>
<path d="M45.8957 265.065L47.6988 218.372L96.7179 219.947C96.7004 220.23 101.384 185.263 101.363 185.546L96.7179 219.947L90.1922 219.746L89.538 235.281C89.538 235.281 133.978 212.555 137.782 207.973C137.782 207.973 150.644 195.146 155.779 191.666C156.33 191.293 156.9 190.924 157.544 190.757C158.189 190.589 158.927 190.652 159.44 191.076C160.108 191.626 160.22 192.6 160.182 193.464C160.063 196.15 159 198.669 157.939 201.157C158.252 201.056 190.732 190.296 192.52 189.845C195.596 189.07 195.448 193.318 193.268 195.622C190.485 198.565 177.551 205.376 176.847 205.541C179.97 205.425 182.955 204.794 183.703 209.879C184.218 213.388 181.113 214.364 177.961 214.727C179.949 214.801 181.655 215.465 181.839 217.828C182.622 221.823 179.302 223.443 175.992 223.853C175.893 223.865 175.877 223.996 175.97 224.032C178.686 225.097 176.807 230.089 172.809 231.54L150.468 240.961C148.175 241.996 88.3565 287.5 88.3565 287.5C81.4275 292.351 73.3839 293.433 66.1559 291.589C54.158 288.529 45.9438 277.448 45.8957 265.065Z" fill="#F5E9D7"/>
<path d="M46.2197 265.07C46.2709 277.507 54.501 288.282 66.2361 291.275C73.8732 293.223 81.664 291.789 88.1703 287.235C90.6031 285.383 148.034 241.703 150.334 240.665L172.683 231.241C175.279 230.298 176.9 227.832 176.922 226.084C176.929 225.48 176.75 224.686 175.851 224.334C175.672 224.263 175.564 224.082 175.587 223.893C175.61 223.704 175.76 223.555 175.951 223.53C178.287 223.242 180.057 222.414 180.938 221.198C181.581 220.311 181.777 219.199 181.52 217.89C181.374 216.025 180.24 215.135 177.949 215.051C177.779 215.046 177.643 214.91 177.636 214.74C177.63 214.571 177.755 214.425 177.923 214.405C180.496 214.108 182.061 213.491 182.85 212.465C183.361 211.8 183.535 210.969 183.382 209.926C182.741 205.566 180.502 205.679 177.658 205.828C177.394 205.841 177.127 205.855 176.859 205.865C176.682 205.861 176.548 205.75 176.526 205.584C176.503 205.419 176.611 205.264 176.773 205.225C177.623 204.995 190.333 198.253 193.032 195.4C194.459 193.892 194.872 191.65 194.288 190.653C193.976 190.122 193.406 189.957 192.598 190.16C191.886 190.339 185.549 192.368 159.412 201.012C158.569 201.291 158.076 201.453 158.039 201.465C157.919 201.505 157.786 201.469 157.7 201.376C157.614 201.282 157.591 201.147 157.641 201.029C158.673 198.609 159.741 196.105 159.858 193.45C159.903 192.405 159.7 191.71 159.233 191.326C158.846 191.005 158.243 190.911 157.626 191.07C157.041 191.222 156.504 191.566 155.96 191.934C150.91 195.358 138.139 208.074 138.011 208.203C134.229 212.761 91.5025 234.64 89.685 235.569C89.5832 235.621 89.4606 235.616 89.3627 235.553C89.2655 235.492 89.209 235.382 89.2136 235.267L89.8542 220.051L48.0104 218.707L46.2197 265.07ZM72.9155 292.772C70.646 292.772 68.3552 292.485 66.0753 291.903C54.0526 288.836 45.6204 277.801 45.5713 265.066V265.052L47.3744 218.36C47.3815 218.182 47.5158 218.049 47.7088 218.048L96.4357 219.613L100.857 186.835C100.906 186.477 100.944 186.198 100.977 185.979L101.041 185.502L101.062 185.505C101.138 185.195 101.215 185.205 101.397 185.221C101.571 185.24 101.7 185.396 101.686 185.571L99.8023 199.524C99.716 200.164 99.6292 200.806 99.5436 201.447L97.2644 218.365C97.2008 218.83 97.1528 219.184 97.112 219.453L97.0387 219.99C97.0296 220.064 96.9959 220.127 96.9473 220.176C96.885 220.291 96.8105 220.284 96.686 220.271L96.675 220.27L90.502 220.079L89.8853 234.738C94.7731 232.227 134.029 211.986 137.533 207.766C137.682 207.615 150.496 194.855 155.597 191.397C156.19 190.996 156.778 190.621 157.462 190.443C158.281 190.231 159.097 190.373 159.646 190.825C160.28 191.348 160.561 192.217 160.506 193.478C160.394 196.005 159.478 198.355 158.518 200.624C158.711 200.56 158.942 200.485 159.208 200.396C185.363 191.746 191.717 189.713 192.44 189.531C193.908 189.157 194.579 189.869 194.847 190.326C195.651 191.698 195.036 194.225 193.504 195.845C191.241 198.237 182.193 203.271 178.477 205.142C180.981 205.058 183.371 205.391 184.024 209.832C184.201 211.041 183.979 212.06 183.364 212.86C182.577 213.884 181.237 214.425 179.917 214.731C181.301 215.216 182.04 216.233 182.161 217.803C182.449 219.258 182.216 220.54 181.463 221.579C180.35 223.114 178.372 223.786 176.701 224.075C177.277 224.524 177.582 225.22 177.571 226.093C177.545 228.099 175.799 230.8 172.92 231.845L150.594 241.26C148.814 242.063 109.232 272.027 88.5522 287.758C83.8226 291.07 78.4368 292.772 72.9155 292.772Z" fill="#0A0B0B"/>
<path d="M89.628 227.262L70.3569 245.428L89.5378 235.62L89.628 227.262Z" fill="#0A0B0B" fill-opacity="0.75"/>
<path d="M157.658 201.569L145.574 207.204C145.574 207.204 156.904 198.209 159.183 197.489L157.658 201.569Z" fill="#0A0B0B"/>
<path d="M170.112 207.619C170.112 207.619 177.46 205.184 178.735 205.128L170.112 207.619Z" fill="#F5E9D7"/>
<path d="M170.112 207.943C169.976 207.943 169.849 207.857 169.804 207.721C169.747 207.551 169.84 207.368 170.009 207.311C170.311 207.211 177.415 204.861 178.72 204.804C178.893 204.795 179.05 204.935 179.059 205.114C179.066 205.293 178.927 205.444 178.748 205.452C177.739 205.496 172.246 207.253 170.214 207.926L170.112 207.943Z" fill="#0A0B0B"/>
<path d="M178.618 214.627L171.793 216.757L178.618 214.627Z" fill="#F5E9D7"/>
<path d="M171.793 217.081C171.656 217.081 171.527 216.992 171.484 216.854C171.431 216.683 171.526 216.501 171.697 216.447L178.521 214.317C178.695 214.263 178.873 214.359 178.927 214.53C178.98 214.7 178.885 214.883 178.714 214.936L171.891 217.067L171.793 217.081Z" fill="#0A0B0B"/>
<path d="M175.526 223.902L171.825 224.968L175.526 223.902Z" fill="#F5E9D7"/>
<path d="M171.825 225.292C171.683 225.292 171.554 225.2 171.513 225.058C171.464 224.885 171.563 224.706 171.735 224.656L175.436 223.59C175.611 223.539 175.788 223.64 175.838 223.812C175.887 223.984 175.788 224.164 175.616 224.213L171.915 225.279L171.825 225.292Z" fill="#0A0B0B"/>
<path d="M372.295 65.6818C371.02 65.6818 369.889 65.9324 368.9 66.4337C367.926 66.9207 367.103 67.6297 366.43 68.5607C365.771 69.4917 365.27 70.616 364.926 71.9337C364.582 73.2514 364.41 74.7339 364.41 76.381C364.41 78.6011 364.682 80.4988 365.227 82.0744C365.785 83.6356 366.645 84.8315 367.805 85.6623C368.965 86.4787 370.462 86.8869 372.295 86.8869C373.57 86.8869 374.844 86.7436 376.119 86.4572C377.408 86.1707 378.805 85.7625 380.309 85.2326V90.8185C378.919 91.3914 377.551 91.7996 376.205 92.0431C374.859 92.3009 373.348 92.4298 371.672 92.4298C368.435 92.4298 365.771 91.7638 363.68 90.4318C361.603 89.0854 360.063 87.2091 359.061 84.8029C358.058 82.3823 357.557 79.5607 357.557 76.338C357.557 73.9604 357.879 71.7833 358.523 69.8068C359.168 67.8302 360.113 66.1186 361.359 64.672C362.605 63.2254 364.145 62.1082 365.979 61.3205C367.812 60.5327 369.917 60.1388 372.295 60.1388C373.856 60.1388 375.417 60.3393 376.979 60.7404C378.554 61.1271 380.058 61.6642 381.49 62.3517L379.342 67.7658C378.167 67.2072 376.986 66.7202 375.797 66.3048C374.608 65.8895 373.441 65.6818 372.295 65.6818Z" fill="black"/>
<path d="M416.621 76.2521C416.621 78.6727 416.321 80.8784 415.719 82.8693C415.118 84.8458 414.201 86.5503 412.969 87.9826C411.752 89.4149 410.205 90.5177 408.329 91.2912C406.452 92.0503 404.232 92.4298 401.668 92.4298C399.105 92.4298 396.885 92.0503 395.008 91.2912C393.132 90.5177 391.578 89.4149 390.346 87.9826C389.129 86.5503 388.219 84.8387 387.618 82.8478C387.016 80.8569 386.715 78.644 386.715 76.2091C386.715 72.9578 387.245 70.1291 388.305 67.7228C389.379 65.3022 391.026 63.4259 393.246 62.0939C395.467 60.7619 398.288 60.0959 401.711 60.0959C405.12 60.0959 407.92 60.7619 410.112 62.0939C412.317 63.4259 413.95 65.3022 415.01 67.7228C416.084 70.1434 416.621 72.9865 416.621 76.2521ZM393.698 76.2521C393.698 78.4435 393.97 80.3341 394.514 81.924C395.073 83.4995 395.939 84.7169 397.114 85.5763C398.288 86.4214 399.806 86.8439 401.668 86.8439C403.559 86.8439 405.092 86.4214 406.266 85.5763C407.44 84.7169 408.293 83.4995 408.823 81.924C409.367 80.3341 409.639 78.4435 409.639 76.2521C409.639 72.9578 409.023 70.3654 407.791 68.4748C406.56 66.5841 404.533 65.6388 401.711 65.6388C399.835 65.6388 398.302 66.0685 397.114 66.9279C395.939 67.7729 395.073 68.9904 394.514 70.5802C393.97 72.1557 393.698 74.0464 393.698 76.2521Z" fill="black"/>
<path d="M437.53 92.0001L429.968 67.3576H429.774C429.803 67.9448 429.846 68.8328 429.903 70.0216C429.975 71.1961 430.039 72.4494 430.096 73.7814C430.154 75.1134 430.182 76.3166 430.182 77.3908V92.0001H424.231V60.59H433.298L440.731 84.6095H440.86L448.745 60.59H457.811V92.0001H451.602V77.133C451.602 76.1447 451.617 75.006 451.645 73.7169C451.688 72.4279 451.738 71.2033 451.796 70.0431C451.853 68.8686 451.896 67.9878 451.925 67.4005H451.731L443.632 92.0001H437.53Z" fill="black"/>
<path d="M466.839 92.0001V60.59H473.499V92.0001H466.839Z" fill="black"/>
<path d="M510.371 92.0001H501.906L488.242 68.2384H488.048C488.106 69.2267 488.156 70.2222 488.199 71.2248C488.242 72.2274 488.285 73.23 488.328 74.2326C488.371 75.2208 488.414 76.2163 488.457 77.2189V92.0001H482.505V60.59H490.906L504.548 84.1154H504.699C504.67 83.1414 504.634 82.1746 504.591 81.215C504.548 80.2554 504.505 79.2957 504.462 78.3361C504.434 77.3764 504.405 76.4168 504.377 75.4572V60.59H510.371V92.0001Z" fill="black"/>
<path d="M531.322 74.3615H543.783V90.6466C542.136 91.1909 540.424 91.6277 538.648 91.9572C536.872 92.2723 534.86 92.4298 532.611 92.4298C529.489 92.4298 526.839 91.8139 524.662 90.5822C522.485 89.3504 520.831 87.5314 519.699 85.1251C518.568 82.7189 518.002 79.7612 518.002 76.2521C518.002 72.9578 518.632 70.1076 519.893 67.7013C521.167 65.2951 523.022 63.4331 525.457 62.1154C527.906 60.7977 530.893 60.1388 534.416 60.1388C536.077 60.1388 537.717 60.3179 539.336 60.6759C540.954 61.034 542.423 61.4995 543.74 62.0724L541.527 67.4005C540.568 66.9136 539.472 66.5054 538.24 66.1759C537.008 65.8465 535.719 65.6818 534.373 65.6818C532.439 65.6818 530.757 66.1258 529.324 67.0138C527.906 67.9018 526.803 69.1479 526.016 70.7521C525.242 72.3419 524.855 74.2182 524.855 76.381C524.855 78.4292 525.135 80.2482 525.693 81.838C526.252 83.4136 527.133 84.6525 528.336 85.5548C529.539 86.4429 531.107 86.8869 533.041 86.8869C533.986 86.8869 534.781 86.8439 535.426 86.758C536.085 86.6577 536.701 86.5574 537.273 86.4572V79.9044H531.322V74.3615Z" fill="black"/>
<path d="M583.452 83.2775C583.452 85.1395 583.001 86.758 582.098 88.133C581.196 89.508 579.878 90.5679 578.145 91.3126C576.427 92.0574 574.335 92.4298 571.872 92.4298C570.783 92.4298 569.716 92.3582 568.671 92.215C567.639 92.0718 566.644 91.8641 565.684 91.5919C564.739 91.3055 563.837 90.9546 562.977 90.5392V84.3517C564.467 85.0106 566.014 85.605 567.618 86.1349C569.222 86.6649 570.812 86.9298 572.388 86.9298C573.476 86.9298 574.35 86.7866 575.009 86.5001C575.682 86.2137 576.169 85.8198 576.47 85.3185C576.77 84.8172 576.921 84.2443 576.921 83.5998C576.921 82.812 576.656 82.1388 576.126 81.5802C575.596 81.0216 574.865 80.4988 573.934 80.0119C573.018 79.5249 571.979 79.0021 570.819 78.4435C570.089 78.0998 569.294 77.6844 568.434 77.1974C567.575 76.6961 566.759 76.0874 565.985 75.3712C565.212 74.6551 564.574 73.7886 564.073 72.7716C563.586 71.7404 563.343 70.5086 563.343 69.0763C563.343 67.2 563.772 65.5958 564.632 64.2638C565.491 62.9318 566.716 61.9149 568.305 61.213C569.91 60.4969 571.8 60.1388 573.977 60.1388C575.61 60.1388 577.164 60.3322 578.639 60.7189C580.129 61.0913 581.683 61.6356 583.302 62.3517L581.153 67.5294C579.707 66.9422 578.41 66.491 577.264 66.1759C576.119 65.8465 574.951 65.6818 573.763 65.6818C572.932 65.6818 572.223 65.8179 571.636 66.09C571.048 66.3478 570.604 66.7202 570.304 67.2072C570.003 67.6798 569.852 68.2313 569.852 68.8615C569.852 69.6063 570.067 70.2365 570.497 70.7521C570.941 71.2534 571.6 71.7404 572.473 72.213C573.361 72.6857 574.464 73.2371 575.782 73.8673C577.386 74.6264 578.754 75.4214 579.886 76.2521C581.031 77.0685 581.912 78.0353 582.528 79.1525C583.144 80.2554 583.452 81.6304 583.452 83.2775Z" fill="black"/>
<path d="M618.755 76.2521C618.755 78.6727 618.454 80.8784 617.853 82.8693C617.251 84.8458 616.334 86.5503 615.103 87.9826C613.885 89.4149 612.338 90.5177 610.462 91.2912C608.586 92.0503 606.366 92.4298 603.802 92.4298C601.238 92.4298 599.018 92.0503 597.142 91.2912C595.266 90.5177 593.711 89.4149 592.48 87.9826C591.262 86.5503 590.353 84.8387 589.751 82.8478C589.15 80.8569 588.849 78.644 588.849 76.2091C588.849 72.9578 589.379 70.1291 590.439 67.7228C591.513 65.3022 593.16 63.4259 595.38 62.0939C597.6 60.7619 600.422 60.0959 603.845 60.0959C607.254 60.0959 610.054 60.7619 612.245 62.0939C614.451 63.4259 616.084 65.3022 617.144 67.7228C618.218 70.1434 618.755 72.9865 618.755 76.2521ZM595.831 76.2521C595.831 78.4435 596.103 80.3341 596.648 81.924C597.206 83.4995 598.073 84.7169 599.247 85.5763C600.422 86.4214 601.94 86.8439 603.802 86.8439C605.693 86.8439 607.225 86.4214 608.4 85.5763C609.574 84.7169 610.426 83.4995 610.956 81.924C611.5 80.3341 611.773 78.4435 611.773 76.2521C611.773 72.9578 611.157 70.3654 609.925 68.4748C608.693 66.5841 606.667 65.6388 603.845 65.6388C601.969 65.6388 600.436 66.0685 599.247 66.9279C598.073 67.7729 597.206 68.9904 596.648 70.5802C596.103 72.1557 595.831 74.0464 595.831 76.2521Z" fill="black"/>
<path d="M654.875 76.2521C654.875 78.6727 654.574 80.8784 653.972 82.8693C653.371 84.8458 652.454 86.5503 651.222 87.9826C650.005 89.4149 648.458 90.5177 646.582 91.2912C644.705 92.0503 642.485 92.4298 639.922 92.4298C637.358 92.4298 635.138 92.0503 633.261 91.2912C631.385 90.5177 629.831 89.4149 628.599 87.9826C627.382 86.5503 626.472 84.8387 625.871 82.8478C625.269 80.8569 624.968 78.644 624.968 76.2091C624.968 72.9578 625.498 70.1291 626.558 67.7228C627.632 65.3022 629.28 63.4259 631.5 62.0939C633.72 60.7619 636.541 60.0959 639.964 60.0959C643.373 60.0959 646.173 60.7619 648.365 62.0939C650.571 63.4259 652.203 65.3022 653.263 67.7228C654.338 70.1434 654.875 72.9865 654.875 76.2521ZM631.951 76.2521C631.951 78.4435 632.223 80.3341 632.767 81.924C633.326 83.4995 634.192 84.7169 635.367 85.5763C636.541 86.4214 638.06 86.8439 639.922 86.8439C641.812 86.8439 643.345 86.4214 644.519 85.5763C645.694 84.7169 646.546 83.4995 647.076 81.924C647.62 80.3341 647.892 78.4435 647.892 76.2521C647.892 72.9578 647.276 70.3654 646.045 68.4748C644.813 66.5841 642.786 65.6388 639.964 65.6388C638.088 65.6388 636.556 66.0685 635.367 66.9279C634.192 67.7729 633.326 68.9904 632.767 70.5802C632.223 72.1557 631.951 74.0464 631.951 76.2521Z" fill="black"/>
<path d="M690.35 92.0001H681.885L668.221 68.2384H668.027C668.085 69.2267 668.135 70.2222 668.178 71.2248C668.221 72.2274 668.264 73.23 668.307 74.2326C668.35 75.2208 668.393 76.2163 668.436 77.2189V92.0001H662.484V60.59H670.885L684.527 84.1154H684.678C684.649 83.1414 684.613 82.1746 684.57 81.215C684.527 80.2554 684.484 79.2957 684.441 78.3361C684.413 77.3764 684.384 76.4168 684.355 75.4572V60.59H690.35V92.0001Z" fill="black"/>
<path d="M427.018 146.162C427.018 147.686 426.637 148.986 425.875 150.065C425.125 151.131 424.07 151.945 422.711 152.508C421.352 153.07 419.752 153.352 417.912 153.352C416.939 153.352 416.02 153.305 415.152 153.211C414.285 153.117 413.488 152.983 412.762 152.807C412.035 152.631 411.396 152.414 410.846 152.156V149.291C411.725 149.654 412.797 149.994 414.062 150.311C415.328 150.615 416.652 150.768 418.035 150.768C419.324 150.768 420.414 150.598 421.305 150.258C422.195 149.906 422.869 149.408 423.326 148.764C423.795 148.108 424.029 147.322 424.029 146.408C424.029 145.529 423.836 144.797 423.449 144.211C423.062 143.613 422.418 143.074 421.516 142.594C420.625 142.102 419.406 141.58 417.859 141.029C416.77 140.643 415.809 140.221 414.977 139.764C414.145 139.295 413.447 138.768 412.885 138.182C412.322 137.596 411.895 136.916 411.602 136.143C411.32 135.369 411.18 134.485 411.18 133.488C411.18 132.117 411.525 130.945 412.217 129.973C412.92 128.988 413.887 128.238 415.117 127.723C416.359 127.195 417.783 126.932 419.389 126.932C420.76 126.932 422.025 127.061 423.186 127.319C424.357 127.576 425.43 127.922 426.402 128.356L425.471 130.922C424.545 130.535 423.561 130.213 422.518 129.955C421.486 129.697 420.42 129.569 419.318 129.569C418.217 129.569 417.285 129.733 416.523 130.061C415.773 130.377 415.199 130.828 414.801 131.414C414.402 132 414.203 132.697 414.203 133.506C414.203 134.408 414.391 135.158 414.766 135.756C415.152 136.354 415.762 136.887 416.594 137.356C417.438 137.813 418.551 138.293 419.934 138.797C421.445 139.348 422.729 139.934 423.783 140.555C424.838 141.164 425.641 141.914 426.191 142.805C426.742 143.684 427.018 144.803 427.018 146.162Z" fill="#332B7F"/>
<path d="M441.066 153H438.06V129.938H429.974V127.301H449.117V129.938H441.066V153Z" fill="#332B7F"/>
<path d="M470.021 153L466.857 144.844H456.556L453.409 153H450.386L460.441 127.195H463.13L473.114 153H470.021ZM465.96 142.19L462.954 134.086C462.884 133.875 462.767 133.529 462.603 133.049C462.45 132.569 462.292 132.07 462.128 131.555C461.964 131.039 461.829 130.623 461.724 130.307C461.607 130.787 461.478 131.268 461.337 131.748C461.208 132.217 461.079 132.656 460.95 133.067C460.821 133.465 460.71 133.805 460.616 134.086L457.558 142.19H465.96Z" fill="#332B7F"/>
<path d="M484.139 140.186L490.977 127.301H494.194L485.634 143.033V153H482.645V143.174L474.067 127.301H477.337L484.139 140.186Z" fill="#332B7F"/>
<path d="M516.771 153H513.766V129.938H505.68V127.301H524.822V129.938H516.771V153Z" fill="#332B7F"/>
<path d="M549.048 127.301V143.93C549.048 145.746 548.679 147.363 547.941 148.781C547.214 150.199 546.113 151.319 544.636 152.139C543.16 152.947 541.308 153.352 539.082 153.352C535.906 153.352 533.486 152.49 531.822 150.768C530.17 149.045 529.343 146.742 529.343 143.86V127.301H532.349V143.947C532.349 146.127 532.923 147.809 534.072 148.992C535.232 150.176 536.961 150.768 539.257 150.768C540.828 150.768 542.111 150.486 543.107 149.924C544.115 149.35 544.859 148.553 545.339 147.533C545.832 146.502 546.078 145.313 546.078 143.965V127.301H549.048Z" fill="#332B7F"/>
<path d="M576.861 153H573.415L559.405 131.414H559.265C559.3 131.988 559.341 132.645 559.388 133.383C559.435 134.11 559.47 134.889 559.493 135.721C559.529 136.541 559.546 137.379 559.546 138.235V153H556.769V127.301H560.196L574.154 148.817H574.277C574.253 148.406 574.224 147.826 574.189 147.076C574.154 146.315 574.118 145.5 574.083 144.633C574.06 143.754 574.048 142.94 574.048 142.19V127.301H576.861V153Z" fill="#332B7F"/>
<path d="M599.083 153H584.774V127.301H599.083V129.938H587.763V138.252H598.432V140.854H587.763V150.363H599.083V153Z" fill="#332B7F"/>
<path d="M626.086 139.904C626.086 142.799 625.559 145.219 624.504 147.164C623.45 149.098 621.92 150.557 619.916 151.541C617.924 152.514 615.504 153 612.657 153H605.678V127.301H613.43C616.043 127.301 618.293 127.781 620.18 128.742C622.067 129.692 623.52 131.104 624.539 132.979C625.571 134.842 626.086 137.151 626.086 139.904ZM622.94 140.01C622.94 137.701 622.553 135.797 621.78 134.297C621.018 132.797 619.893 131.684 618.405 130.957C616.928 130.219 615.118 129.85 612.973 129.85H608.666V150.434H612.305C615.844 150.434 618.498 149.561 620.268 147.815C622.049 146.069 622.94 143.467 622.94 140.01Z" fill="#332B7F"/>
</svg>
