<svg width="22" height="23" viewBox="0 0 22 23" version="1.1" xmlns="http://www.w3.org/2000/svg" xmlns:xlink="http://www.w3.org/1999/xlink" xmlns:figma="http://www.figma.com/figma/ns">
<title>Group</title>
<desc>Created using Figma</desc>
<g id="Canvas" transform="translate(-2518 75)" figma:type="canvas">
<g id="Group" style="mix-blend-mode:normal;" figma:type="frame">
<g id="Vector" style="mix-blend-mode:normal;" figma:type="vector">
<use xlink:href="#path0_stroke" transform="translate(2519.89 -73.5)" fill="#5E50B1" style="mix-blend-mode:normal;"/>
</g>
<g id="Vector" style="mix-blend-mode:normal;" figma:type="vector">
<use xlink:href="#path1_stroke" transform="translate(2524.15 -67.2705)" fill="#26DCCE" style="mix-blend-mode:normal;"/>
</g>
<g id="Vector" style="mix-blend-mode:normal;" figma:type="vector">
<use xlink:href="#path2_stroke" transform="translate(2524.15 -63.4672)" fill="#26DCCE" style="mix-blend-mode:normal;"/>
</g>
<g id="Vector" style="mix-blend-mode:normal;" figma:type="vector">
<use xlink:href="#path1_stroke" transform="translate(2524.15 -59.4016)" fill="#26DCCE" style="mix-blend-mode:normal;"/>
</g>
</g>
</g>
<defs>
<path id="path0_stroke" d="M 17.9672 16.459L 16.7172 16.459C 16.7172 16.4729 16.7174 16.4868 16.7179 16.5007L 17.9672 16.459ZM 14.5574 18.75L 3.47541 18.75L 3.47541 21.25L 14.5574 21.25L 14.5574 18.75ZM 3.47541 18.75C 2.26413 18.75 1.25 17.7359 1.25 16.5246L -1.25 16.5246C -1.25 19.1166 0.883415 21.25 3.47541 21.25L 3.47541 18.75ZM 1.25 16.5246L 1.25 3.47541L -1.25 3.47541L -1.25 16.5246L 1.25 16.5246ZM 1.25 3.47541C 1.25 2.26413 2.26413 1.25 3.47541 1.25L 3.47541 -1.25C 0.883415 -1.25 -1.25 0.883415 -1.25 3.47541L 1.25 3.47541ZM 3.47541 1.25L 14.4918 1.25L 14.4918 -1.25L 3.47541 -1.25L 3.47541 1.25ZM 14.4918 1.25C 15.7031 1.25 16.7172 2.26413 16.7172 3.47541L 19.2172 3.47541C 19.2172 0.883415 17.0838 -1.25 14.4918 -1.25L 14.4918 1.25ZM 16.7172 3.47541L 16.7172 16.459L 19.2172 16.459L 19.2172 3.47541L 16.7172 3.47541ZM 16.7179 16.5007C 16.7596 17.7528 15.7612 18.75 14.5574 18.75L 14.5574 21.25C 17.1569 21.25 19.3059 19.0997 19.2165 16.4174L 16.7179 16.5007Z"/>
<path id="path1_stroke" d="M 0 -1.25C -0.690356 -1.25 -1.25 -0.690356 -1.25 0C -1.25 0.690356 -0.690356 1.25 0 1.25L 0 -1.25ZM 9.44262 1.25C 10.133 1.25 10.6926 0.690356 10.6926 0C 10.6926 -0.690356 10.133 -1.25 9.44262 -1.25L 9.44262 1.25ZM 0 1.25L 9.44262 1.25L 9.44262 -1.25L 0 -1.25L 0 1.25Z"/>
<path id="path2_stroke" d="M 0 -1.25C -0.690356 -1.25 -1.25 -0.690357 -1.25 -7.62939e-07C -1.25 0.690355 -0.690356 1.25 0 1.25L 0 -1.25ZM 9.44262 1.25C 10.133 1.25 10.6926 0.690355 10.6926 -7.62939e-07C 10.6926 -0.690357 10.133 -1.25 9.44262 -1.25L 9.44262 1.25ZM 0 1.25L 9.44262 1.25L 9.44262 -1.25L 0 -1.25L 0 1.25Z"/>
</defs>
</svg>
