<svg width="42" height="41" viewBox="0 0 42 41" version="1.1" xmlns="http://www.w3.org/2000/svg" xmlns:xlink="http://www.w3.org/1999/xlink" xmlns:figma="http://www.figma.com/figma/ns">
<title>Group</title>
<desc>Created using Figma</desc>
<g id="Canvas" transform="translate(-1599 232)" figma:type="canvas">
<g id="Group" style="mix-blend-mode:normal;" figma:type="frame">
<g id="Group" style="mix-blend-mode:normal;" figma:type="frame">
<g id="Vector" style="mix-blend-mode:normal;" figma:type="vector">
<use xlink:href="#path0_fill" transform="translate(1613.67 -231.763)" fill="#26DCCE" style="mix-blend-mode:normal;"/>
</g>
<g id="Vector" style="mix-blend-mode:normal;" figma:type="vector">
<use xlink:href="#path1_fill" transform="translate(1599.86 -228.208)" fill="#4F46A3" style="mix-blend-mode:normal;"/>
</g>
<g id="Vector" style="mix-blend-mode:normal;" figma:type="vector">
<use xlink:href="#path2_fill" transform="translate(1603.87 -214.647)" fill="#26DCCE" style="mix-blend-mode:normal;"/>
</g>
<g id="Vector" style="mix-blend-mode:normal;" figma:type="vector">
<use xlink:href="#path3_fill" transform="translate(1617.26 -218.502)" fill="#4F46A2" style="mix-blend-mode:normal;"/>
</g>
<g id="Vector" style="mix-blend-mode:normal;" figma:type="vector">
<use xlink:href="#path4_fill" transform="translate(1603.79 -211.26)" fill="#424094" style="mix-blend-mode:normal;"/>
</g>
<g id="Vector" style="mix-blend-mode:normal;" figma:type="vector">
<use xlink:href="#path5_fill" transform="translate(1622.86 -201.231)" fill="#26B8B4" style="mix-blend-mode:normal;"/>
</g>
<g id="Vector" style="mix-blend-mode:normal;" figma:type="vector">
<use xlink:href="#path6_fill" transform="translate(1630.99 -211.341)" fill="#424094" style="mix-blend-mode:normal;"/>
</g>
<g id="Vector" style="mix-blend-mode:normal;" figma:type="vector">
<use xlink:href="#path7_fill" transform="translate(1629.07 -214.791)" fill="#424495" style="mix-blend-mode:normal;"/>
</g>
<g id="Vector" style="mix-blend-mode:normal;" figma:type="vector">
<use xlink:href="#path8_fill" transform="translate(1605.96 -209.984)" fill="#27DBCE" style="mix-blend-mode:normal;"/>
</g>
</g>
</g>
</g>
<defs>
<path id="path0_fill" d="M 1.99624 9.26863C 1.59504 8.7872 1.11361 8.30576 0.712418 7.90457C -0.250445 6.86147 -0.250445 5.89861 0.792657 4.93574C 2.15671 3.57169 3.52077 2.20763 4.88482 0.843577C 6.00816 -0.360002 7.1315 -0.199524 8.17461 0.843577C 9.37818 2.04716 10.662 3.25073 11.8656 4.53455C 13.3099 6.05908 13.3901 6.78123 11.8656 8.22552C 10.9027 9.10815 10.983 9.66982 11.8656 10.4722C 13.7111 12.077 15.3961 13.8422 17.1613 15.5272C 18.2044 15.9284 19.1673 16.4901 20.2906 16.8111C 21.8954 17.2122 23.099 18.9775 23.099 20.6625C 23.0187 20.823 22.9385 20.9835 22.778 21.1439C 20.3709 23.9523 19.408 23.872 17.0008 20.9835C 16.7601 20.5823 16.6799 20.1008 16.5997 19.6194C 16.5997 18.4961 15.717 18.0146 15.0751 17.3727C 13.5506 15.8482 12.0261 14.3237 10.5015 12.7991C 9.93985 12.2375 9.45842 11.8363 8.49556 12.3177C 5.84769 13.8422 4.96506 13.6015 3.28005 10.9536C 3.44053 9.50934 4.40339 8.86743 5.68721 8.70696C 6.4896 8.62672 7.1315 8.22552 7.69317 7.66386C 8.65604 6.78123 8.41532 6.05908 7.61294 5.2567C 6.73031 4.37407 6.00816 4.37407 5.20578 5.2567C 4.56387 5.65789 4.32315 6.2998 4.16268 7.10219C 3.92196 8.30576 3.44053 9.26863 1.99624 9.26863Z"/>
<path id="path1_fill" d="M 15.807 5.71379C 16.6094 4.9114 17.9734 4.51021 17.4118 2.8252C 17.2513 2.18329 19.7387 -0.223863 20.2201 0.0168523C 21.4237 0.498284 22.3063 1.46115 22.9482 2.58449C 23.2692 3.14616 21.0225 5.79403 20.2201 5.63355C 18.6153 5.23236 18.1339 6.43594 17.3315 7.23832C 16.3687 9.24429 14.5232 10.4479 13.0789 11.8922C 12.2765 12.7748 12.0358 13.3365 12.7579 14.4598C 14.0417 16.3855 13.4801 17.7496 11.0729 19.3543C 9.70887 19.3543 9.1472 18.3915 8.58553 17.3484C 8.50529 17.1879 8.50529 16.9472 8.42505 16.7867C 8.18433 15.6634 7.54243 14.6203 6.33885 14.6203C 5.13527 14.6203 4.5736 15.6634 4.41312 16.867C 4.81431 18.231 5.6167 19.1939 7.14123 19.2741C 8.26457 19.3543 9.1472 19.8358 8.66577 21.2801C 6.90052 23.286 6.33885 23.3663 4.49336 21.5208C 3.37002 20.3974 2.32692 19.3543 1.20358 18.231C -0.401193 16.546 -0.401193 16.0646 1.20358 14.3796C 2.32692 13.2562 3.45026 12.1329 4.5736 11.0095C 6.17837 9.40476 6.82028 9.32453 8.42505 10.9293C 9.22744 11.7317 9.70887 11.8119 10.5113 10.9293C 12.3567 9.08381 14.0417 7.3988 15.807 5.71379Z"/>
<path id="path2_fill" d="M 1.53043e-07 3.38632C 1.53043e-07 2.26298 1.68501 -0.224416 2.40716 0.0162998C 3.69097 0.417493 5.29575 1.86179 5.13527 2.66417C 4.89455 4.50966 6.33885 4.75038 7.06099 5.633C 8.98672 6.43539 10.0298 8.20063 11.4741 9.56469C 12.5172 10.5276 13.2394 11.0892 14.6837 10.0461C 16.3687 8.7623 18.2142 9.64493 19.2573 11.8114C 18.9363 13.3359 17.8932 13.8976 16.4489 14.2185C 14.6034 14.5395 13.801 16.064 14.6837 17.2676C 15.6465 18.4712 16.3687 18.5514 17.492 17.4281C 17.9734 16.9466 18.3746 16.3047 18.6956 15.7431C 19.3375 15.0209 19.8189 14.058 20.9423 13.8976C 23.2692 15.9035 23.2692 16.4652 21.1027 18.6316C 19.8992 19.8352 18.7758 20.9586 17.5722 22.1621C 16.6094 23.125 15.6465 23.125 14.6837 22.1621C 13.3196 20.7981 11.9555 19.434 10.5915 18.07C 9.38791 16.8664 9.22744 15.7431 10.5915 14.7C 11.7951 13.7371 11.6346 13.0952 10.5113 12.1323C 8.746 10.6078 7.06099 8.84254 5.37598 7.23777C 4.5736 6.91682 4.17241 6.11443 3.45026 5.633C 2.88859 5.15157 2.32692 5.71324 1.76525 5.55276C 1.12334 4.99109 0.320954 4.42942 1.53043e-07 3.38632Z"/>
<path id="path3_fill" d="M 5.62466 19.5983C 5.7049 21.3635 4.2606 22.3264 3.05702 22.8078C 1.77321 23.2892 1.1313 21.6042 0.328912 20.8018C -0.312997 20.1599 0.0881955 19.518 0.649866 19.0366C 1.53249 18.3145 2.09416 16.9504 3.77917 17.4318C 4.34084 17.5923 5.14323 16.3887 5.62466 15.6666C 6.42704 13.6606 8.19229 12.5373 9.63659 11.093C 10.5994 10.0499 10.9204 9.32773 9.95754 8.04392C 8.67372 6.35891 9.55635 4.59366 11.803 3.95175C 12.3647 4.6739 13.4078 4.99485 13.4078 6.11819C 13.488 6.43914 13.5683 6.84034 13.6485 7.16129C 13.6485 7.32177 13.6485 7.40201 13.7288 7.56249C 16.3766 10.6116 16.4569 10.5313 19.185 7.08105C 18.7838 5.15533 17.5802 4.19247 15.5742 3.95175C 14.5311 3.87151 14.0497 2.90865 13.488 2.1865C 13.9695 1.70507 14.4509 1.1434 15.0126 0.661968C 15.8952 -0.220656 16.8581 -0.220656 17.7407 0.661968C 19.2652 2.10626 20.7897 3.6308 22.234 5.15533C 23.1167 6.11819 23.1167 7.08105 22.0736 8.04392C 20.7095 9.32773 19.4257 10.6116 18.1419 11.9756C 16.9383 13.2594 15.7347 13.4199 14.6114 12.0558C 13.7288 10.9325 13.0868 11.093 12.2042 12.0558C 10.5994 13.8211 8.91444 15.5061 7.22943 17.1911C 6.98871 18.2342 5.86537 18.6354 5.62466 19.5983Z"/>
<path id="path4_fill" d="M 4.01193 1.92573C 4.49336 2.56763 5.05503 3.20954 5.53646 3.77121C 5.29575 3.93169 5.05503 4.17241 4.81431 4.33288C 4.5736 3.37002 4.33288 2.80835 3.04907 2.88859C 1.36406 2.88859 0.320954 1.68501 -1.53043e-07 6.12172e-07C 0.722147 0.641909 1.20358 1.44429 2.0862 1.84549C 2.80835 2.24668 3.45026 1.20358 4.01193 1.92573Z"/>
<path id="path5_fill" d="M 0.0313086 2.32692C -0.209407 0.962862 0.994172 0.641909 1.71632 6.12172e-07C 1.79656 0.160478 1.95703 0.320954 2.03727 0.481431C 1.4756 1.20358 0.833694 1.84549 0.0313086 2.32692Z"/>
<path id="path6_fill" d="M 5.45927 3.06086e-07C 5.37903 1.28382 4.17545 1.84549 3.53354 2.72811C 3.29283 3.04907 2.65092 3.37002 2.32996 2.96883C 1.44734 2.0862 -0.0771948 1.68501 0.00304378 0.0802392C 2.49044 2.4874 2.49044 2.4874 5.45927 3.06086e-07Z"/>
<path id="path7_fill" d="M 6.12172e-07 0.320955C 6.12172e-07 0.160478 0.080238 0.080238 0.080238 -6.12172e-07C 0.641908 0.802385 2.24668 0.962863 1.60477 2.4874C 1.12334 1.76525 0.561671 1.0431 6.12172e-07 0.320955Z"/>
<path id="path8_fill" d="M 1.84549 0.648821C 1.28382 0.408105 0.56167 1.37097 7.65215e-08 0.648821C 0.641909 0.327866 1.28382 -0.634997 1.84549 0.648821Z"/>
</defs>
</svg>
