<svg width="40" height="40" viewBox="0 0 40 40" version="1.1" xmlns="http://www.w3.org/2000/svg" xmlns:xlink="http://www.w3.org/1999/xlink" xmlns:figma="http://www.figma.com/figma/ns">
<title>intro talk</title>
<desc>Created using Figma</desc>
<g id="Canvas" transform="translate(-1118 673)" figma:type="canvas">
<g id="intro talk" style="mix-blend-mode:normal;" opacity="0.4" figma:type="frame">
<g id="Group" style="mix-blend-mode:normal;" figma:type="frame">
<g id="Vector" style="mix-blend-mode:normal;" figma:type="vector">
<use xlink:href="#path0_fill" transform="translate(1118 -673)" fill="#5D5CA9" style="mix-blend-mode:normal;"/>
</g>
<g id="Vector" style="mix-blend-mode:normal;" figma:type="vector">
<use xlink:href="#path1_fill" transform="translate(1120.52 -670.478)" fill="#56C3C0" style="mix-blend-mode:normal;"/>
</g>
<g id="Group" style="mix-blend-mode:normal;" figma:type="frame">
<g id="Vector" style="mix-blend-mode:normal;" figma:type="vector">
<use xlink:href="#path2_fill" transform="translate(1129.83 -667.174)" fill="#5D5CA9" style="mix-blend-mode:normal;"/>
</g>
</g>
<g id="Vector" style="mix-blend-mode:normal;" figma:type="vector">
<use xlink:href="#path3_fill" transform="translate(1138 -655.957)" fill="#54548E" style="mix-blend-mode:normal;"/>
</g>
</g>
<g id="Vector" style="mix-blend-mode:normal;" figma:type="vector">
<use xlink:href="#path4_fill" transform="translate(1120.52 -652.304)" fill="#5D5CA9" style="mix-blend-mode:normal;"/>
</g>
<g id="Vector" style="mix-blend-mode:normal;" figma:type="vector">
<use xlink:href="#path5_fill" transform="translate(1136.05 -656.315)" fill="#5D5CA9" style="mix-blend-mode:normal;"/>
</g>
<g id="Vector" style="mix-blend-mode:normal;" figma:type="vector">
<use xlink:href="#path6_fill" transform="translate(1138 -657.171)" fill="#332B7F" style="mix-blend-mode:normal;"/>
</g>
</g>
</g>
<defs>
<path id="path0_fill" d="M 26.3478 13.1304C 26.3478 14.7826 26 16.4348 25.4783 17.913C 23.0435 19.1304 21.1304 21.1304 20.6957 23.913C 18.5217 25.3913 16 26.2609 13.2174 26.2609C 5.91304 26.3478 0 20.4348 0 13.1304C 0 5.91304 5.91304 0 13.1304 0C 20.4348 0 26.3478 5.91304 26.3478 13.1304Z"/>
<path id="path1_fill" d="M 10.6087 21.2174C 16.4677 21.2174 21.2174 16.4677 21.2174 10.6087C 21.2174 4.74968 16.4677 0 10.6087 0C 4.74968 0 0 4.74968 0 10.6087C 0 16.4677 4.74968 21.2174 10.6087 21.2174Z"/>
<path id="path2_fill" d="M 1.13043 14.8696C 0.782608 14.8696 0.521739 14.7826 0.347826 14.5217C 0.0869565 14.2609 3.31713e-07 14 3.31713e-07 13.7391C 3.31713e-07 13.4783 0.0869565 13.1304 0.347826 12.9565C 0.608696 12.6957 0.869565 12.6087 1.13043 12.6087C 1.47826 12.6087 1.73913 12.6957 1.91304 12.9565C 2.17391 13.2174 2.26087 13.4783 2.26087 13.7391C 2.26087 14 2.17391 14.3478 1.91304 14.5217C 1.73913 14.7826 1.47826 14.8696 1.13043 14.8696ZM 2 -1.65856e-07L 1.82609 10.6087L 0.434783 10.6087L 0.260869 -1.65856e-07L 2 -1.65856e-07Z"/>
<path id="path3_fill" d="M 5.73913 3.31713e-07C 4.6087 2.95652 2.6087 5.56522 0 7.30435C 0.521739 3.91304 2.78261 1.47826 5.73913 3.31713e-07Z"/>
<path id="path4_fill" d="M 10.6087 4.26087L 10.4348 13.7391L 8.29282e-08 -6.63426e-07"/>
<path id="path5_fill" d="M 12.9025 0.0109211C 10.7285 -0.0760354 8.55463 0.358747 6.72855 1.22831C 5.77203 3.66309 4.11985 5.75005 1.94594 7.22831C 1.85898 7.83701 1.85898 8.53266 1.85898 9.22831C 1.85898 9.22831 1.85898 9.22831 1.85898 9.31527C 1.85898 9.40222 1.85898 9.40223 1.85898 9.48918C 2.20681 10.8805 1.68507 12.1848 0.554634 13.0544C 0.467677 13.0544 0.467678 13.1414 0.380722 13.2283C 0.293765 13.3153 0.206808 13.4022 0.119851 13.5761C -0.141018 14.1848 0.0328947 14.7935 0.554634 15.2283C 0.64159 15.3153 0.728548 15.3153 0.815504 15.4022C 1.16333 15.5761 1.51116 15.6631 1.85898 15.7501C 1.97366 15.7787 2.17331 15.7439 2.17331 15.7439C 2.08635 15.7439 2.26026 15.7439 2.17331 15.7439C 2.60809 15.7439 2.38072 16.7004 2.64159 17.483C 2.60809 17.483 2.60809 17.9178 2.64159 18.3019C 2.55463 18.3019 2.72855 18.5669 2.64159 18.5669C 2.64159 18.5669 2.64159 18.5263 2.72855 18.6133C 2.8155 18.6133 2.72855 18.7935 2.72855 18.8805C 2.8155 19.0544 2.90246 19.2283 2.8155 19.4892C 2.8155 19.5761 2.8155 19.6631 2.8155 19.6631C 2.8155 19.7501 2.8155 19.7501 2.8155 19.837C 2.98942 20.7935 3.85898 21.3153 4.8155 21.3153C 4.90246 21.3153 4.90246 21.3153 4.98942 21.3153C 5.07637 21.3153 5.07637 21.3153 5.16333 21.3153C 6.64159 21.0544 8.38072 21.2283 8.98942 22.8805C 9.07637 23.2283 9.4242 23.3153 9.68507 23.3153C 9.68507 23.3153 9.77203 23.3153 9.94594 23.3153C 12.7285 23.1414 15.4242 22.7066 18.2068 22.3587C 18.2938 22.3587 18.3807 22.3587 18.4677 22.2718C 18.8155 22.1848 19.0764 21.837 18.8155 21.4022C 16.9894 18.0109 20.7285 14.3587 21.4242 11.1414C 21.4242 11.0544 21.4242 11.0544 21.4242 10.9674C 22.2068 5.66309 18.4677 0.53266 12.9025 0.0109211Z"/>
<path id="path6_fill" d="M 14.3478 1.30121C 9.21739 -1.4814 2.86957 0.344689 0 5.38817L 8.6087 10.1708L 8.6087 9.73599L 9.21739 8.95339L 10.4348 8.5186L 11.3043 8.5186L 11.913 9.47513L 11.913 10.4316L 11.4783 11.0403L 11.4783 11.736L 15.1304 13.736L 15.3043 14.9534L 15.6522 16.9534L 16.087 18.6056L 16.6087 19.4751L 17.5652 16.7795L 18.3478 15.5621L 18.6087 15.736C 21.2174 10.5186 19.3913 4.17078 14.3478 1.30121Z"/>
</defs>
</svg>
