<svg width="50" height="41" viewBox="0 0 50 41" version="1.1" xmlns="http://www.w3.org/2000/svg" xmlns:xlink="http://www.w3.org/1999/xlink" xmlns:figma="http://www.figma.com/figma/ns">
<title>Group</title>
<desc>Created using Figma</desc>
<g id="Canvas" transform="translate(-1814 232)" figma:type="canvas">
<g id="Group" style="mix-blend-mode:normal;" figma:type="frame">
<g id="Group" style="mix-blend-mode:normal;" figma:type="frame">
<g id="Vector" style="mix-blend-mode:normal;" figma:type="vector">
<use xlink:href="#path0_fill" transform="translate(1814.04 -231.176)" fill="#5E50B1" style="mix-blend-mode:normal;"/>
</g>
<g id="Vector" style="mix-blend-mode:normal;" figma:type="vector">
<use xlink:href="#path1_fill" transform="translate(1820.18 -209.199)" fill="#4F46A2" style="mix-blend-mode:normal;"/>
</g>
<g id="Vector" style="mix-blend-mode:normal;" figma:type="vector">
<use xlink:href="#path2_fill" transform="translate(1826.46 -221.347)" fill="#2FDCC7" style="mix-blend-mode:normal;"/>
</g>
<g id="Vector" style="mix-blend-mode:normal;" figma:type="vector">
<use xlink:href="#path3_fill" transform="translate(1828.21 -212.424)" fill="#1ED0BF" style="mix-blend-mode:normal;"/>
</g>
<g id="Vector" style="mix-blend-mode:normal;" figma:type="vector">
<use xlink:href="#path4_fill" transform="translate(1820.96 -228.534)" fill="#8D82EA" style="mix-blend-mode:normal;"/>
</g>
<g id="Vector" style="mix-blend-mode:normal;" figma:type="vector">
<use xlink:href="#path5_fill" transform="translate(1817.31 -224.681)" fill="#8C82E9" style="mix-blend-mode:normal;"/>
</g>
<g id="Vector" style="mix-blend-mode:normal;" figma:type="vector">
<use xlink:href="#path6_fill" transform="translate(1828.81 -208.306)" fill="#434597" style="mix-blend-mode:normal;"/>
</g>
<g id="Vector" style="mix-blend-mode:normal;" figma:type="vector">
<use xlink:href="#path7_fill" transform="translate(1832.87 -215.415)" fill="#5D50B1" style="mix-blend-mode:normal;"/>
</g>
</g>
</g>
</g>
<defs>
<path id="path0_fill" d="M 6.24505 27.2312C 2.47819 22.9687 0 18.1115 0 12.2629C 0 6.71178 3.46947 2.15191 8.62411 0.565867C 13.8779 -1.02018 19.5282 0.86325 22.6011 5.42312C 24.5837 8.29783 24.6828 8.29783 26.7645 5.42312C 30.1348 0.565867 36.3799 -1.31756 41.7328 0.962378C 47.0857 3.14319 50.1586 8.59521 49.3656 14.4437C 48.5726 19.5984 46.3918 23.96 42.8232 27.7269C 38.5607 29.6103 35.3886 27.4295 34.5956 22.2748C 34.5956 21.9775 34.5956 21.7792 34.6947 21.4818C 35.2895 20.2923 35.686 19.1027 35.9834 17.8141C 36.5781 15.3359 35.7851 13.056 33.9017 11.8664C 31.82 10.4786 29.1435 10.6769 27.0619 12.3621C 24.4845 14.4437 24.4845 14.4437 22.1055 12.3621C 20.3212 10.8751 18.3386 10.5778 16.2569 11.4699C 14.1753 12.4612 13.184 14.2455 13.2831 16.5254C 13.2831 18.2106 13.7788 19.7966 14.5718 21.2836C 14.77 21.7792 14.9683 22.2748 14.8692 22.7705C 14.5718 24.2574 13.977 25.7443 12.7875 26.8347C 10.904 28.619 9.02062 28.7181 6.24505 27.2312Z"/>
<path id="path1_fill" d="M 29.1435 7.56284e-07C 29.9366 4.16336 31.1261 5.94766 36.7764 5.65028C 32.3156 11.4988 26.5662 15.3648 19.6273 17.843C 18.7351 18.1404 17.9421 18.0412 17.05 17.7439C 10.2102 15.1665 4.46075 11.2014 -1.89071e-07 5.3529C 4.95639 6.14592 6.04679 5.45202 8.32673 0.594766C 8.52498 0.693893 8.82237 0.793022 8.92149 0.991278C 9.91277 2.67645 11.3997 4.06424 12.9857 5.3529C 17.6447 9.11975 21.2133 8.72324 25.0793 3.86598C 26.4671 2.47819 27.0619 0.495639 29.1435 7.56284e-07Z"/>
<path id="path2_fill" d="M 1.7521 11.653C 0.661691 10.4635 0.26518 8.97656 0.0669249 7.39052C -0.329586 4.31756 1.0582 1.64111 3.63552 0.55071C 6.21284 -0.539695 8.98842 -0.0440566 10.8718 2.33501C 12.0614 3.7228 12.4579 3.82192 13.6474 2.33501C 15.3326 -0.0440566 18.6038 -0.539695 21.1811 0.649838C 23.7584 1.9385 25.2454 4.71407 24.5515 7.58878C 24.2541 9.07569 23.9567 10.6617 22.668 11.8513C 21.3794 10.3644 19.6942 9.57133 17.7117 9.27395C 16.6213 7.19227 15.2335 6.30012 12.9535 7.58878C 12.557 7.78703 12.0614 7.78703 11.6649 7.58878C 9.18667 6.10186 7.69976 7.48965 6.31197 9.37308C 4.72593 9.57133 3.43727 11.0582 1.7521 11.653Z"/>
<path id="path3_fill" d="M 1.89071e-07 2.73003C 0.793022 0.54922 2.37907 -0.243802 4.659 0.152708C 5.65028 0.350964 5.84854 1.34224 6.24505 2.03613C 8.62411 5.90212 11.5979 6.10037 14.3735 2.53177C 14.9683 1.73875 15.1665 0.648347 16.2569 0.152708C 18.636 -0.243802 20.6186 -0.0455477 20.9159 2.92828C 20.9159 3.02741 20.9159 3.22567 21.0151 3.32479C 19.9247 4.61345 18.8343 6.00124 17.6447 7.2899C 16.9508 8.08292 16.2569 8.77682 15.3648 9.37158C 11.2014 12.1472 9.81364 12.1472 5.55115 9.27246C 3.5686 7.88467 1.7843 6.29863 0.495639 4.21694C 0.495639 4.01869 0.396511 3.91956 0.297383 3.82043C 0.297383 3.42392 0.0991279 3.02741 1.89071e-07 2.73003Z"/>
<path id="path4_fill" d="M 4.37912 0.00521359C 4.97389 0.104341 5.86604 -0.29217 6.06429 0.59998C 6.26255 1.69038 5.27127 1.49213 4.6765 1.59126C 3.68523 1.88864 2.69395 2.18602 1.70267 2.48341C 1.10791 2.78079 0.51314 3.1773 0.11663 2.38428C -0.279881 1.49213 0.414013 1.09562 1.00878 0.798235C 2.09918 0.401724 3.09046 0.00521359 4.37912 0.00521359Z"/>
<path id="path5_fill" d="M 0.892149 3.09195C 0.297383 3.19108 -4.72678e-08 2.79457 -4.72678e-08 2.39806C 0.0991277 1.30765 0.396511 0.316376 1.58604 0.0189929C 2.08168 -0.0801348 2.47819 0.217249 2.47819 0.712887C 2.37907 1.70416 1.88343 2.59631 0.892149 3.09195Z"/>
<path id="path6_fill" d="M -3.78142e-07 3.78142e-07C 1.98255 1.98255 3.86598 3.96511 6.24505 5.45202C 8.72324 7.03807 11.0032 7.23632 13.4814 5.55115C 14.6709 4.659 15.9596 3.96511 17.1491 3.17209C 14.77 6.83981 9.81364 9.71452 5.45202 6.04679C 3.37034 4.16336 0.892149 2.8747 -3.78142e-07 3.78142e-07Z"/>
<path id="path7_fill" d="M 11.5979 3.14331C 11.5979 3.34157 11.5979 3.44069 11.4988 3.63895C 10.7058 6.51365 8.82237 8.29795 6.04679 9.09097C 4.26249 9.58661 1.38779 6.81104 0.39651 4.13459C 0.297383 3.83721 0.0991277 3.53982 0 3.14331C 1.0904 -0.227031 2.08168 -0.72267 5.25377 0.962501C 5.94766 1.35901 6.24505 1.16076 6.74068 0.863373C 9.41713 -0.821798 10.904 -0.0287754 11.5979 3.14331Z"/>
</defs>
</svg>
