<svg width="12" height="20" viewBox="0 0 12 20" version="1.1" xmlns="http://www.w3.org/2000/svg" xmlns:xlink="http://www.w3.org/1999/xlink" xmlns:figma="http://www.figma.com/figma/ns">
<title>Vector 2</title>
<desc>Created using Figma</desc>
<g id="Canvas" transform="translate(-2017 188)" figma:type="canvas">
<g id="Vector 2" style="mix-blend-mode:normal;" figma:type="vector">
<use xlink:href="#path0_stroke" transform="translate(2018 -187)" fill="#828282" style="mix-blend-mode:normal;"/>
</g>
</g>
<defs>
<path id="path0_stroke" d="M 0.668965 -0.743294C 0.258455 -1.11275 -0.373835 -1.07947 -0.743294 -0.668965C -1.11275 -0.258455 -1.07947 0.373835 -0.668965 0.743294L 0.668965 -0.743294ZM 9 9L 8.29289 8.29289L 9 9ZM -0.707107 17.2929C -1.09763 17.6834 -1.09763 18.3166 -0.707107 18.7071C -0.316583 19.0976 0.316582 19.0976 0.707107 18.7071L -0.707107 17.2929ZM -0.668965 0.743294C 0.906089 2.16082 3.23695 4.30322 5.12971 6.14113C 6.07451 7.05843 6.89287 7.88225 7.45657 8.50492C 7.73321 8.81002 7.91795 9.0296 8.03261 9.19485C 8.08944 9.27596 8.08539 9.28363 8.06752 9.2389C 8.0596 9.21911 8.02187 9.12417 8.01707 8.98294C 8.01186 8.83003 8.04687 8.53892 8.29289 8.29289L 9.70711 9.70711C 9.97682 9.4374 10.0226 9.11205 10.0159 8.91488C 10.0057 8.78574 9.95974 8.59014 9.92462 8.4965C 9.86801 8.36277 9.7623 8.17946 9.6706 8.04725C 9.50524 7.81283 9.24146 7.49656 8.93883 7.16219C 8.34397 6.50591 7.48076 5.6363 6.52293 4.70623C 4.61042 2.84941 2.25181 0.681282 0.668965 -0.743294L -0.668965 0.743294ZM 8.29289 8.29289C 8.05605 8.52974 5.80605 10.7797 3.61526 12.9705C 2.51987 14.0659 1.43928 15.1465 0.632532 15.9533C 0.22916 16.3566 -0.10575 16.6915 -0.339816 16.9256C -0.45685 17.0426 -0.548672 17.1345 -0.611237 17.197C -0.642519 17.2283 -0.666486 17.2523 -0.682633 17.2684C -0.690707 17.2765 -0.696825 17.2826 -0.700925 17.2867C -0.702975 17.2888 -0.704521 17.2903 -0.705553 17.2913C -0.70607 17.2919 -0.706458 17.2922 -0.706717 17.2925C -0.706847 17.2926 -0.706944 17.2927 -0.707009 17.2928C -0.707074 17.2929 -0.707107 17.2929 0 18C 0.707107 18.7071 0.707139 18.7071 0.707204 18.707C 0.707269 18.7069 0.707366 18.7068 0.707496 18.7067C 0.707755 18.7065 0.708144 18.7061 0.70866 18.7056C 0.709693 18.7045 0.711238 18.703 0.713288 18.7009C 0.717388 18.6968 0.723507 18.6907 0.73158 18.6826C 0.747727 18.6665 0.771695 18.6425 0.802977 18.6112C 0.865541 18.5487 0.957364 18.4568 1.0744 18.3398C 1.30846 18.1057 1.64337 17.7708 2.04675 17.3675C 2.85349 16.5607 3.93408 15.4801 5.02948 14.3847C 7.22027 12.1939 9.47027 9.94395 9.70711 9.70711L 8.29289 8.29289Z"/>
</defs>
</svg>
