<svg width="68" height="60" viewBox="0 0 68 60" version="1.1" xmlns="http://www.w3.org/2000/svg" xmlns:xlink="http://www.w3.org/1999/xlink" xmlns:figma="http://www.figma.com/figma/ns">
<title>Group</title>
<desc>Created using Figma</desc>
<g id="Canvas" transform="translate(-81 338)" figma:type="canvas">
<g id="Group" style="mix-blend-mode:normal;" figma:type="frame">
<g id="Group" style="mix-blend-mode:normal;" figma:type="frame">
<g id="Vector" style="mix-blend-mode:normal;" figma:type="vector">
<use xlink:href="#path0_fill" transform="translate(81 -328.671)" fill="#4F46A3" style="mix-blend-mode:normal;"/>
</g>
<g id="Vector" style="mix-blend-mode:normal;" figma:type="vector">
<use xlink:href="#path1_fill" transform="translate(103.206 -306.837)" fill="#36E7D6" style="mix-blend-mode:normal;"/>
</g>
<g id="Vector" style="mix-blend-mode:normal;" figma:type="vector">
<use xlink:href="#path2_fill" transform="translate(103.396 -322.797)" fill="#67F3E2" style="mix-blend-mode:normal;"/>
</g>
<g id="Vector" style="mix-blend-mode:normal;" figma:type="vector">
<use xlink:href="#path3_fill" transform="translate(99.7 -323.549)" fill="#6A5FB4" style="mix-blend-mode:normal;"/>
</g>
<g id="Vector" style="mix-blend-mode:normal;" figma:type="vector">
<use xlink:href="#path4_fill" transform="translate(110.8 -337.446)" fill="#22D1C1" style="mix-blend-mode:normal;"/>
</g>
<g id="Vector" style="mix-blend-mode:normal;" figma:type="vector">
<use xlink:href="#path5_fill" transform="translate(87.3159 -320.864)" fill="#5249A4" style="mix-blend-mode:normal;"/>
</g>
<g id="Vector" style="mix-blend-mode:normal;" figma:type="vector">
<use xlink:href="#path6_fill" transform="translate(110.636 -334.831)" fill="#23C5B6" style="mix-blend-mode:normal;"/>
</g>
<g id="Vector" style="mix-blend-mode:normal;" figma:type="vector">
<use xlink:href="#path7_fill" transform="translate(93.9 -309.336)" fill="#5148A3" style="mix-blend-mode:normal;"/>
</g>
<g id="Vector" style="mix-blend-mode:normal;" figma:type="vector">
<use xlink:href="#path8_fill" transform="translate(88 -321.018)" fill="#6B63B5" style="mix-blend-mode:normal;"/>
</g>
<g id="Vector" style="mix-blend-mode:normal;" figma:type="vector">
<use xlink:href="#path9_fill" transform="translate(138.452 -328.383)" fill="#474295" style="mix-blend-mode:normal;"/>
</g>
<g id="Vector" style="mix-blend-mode:normal;" figma:type="vector">
<use xlink:href="#path10_fill" transform="translate(141.5 -326.301)" fill="#554DA5" style="mix-blend-mode:normal;"/>
</g>
<g id="Vector" style="mix-blend-mode:normal;" figma:type="vector">
<use xlink:href="#path11_fill" transform="translate(113.1 -330.979)" fill="#24D1C0" style="mix-blend-mode:normal;"/>
</g>
<g id="Vector" style="mix-blend-mode:normal;" figma:type="vector">
<use xlink:href="#path12_fill" transform="translate(102.658 -309.131)" fill="#6961B5" style="mix-blend-mode:normal;"/>
</g>
<g id="Vector" style="mix-blend-mode:normal;" figma:type="vector">
<use xlink:href="#path13_fill" transform="translate(140.35 -328.031)" fill="#695EB2" style="mix-blend-mode:normal;"/>
</g>
<g id="Vector" style="mix-blend-mode:normal;" figma:type="vector">
<use xlink:href="#path14_fill" transform="translate(104.075 -296.731)" fill="#433F94" style="mix-blend-mode:normal;"/>
</g>
<g id="Vector" style="mix-blend-mode:normal;" figma:type="vector">
<use xlink:href="#path15_fill" transform="translate(109.859 -315.931)" fill="#1ED0BF" style="mix-blend-mode:normal;"/>
</g>
<g id="Vector" style="mix-blend-mode:normal;" figma:type="vector">
<use xlink:href="#path16_fill" transform="translate(119.821 -317.931)" fill="#6861B5" style="mix-blend-mode:normal;"/>
</g>
<g id="Vector" style="mix-blend-mode:normal;" figma:type="vector">
<use xlink:href="#path17_fill" transform="translate(113 -336.344)" fill="#5CF2E3" style="mix-blend-mode:normal;"/>
</g>
</g>
</g>
</g>
<defs>
<path id="path0_fill" d="M 62.1 9.0404C 60.9 10.1404 61.7 11.0404 62.4 12.1404C 67.6 20.7404 68 29.5404 62.8 38.1404C 57.6 46.7404 49.5 50.4404 39.5 49.6404C 29.5 48.8404 20.6 40.9404 18.7 31.2404C 20.8 31.0404 23.2 29.6404 24.1 33.0404C 25.2 39.2404 29.5 42.8404 34.8 45.1404C 44.3 49.3404 55.4 44.0404 59.2 36.4404C 60 34.8404 60.7 33.3404 60.5 31.4404C 61.8 25.8404 61.9 20.5404 58.8 15.3404C 55.3 9.5404 47.5 3.8404 36.5 6.5404C 35.6 6.7404 34.7 7.3404 33.7 6.8404C 33.9 4.4404 32.4 4.2404 30.5 4.3404C 21.4 4.3404 12.4 4.3404 3.3 4.3404C 2 4.4404 0 4.5404 0 2.9404C 0 0.740401 1.9 1.2404 3.2 1.2404C 15.1 1.1404 27 1.0404 38.9 1.0404C 40.9 -0.459599 42.9 -0.259599 44.8 1.1404C 48.7 2.1404 52.6 3.1404 55.9 5.5404C 57.5 6.7404 57.9 5.3404 58.5 4.3404C 61.1 4.8404 61.5 7.0404 62.1 9.0404Z"/>
<path id="path1_fill" d="M 1.59362 9.1065C 3.89362 7.3065 3.79362 6.80649 0.893619 5.50649C -0.106381 4.60649 -0.206381 3.50649 0.293619 2.20649C 2.79362 -0.593506 4.09362 -0.693506 6.99362 1.70649C 7.69362 2.90649 7.69362 4.20649 7.89362 5.50649C 8.99362 11.6065 14.1936 15.9065 20.1936 15.6065C 26.3936 15.3065 30.9936 10.8065 31.5936 4.50649C 31.6936 3.30649 31.3936 2.1065 32.0936 1.0065C 34.3936 0.206496 36.7936 -0.893505 38.7936 1.70649C 40.6936 13.9065 31.8936 22.5065 21.1936 23.5065C 13.2936 24.2065 7.09362 20.7065 2.69362 14.1065C 1.79362 12.5065 1.19362 10.9065 1.59362 9.1065Z"/>
<path id="path2_fill" d="M 6.50423 18.1661C 4.60423 16.5661 2.70423 16.2661 0.804227 18.1661C -0.795773 16.3661 0.304226 14.9661 1.40423 13.5661C 2.70423 13.2661 4.40423 14.0661 5.00423 12.1661C 5.40423 10.7661 4.40423 10.2661 3.20423 9.96615C 2.80423 6.86615 5.60423 5.86615 7.20423 4.06615C 8.30423 2.86615 9.90423 2.36615 11.4042 1.66615C 22.4042 -3.13385 35.5042 2.86615 38.3042 14.1661C 38.6042 15.3661 39.1042 16.4662 38.0042 17.5662C 36.7042 16.8661 35.2042 16.3661 33.9042 17.3661C 32.9042 18.0662 32.7042 17.1661 32.1042 16.7661C 31.6042 16.5661 31.2042 16.1661 31.0042 15.6661C 29.2042 11.3661 25.9042 8.86615 21.6042 7.46615C 20.3042 6.16615 19.0042 5.76615 17.6042 7.36615C 12.9042 8.86615 9.50423 11.5661 7.80423 16.3661C 7.70423 17.2661 7.30423 17.8661 6.50423 18.1661Z"/>
<path id="path3_fill" d="M 41.9 18.3181C 41.2 6.91813 29.4 -1.08187 18.1 2.21813C 17.1 2.51813 16 2.81813 15 3.21813C 14.3 3.51813 14.2 3.21813 14.3 2.61813C 14.5 2.41813 14.8 2.11813 15 1.91813C 27.4 -4.18187 43.2 5.01813 43.8 18.9181C 43.9 21.6181 43 24.3181 42.6 26.9181C 41 34.4181 35.8 38.5181 28.9 40.8181C 19.6 43.9181 8.7 38.7181 4.5 28.8181C 4.7 24.9181 1.7 26.7181 7.62939e-07 26.3181C 1.7 25.0181 3.5 25.8181 5.3 25.9181C 8.7 34.9181 15.6 39.8181 24.4 39.4181C 32.2 39.1181 39.3 33.5181 41.6 25.9181C 42.1 23.3181 42.1 20.8181 41.9 18.3181Z"/>
<path id="path4_fill" d="M -7.62939e-07 2.61547C 0.399999 0.81547 1.8 0.11547 3.4 0.11547C 9.2 0.0154701 15.1 -0.08453 20.9 0.11547C 23.5 0.21547 25.3 1.51547 24.1 4.61547C 21.4 5.81547 18.6 5.71547 15.8 5.71547C 12 5.81547 8.2 5.41547 4.4 5.51547C 2.3 5.61547 0.699999 4.81547 -7.62939e-07 2.61547Z"/>
<path id="path5_fill" d="M 0.684054 7.83296C -0.615946 5.93296 -0.0159464 5.03296 2.08405 5.03296C 4.78405 4.93296 7.48405 4.83296 10.1841 5.03296C 13.1841 5.23296 15.7841 4.83296 17.1841 1.83296C 17.4841 1.33296 18.0841 0.932962 18.5841 0.532962C 20.3841 0.132962 22.7841 -0.567039 23.6841 0.832961C 24.6841 2.33296 21.8841 3.13296 21.1841 4.53296C 19.3841 7.83296 16.5841 8.53296 12.9841 8.23296C 8.98405 7.73296 4.78405 8.33296 0.684054 7.83296Z"/>
<path id="path6_fill" d="M 0.163994 -9.53674e-08C 1.56399 1.6 3.26399 2.1 5.46399 2C 11.564 1.5 17.664 2.9 23.664 1.2C 24.164 1.1 24.264 1.7 24.364 2.1C 23.564 5.1 21.064 4.1 19.064 4.4C 17.664 4.6 15.664 3.4 15.164 5.9C 14.164 6.4 12.764 6.6 12.064 6C 9.164 3.6 5.664 4.7 2.564 4C 0.263996 3.5 -0.336006 2.1 0.163994 -9.53674e-08Z"/>
<path id="path7_fill" d="M 8.8 8.00564C 6.5 8.00564 4.3 8.10565 2 8.10565C 0.9 8.10565 -3.8147e-07 7.90565 -3.8147e-07 6.60565C -3.8147e-07 5.50565 0.8 4.70564 1.9 4.90564C 4.4 5.30564 4.9 4.10564 5.2 1.90564C 5.5 -0.994356 7.9 0.305644 9.5 0.205644C 9.8 2.80564 9.8 5.50564 8.8 8.00564Z"/>
<path id="path8_fill" d="M 0 7.98757C 4.7 7.98757 9.4 7.78756 14.1 7.88756C 16.1 7.88756 17.6 7.48757 18.7 5.68757C 19.8 3.98757 21.3 2.68757 23.2 0.687566C 21.2 0.687566 19.6 0.687566 18 0.687566C 20.6 -0.612434 23.3 0.387566 25.9 0.0875656C 26.1 0.287566 26.4 0.487566 26.6 0.687566C 23.5 2.78757 20.5 4.88757 18.7 8.28757C 14.3 8.38757 7.2 8.78757 2.8 8.58757C 1 8.48757 0.3 8.58757 0 7.98757Z"/>
<path id="path9_fill" d="M 4.64824 8.75241C 2.94824 7.55241 2.54824 5.45242 1.14824 4.05242C 0.0482424 3.25242 -0.351757 2.35242 0.348243 0.952416C 1.04824 -0.447584 2.04824 0.0524158 3.04824 0.252416C 3.34824 1.15242 3.04824 2.25242 3.84824 3.05242C 5.14824 5.35242 8.34824 5.95241 9.04824 8.75241C 7.54824 10.9524 6.04824 8.35242 4.64824 8.75241Z"/>
<path id="path10_fill" d="M 6 6.67048C 3.6 5.37048 1.6 3.57048 0 1.37048C 0.4 0.470477 0.800002 -0.229523 1.9 0.0704768C 3.1 1.27048 4.4 2.37048 5.6 3.67048C 6.5 4.47048 7.2 5.47048 6 6.67048Z"/>
<path id="path11_fill" d="M -1.52588e-06 0.148C 4.4 -0.352 8.6 0.448 12.6 2.048C 12.6 2.548 12.7 2.948 12.7 3.448C 10.7 3.448 8.7 3.348 6.8 3.348C 7.1 1.348 6.5 0.248 4.2 0.448C 2.8 0.548 1.4 0.748 -1.52588e-06 0.148Z"/>
<path id="path12_fill" d="M 0.0421883 7.8C 0.0421883 5.2 -0.257813 2.5 0.742187 -7.62939e-07C 1.24219 -7.62939e-07 1.74219 -7.62939e-07 2.24219 -7.62939e-07C 2.04219 1.5 1.84219 3.1 1.64219 4.6C 1.64219 5.7 1.54219 6.8 1.54219 7.9C 0.942188 7.8 0.542188 7.8 0.0421883 7.8Z"/>
<path id="path13_fill" d="M 3.15 1.8C 2.55 2.2 2.15 3.1 1.25 3.1C -0.450002 2.1 -0.35 1.1 1.15 -3.8147e-07C 2.05 0.3 2.65 0.9 3.15 1.8Z"/>
<path id="path14_fill" d="M 0.0254838 1.9C 2.52548 5.1 4.72548 8.7 8.52548 10.8C 20.4255 17.4 33.0255 12.8 38.2255 7.62939e-07C 38.9255 3.3 36.9255 5.7 35.1255 7.8C 25.2255 19.3 8.42548 18.3 0.525484 4.4C 0.125484 3.7 -0.0745162 2.8 0.0254838 1.9Z"/>
<path id="path15_fill" d="M 0.0406081 11.3C 1.54061 5.3 4.54061 0.9 11.2406 7.10543e-15C 13.3406 3.2 12.2406 6.7 12.0406 10.1C 12.0406 10.7 11.7406 11.4 11.5406 12C 11.3406 13.1 11.7406 14.1 12.8406 14.2C 14.2406 14.4 14.8406 13.3 14.6406 12.1C 14.2406 9.4 13.9406 6.7 14.1406 4C 14.2406 2.6 13.9406 1.1 15.1406 7.10543e-15C 20.9406 0.9 24.3406 4.4 25.7406 9.9C 27.4406 19.6 20.4406 25.1 13.9406 25.7C 7.84061 26.4 -0.659392 21.2 0.0406081 11.3Z"/>
<path id="path16_fill" d="M 5.17859 2.1C 5.37859 6.1 4.2786 10.1 6.0786 14C 6.6786 15.3 5.87859 16.5 4.77859 17.4C 3.67859 18.2 2.47859 18.1 1.47859 17.3C 0.278594 16.5 -0.421407 15.2 0.278593 13.9C 2.37859 10.1 1.07859 6 1.27859 2.1C 1.57859 1.1 1.87859 3.55271e-15 3.17859 3.55271e-15C 4.47859 7.10543e-15 4.77859 1.2 5.17859 2.1Z"/>
<path id="path17_fill" d="M 3 2.11314C 1.7 2.01314 0 2.31314 0 1.11314C 0 -0.586863 1.9 0.213137 2.9 0.213137C 3.9 0.113137 5.6 -0.486863 5.6 0.913137C 5.7 2.61314 3.8 1.81314 3 2.11314Z"/>
</defs>
</svg>
