<svg width="48" height="64" viewBox="0 0 48 64" fill="none" xmlns="http://www.w3.org/2000/svg">
<path d="M22.0639 41.3051C31.1886 41.3051 38.5857 33.908 38.5857 24.7833C38.5857 15.6585 31.1886 8.26141 22.0639 8.26141C12.9391 8.26141 5.54199 15.6585 5.54199 24.7833C5.54199 33.908 12.9391 41.3051 22.0639 41.3051Z" fill="#444583"/>
<path d="M21.7002 45.3902V51.0185" stroke="#7FCFCF" stroke-width="7" stroke-miterlimit="10" stroke-linecap="round"/>
<path d="M23.1533 4.08557C34.5915 4.08557 43.851 13.3451 43.851 24.7833C43.851 36.2215 34.5915 45.3902 23.1533 45.3902" stroke="#7FCFCF" stroke-width="7" stroke-miterlimit="10" stroke-linecap="round"/>
<path d="M3.54492 16.0684C7.44844 6.26426 18.6143 1.45295 28.5093 5.35647C38.4042 9.25999 43.1248 20.4259 39.2212 30.3208" stroke="#7FCFCF" stroke-width="7" stroke-miterlimit="10" stroke-linecap="round"/>
<path d="M32.8661 37.8555C40.4916 32.1364 42.1256 21.3337 36.4065 13.7082L8.71875 34.3151C14.4379 41.9406 25.2406 43.5746 32.8661 37.8555Z" fill="#282C66"/>
<path d="M22.0637 9.63118C30.597 9.63118 37.4962 16.5304 37.4962 25.0637C37.4962 33.597 30.597 40.4962 22.0637 40.4962C13.5304 40.4962 6.63118 33.597 6.63118 25.0637C6.63118 16.5304 13.5304 9.63118 22.0637 9.63118ZM22.0637 6C11.5333 6 3 14.5333 3 25.0637C3 35.5941 11.5333 44.1274 22.0637 44.1274C32.5941 44.1274 41.1274 35.5941 41.1274 25.0637C41.1274 14.5333 32.5941 6 22.0637 6Z" fill="#444583"/>
<path d="M22.0639 64C23.969 64 25.5135 62.4556 25.5135 60.5504C25.5135 58.6452 23.969 57.1008 22.0639 57.1008C20.1587 57.1008 18.6143 58.6452 18.6143 60.5504C18.6143 62.4556 20.1587 64 22.0639 64Z" fill="#7FCFCF"/>
<path d="M17.4649 32.4049C16.424 32.4049 15.5001 32.2369 14.6934 31.9009C13.8997 31.5649 13.2686 31.0997 12.8002 30.5052C12.3318 29.9108 12.0651 29.2388 12 28.4892H16.1572C16.2093 28.8123 16.3459 29.0514 16.5671 29.2065C16.8013 29.3615 17.0941 29.4391 17.4454 29.4391C17.6666 29.4391 17.8422 29.3938 17.9723 29.3034C18.1025 29.2 18.1675 29.0772 18.1675 28.9351C18.1675 28.6895 18.0309 28.5151 17.7577 28.4117C17.4844 28.3083 17.0225 28.192 16.3719 28.0628C15.5782 27.9077 14.9211 27.7397 14.4006 27.5588C13.8932 27.3778 13.4443 27.0677 13.0539 26.6283C12.6766 26.1889 12.4879 25.5815 12.4879 24.8062C12.4879 24.1342 12.6636 23.5268 13.0149 22.984C13.3792 22.4283 13.9127 21.9954 14.6153 21.6852C15.318 21.3622 16.1702 21.2006 17.1721 21.2006C18.6555 21.2006 19.8135 21.5625 20.6462 22.2862C21.492 23.0098 21.9995 23.9532 22.1686 25.1163H18.3237C18.2586 24.8191 18.122 24.5929 17.9138 24.4378C17.7056 24.2698 17.4259 24.1858 17.0745 24.1858C16.8533 24.1858 16.6842 24.2311 16.5671 24.3215C16.45 24.3991 16.3914 24.5218 16.3914 24.6898C16.3914 24.9095 16.5281 25.0775 16.8013 25.1938C17.0745 25.2972 17.5104 25.4071 18.109 25.5234C18.9027 25.6785 19.5728 25.8529 20.1193 26.0468C20.6658 26.2406 21.1407 26.5766 21.544 27.0548C21.9474 27.52 22.1491 28.1662 22.1491 28.9932C22.1491 29.6394 21.9604 30.2209 21.5831 30.7378C21.2057 31.2548 20.6593 31.6618 19.9436 31.9591C19.241 32.2563 18.4147 32.4049 17.4649 32.4049Z" fill="white"/>
<path fill-rule="evenodd" clip-rule="evenodd" d="M33 16V34H24.6354V16H33Z" fill="#FF5851"/>
</svg>
