<svg width="68" height="70" viewBox="0 0 68 70" version="1.1" xmlns="http://www.w3.org/2000/svg" xmlns:xlink="http://www.w3.org/1999/xlink" xmlns:figma="http://www.figma.com/figma/ns">
<title>Group</title>
<desc>Created using Figma</desc>
<g id="Canvas" transform="translate(-327 132)" figma:type="canvas">
<g id="Group" style="mix-blend-mode:normal;" figma:type="frame">
<g id="Group" style="mix-blend-mode:normal;" figma:type="frame">
<g id="Vector" style="mix-blend-mode:normal;" figma:type="vector">
<use xlink:href="#path0_fill" transform="translate(343.831 -98.8739)" fill="#26DCCE" style="mix-blend-mode:normal;"/>
</g>
<g id="Vector" style="mix-blend-mode:normal;" figma:type="vector">
<use xlink:href="#path1_fill" transform="translate(361.27 -114.199)" fill="#5E50B1" style="mix-blend-mode:normal;"/>
</g>
<g id="Vector" style="mix-blend-mode:normal;" figma:type="vector">
<use xlink:href="#path2_fill" transform="translate(327.419 -114.365)" fill="#5E50B1" style="mix-blend-mode:normal;"/>
</g>
<g id="Vector" style="mix-blend-mode:normal;" figma:type="vector">
<use xlink:href="#path3_fill" transform="translate(344.17 -131.024)" fill="#26DCCE" style="mix-blend-mode:normal;"/>
</g>
<g id="Vector" style="mix-blend-mode:normal;" figma:type="vector">
<use xlink:href="#path4_fill" transform="translate(344.166 -80.2989)" fill="#1CC4B4" style="mix-blend-mode:normal;"/>
</g>
<g id="Vector" style="mix-blend-mode:normal;" figma:type="vector">
<use xlink:href="#path5_fill" transform="translate(377.37 -95.7936)" fill="#4F46A3" style="mix-blend-mode:normal;"/>
</g>
<g id="Vector" style="mix-blend-mode:normal;" figma:type="vector">
<use xlink:href="#path6_fill" transform="translate(328.07 -95.9213)" fill="#5046A3" style="mix-blend-mode:normal;"/>
</g>
<g id="Vector" style="mix-blend-mode:normal;" figma:type="vector">
<use xlink:href="#path7_fill" transform="translate(341.859 -111.099)" fill="#8A7FE7" style="mix-blend-mode:normal;"/>
</g>
<g id="Vector" style="mix-blend-mode:normal;" figma:type="vector">
<use xlink:href="#path8_fill" transform="translate(352.889 -127.847)" fill="#68F7EA" style="mix-blend-mode:normal;"/>
</g>
<g id="Vector" style="mix-blend-mode:normal;" figma:type="vector">
<use xlink:href="#path9_fill" transform="translate(347.27 -117.808)" fill="#68F8EA" style="mix-blend-mode:normal;"/>
</g>
</g>
</g>
</g>
<defs>
<path id="path0_fill" d="M 33.6394 19.275C 33.4394 19.575 33.2394 19.775 33.0394 20.075C 28.4394 23.375 24.9394 27.775 20.9394 31.575C 16.9394 35.375 17.0394 35.475 13.2394 31.575C 8.93937 27.175 4.43938 22.975 0.239375 18.475C -0.0606245 18.075 -0.0606001 17.575 0.1394 17.075C 0.6394 15.775 1.7394 14.975 2.6394 13.975C 5.0394 11.475 5.13938 11.375 2.33938 9.27501C 0.839382 8.17501 0.139382 6.77499 0.339382 4.97499C 0.539382 3.07499 1.73939 1.87501 3.43939 1.27501C 5.83939 0.375006 7.73939 1.37501 8.93939 3.37501C 10.3394 5.77501 11.5394 5.17499 13.0394 3.57499C 14.2394 2.37499 15.1394 0.974994 16.6394 0.0749939C 16.9394 -0.0250061 17.2394 -0.0250061 17.5394 0.0749939C 19.4394 1.57499 21.0394 3.47501 22.7394 5.27501C 24.4394 6.97501 24.2394 8.67499 22.2394 9.97499C 21.5394 10.375 20.8394 10.775 20.3394 11.375C 19.4394 12.375 18.9394 13.575 20.0394 14.675C 21.1394 15.675 22.3394 15.375 23.3394 14.475C 23.3394 14.475 23.4394 14.375 23.5394 14.275C 27.5394 10.075 27.5394 10.075 31.6394 14.275C 32.5394 15.275 33.6394 16.075 34.0394 17.475C 34.2394 18.075 34.0394 18.675 33.6394 19.275Z"/>
<path id="path1_fill" d="M 16.1 32.6C 14.5 31 12.8 29.5 11.3 27.9C 9.79999 26.3 8.7 26.3 8 28.5C 7.8 29.1 7.50001 29.7 7.10001 30.3C 6.20001 31.7 4.89999 32.1 3.29999 31.9C 1.99999 31.7 1.10001 30.8 0.700012 29.5C 0.300012 27.9 0.800006 26.6 2.10001 25.7C 2.60001 25.3 3.29999 25 3.89999 24.8C 6.09999 24 6.30001 23 4.60001 21.2C 3.00001 19.5 0.5 18.4 5.68434e-14 15.7C 0.5 13.1 2.59999 11.8 4.39999 10.4C 5.99999 9.09999 7.29999 10.2 8.29999 11.6C 9.29999 12.9 10.1 14.6 12.2 14.3C 13.2 14.1 13.8 13.4 14 12.5C 14.3 10.4 12.6 9.60001 11.3 8.60001C 9.29999 7.20001 9.09999 5.49999 10.8 3.79999C 12.4 2.29999 13.4 -5.68434e-14 16.1 -5.68434e-14C 21.7 4 25.9 9.50001 30.9 14.1C 32.2 15.3 33.4 16.5 32.4 18.4C 27.6 22.2 23.7 26.9 19.2 31.1C 18.4 31.9 17.8 33.6 16.1 32.6Z"/>
<path id="path2_fill" d="M 32.951 15.8664C 32.051 18.7664 29.451 20.0664 27.551 22.0664C 26.751 22.9664 25.951 22.4664 25.451 21.4664C 25.051 20.6664 24.851 19.7664 24.351 19.0664C 23.451 17.7664 22.151 16.9664 20.551 17.3664C 19.051 17.7664 17.851 18.5664 17.551 20.2664C 17.251 21.9664 17.751 23.3664 19.351 24.2664C 20.051 24.6664 20.751 24.9664 21.451 25.2664C 22.851 25.8664 23.051 26.6664 21.951 27.7664C 20.251 29.3664 18.551 31.0664 16.851 32.6664C 15.251 33.6664 14.651 32.0664 13.951 31.3664C 10.351 27.8664 6.75101 24.2664 3.15101 20.6664C 2.35101 19.8664 1.75103 18.8664 0.551033 18.6664C -0.348967 17.5664 -0.0489857 16.4664 0.751014 15.6664C 6.05101 10.4664 10.951 4.76642 16.751 0.0664208C 18.551 -0.333579 19.451 1.16642 20.351 2.06642C 22.251 4.16642 23.551 4.76644 25.351 1.86644C 26.951 -0.633561 30.551 -0.433567 32.251 1.76643C 33.651 3.76643 33.351 6.36644 30.851 7.86644C 28.451 9.36644 28.651 10.5664 30.551 12.1664C 31.751 13.2664 33.051 14.1664 32.951 15.8664Z"/>
<path id="path3_fill" d="M 16.2 32.525C 14.6 31.025 13 29.425 11.3 27.925C 9.90001 26.625 10 25.725 11.8 24.925C 12 24.825 12.2 24.725 12.4 24.625C 14.3 23.825 15.8 22.725 15.5 20.425C 15.3 18.825 14.3 17.825 12.7 17.525C 10.2 17.125 9.00001 18.725 8.30001 20.725C 7.50001 23.025 6.40001 23.225 4.80001 21.325C 3.30001 19.625 1.59999 18.125 -6.10352e-06 16.625C 4.59999 10.725 10.4 5.925 15.6 0.524997C 16.3 -0.175003 17 -0.175003 17.6 0.524997C 22.7 5.925 28.6 10.625 33.1 16.725C 32.1 17.625 31.1 18.525 30.2 19.525C 29.2 20.725 27.3 21.425 27.3 23.025C 27.3 24.725 29.6 24.525 30.6 25.425C 31.9 26.525 32.7 27.825 32.3 29.525C 31.9 30.925 30.9 31.825 29.5 32.225C 27.7 32.625 26.4 31.825 25.5 30.425C 25.2 29.925 24.9 29.425 24.7 28.925C 23.8 26.425 22.6 26.825 21.1 28.425C 19.8 29.825 18.3 31.025 16.9 32.325C 16.9 32.525 16.5 32.525 16.2 32.525Z"/>
<path id="path4_fill" d="M 0.304064 -6.10352e-06C 4.90406 4.49999 9.60405 9.00001 14.1041 13.7C 16.0041 15.7 17.3041 15.9 19.3041 13.8C 22.8041 10 26.5041 6.49999 30.2041 2.89999C 30.8041 2.29999 31.2041 0.6 32.7041 1.6C 27.8041 6.6 23.0041 11.5 18.1041 16.5C 17.3041 17.3 16.6041 17.8 15.6041 16.7C 10.5041 11.3 4.80405 6.50001 0.104052 0.700006C -0.0959482 0.400006 0.00406402 0.0999939 0.304064 -6.10352e-06Z"/>
<path id="path5_fill" d="M 6.10352e-06 14.1947C 1.40001 14.0947 2.10001 13.0947 3.00001 12.2947C 6.30001 8.8947 9.60001 5.39468 13 2.09468C 13.9 1.19468 14.6 -0.405318 16.3 0.0946824C 11.3 5.89468 5.90001 11.2947 0.100012 16.2947C 0.100012 15.4947 6.10352e-06 14.8947 6.10352e-06 14.1947Z"/>
<path id="path6_fill" d="M 16.4 15.6224C 16.3 15.8224 16.3 16.1224 16.2 16.3224C 10.4 11.4224 5.19999 5.8224 -1.2207e-05 0.322404C 1.39999 -0.677596 1.70001 0.92241 2.30001 1.42241C 6.00001 5.02241 9.60001 8.7224 13.3 12.3224C 14.2 13.2224 14.9 14.3224 16.3 14.3224C 16.3 14.7224 16.4 15.1224 16.4 15.6224Z"/>
<path id="path7_fill" d="M 2.21106 6.10352e-06C 2.81106 6.10352e-06 3.11108 0.399994 3.11108 0.799994C 2.91108 1.99999 2.11107 2.80001 0.911067 3.00001C 0.511067 3.10001 -0.0889267 2.69999 0.0110733 2.19999C 0.311073 1.09999 1.21106 0.500006 2.21106 6.10352e-06Z"/>
<path id="path8_fill" d="M 0.881139 8.84841C 0.681139 8.74841 0.381127 8.64839 0.181127 8.44839C -0.118873 8.04839 -0.0188673 7.54841 0.281133 7.24841C 2.58113 4.94841 4.88113 2.64841 7.18113 0.348414C 7.48113 0.0484143 7.98114 -0.151598 8.38114 0.148402C 8.58114 0.348402 8.78113 0.748396 8.78113 1.0484C 8.78113 1.7484 1.78114 8.74841 0.881139 8.84841Z"/>
<path id="path9_fill" d="M 4.70001 1.00925C 3.60001 2.20925 2.69999 3.80924 0.899994 4.40924C 0.499994 4.50924 0.1 4.20926 0 3.70926C 0 2.90926 3.3 -0.190753 4 0.00924697C 4.5 0.00924697 4.70001 0.309247 4.70001 1.00925Z"/>
</defs>
</svg>
