<svg width="246" height="467" viewBox="0 0 246 467" fill="none" xmlns="http://www.w3.org/2000/svg">
<path d="M145.092 294H30.2681V278.642H145.092V294Z" fill="#333333"/>
<path d="M165.278 180.133C168.343 180.213 170.392 177.004 169.031 174.256L147.632 131.074C147.177 129.986 146.657 128.932 146.069 127.921L146.067 127.916V127.916C141.654 120.325 133.636 115.055 124.262 114.527L63.6426 111.12L63.623 111.093L63.1727 111.101L63.0748 111.097C63.0091 111.097 62.9453 111.107 62.8796 111.107L52.8356 111.298C35.2847 111.632 19.4659 122.996 14.6156 139.866C14.4199 140.546 14.2418 141.234 14.0807 141.931L1.51083 184.58C0.647842 187.508 2.7493 190.47 5.79742 190.624L35.9946 192.147L26.2752 272.825C25.8938 275.986 28.3626 278.77 31.547 278.77H145.943C148.531 278.77 150.618 276.652 150.58 274.065L150.538 179.715L165.278 180.133" fill="#26DCCE"/>
<path d="M63.0634 111.413L62.9958 111.418L62.8828 111.423L52.8419 111.614C35.2145 111.949 19.6198 123.603 14.9188 139.953C14.7258 140.625 14.5477 141.314 14.3883 142.002L1.8135 184.67C1.42982 185.972 1.66003 187.353 2.44508 188.46C3.22957 189.567 4.45773 190.241 5.81291 190.309L36.011 191.832C36.0981 191.835 36.1796 191.876 36.2364 191.943C36.2927 192.01 36.3186 192.097 36.3078 192.184L26.5884 272.862C26.4173 274.28 26.8626 275.705 27.8099 276.773C28.7567 277.841 30.1196 278.454 31.547 278.454H145.943C147.109 278.454 148.203 277.996 149.021 277.166C149.84 276.335 150.281 275.236 150.264 274.07L150.222 179.715C150.222 179.63 150.256 179.548 150.317 179.489C150.379 179.429 150.456 179.396 150.547 179.4L165.286 179.817C166.616 179.873 167.833 179.204 168.548 178.085C169.263 176.965 169.337 175.587 168.748 174.397L147.349 131.215C146.888 130.115 146.369 129.067 145.796 128.08C141.271 120.294 133.214 115.347 124.244 114.843L63.6242 111.435L63.5188 111.411L63.1783 111.417L63.0634 111.413ZM145.943 279.085H31.547C29.9383 279.085 28.4042 278.395 27.3369 277.192C26.2708 275.989 25.7693 274.383 25.9619 272.787L35.6409 192.445L5.78083 190.939C4.2315 190.861 2.82744 190.091 1.93015 188.825C1.03211 187.56 0.768872 185.98 1.20807 184.491L13.7777 141.841C13.9346 141.161 14.116 140.461 14.3118 139.779C19.0889 123.164 34.9278 111.323 52.8299 110.983L62.951 110.787L63.0748 110.782L63.184 110.786L63.6173 110.777L63.7651 110.811L124.279 114.212C133.462 114.728 141.709 119.792 146.34 127.757C146.929 128.773 147.461 129.847 147.923 130.952L169.314 174.117C170.003 175.507 169.915 177.118 169.08 178.425C168.245 179.732 166.807 180.5 165.27 180.449H165.269L150.853 180.041L150.896 274.066C150.915 275.397 150.409 276.657 149.471 277.609C148.533 278.561 147.28 279.085 145.943 279.085" fill="#0A0B0B"/>
<path d="M183.444 141.059C187.149 134.267 188.412 126.059 185.081 118.856L180.817 120.411C180.817 120.411 176.734 108.651 176.075 100.063C174.436 97.142 162.578 103.304 162.578 103.304C162.578 103.304 163.755 100.098 164.343 98.4955C164.967 96.7965 165.601 94.9858 165.228 93.2149C164.855 91.4439 163.038 89.8517 161.318 90.4144C159.624 90.9683 156.418 97.9846 155.408 99.6355C149.325 109.575 149.399 122.577 150.468 133.815C151.038 139.804 148.328 201.474 149.361 204.213C155.605 220.745 178.872 221.08 185.585 204.733C186.438 201.517 186.927 198.228 187.052 194.93C187.22 190.47 179.831 150.583 179.717 149.23C179.556 147.332 180.456 145.662 181.496 144.073C182.168 143.048 182.9 142.057 183.444 141.059Z" fill="#F5E9D7"/>
<path d="M162.041 90.6147C161.841 90.6147 161.632 90.6444 161.415 90.7145C160.261 91.0928 157.993 95.4362 156.775 97.7692C156.303 98.6724 155.931 99.3861 155.677 99.801C149.442 109.988 149.786 123.314 150.782 133.785C151.04 136.499 150.632 150.478 150.2 165.279C149.689 182.797 149.11 202.653 149.657 204.101C152.499 211.626 159.26 216.372 167.304 216.487C175.351 216.573 182.238 212.051 185.292 204.613C186.122 201.476 186.612 198.202 186.736 194.918C186.858 191.676 182.89 169.201 180.757 157.126C179.96 152.612 179.434 149.63 179.402 149.256C179.233 147.262 180.182 145.503 181.232 143.9C181.436 143.589 181.645 143.281 181.853 142.975C182.337 142.263 182.794 141.591 183.167 140.909C187.158 133.591 187.79 125.717 184.914 119.254L180.925 120.708C180.846 120.736 180.758 120.733 180.681 120.696C180.605 120.66 180.546 120.594 180.518 120.515C180.478 120.397 176.439 108.686 175.766 100.162C174.567 98.3421 167.159 101.28 162.723 103.584C162.609 103.644 162.466 103.628 162.369 103.541C162.271 103.455 162.236 103.318 162.281 103.195L164.047 98.3869C164.598 96.885 165.285 95.0156 164.919 93.28C164.722 92.3452 164.063 91.4345 163.242 90.9602C162.941 90.7865 162.522 90.6147 162.041 90.6147V90.6147ZM167.602 217.121C167.499 217.121 167.398 217.12 167.295 217.119C158.987 217 152.002 212.097 149.066 204.325C148.516 202.868 148.909 187.912 149.569 165.26C150.001 150.48 150.408 136.52 150.153 133.845C149.147 123.276 148.806 109.818 155.138 99.4707C155.381 99.0747 155.767 98.3339 156.215 97.4774C158.115 93.8383 159.927 90.537 161.219 90.1145C161.967 89.8682 162.799 89.9756 163.558 90.4132C164.542 90.9817 165.301 92.0301 165.537 93.1499C165.94 95.0623 165.22 97.0265 164.641 98.6048L163.151 102.659C165.932 101.276 174.801 97.144 176.351 99.909L176.39 100.039C176.98 107.726 180.374 118.105 181.012 120.004L184.973 118.56C185.125 118.504 185.299 118.575 185.368 118.724C188.465 125.42 187.865 133.616 183.721 141.211C183.334 141.92 182.847 142.637 182.375 143.331C182.17 143.633 181.962 143.938 181.76 144.246C180.618 145.99 179.887 147.5 180.031 149.203C180.06 149.548 180.613 152.681 181.379 157.017C183.515 169.114 187.492 191.633 187.367 194.941C187.242 198.272 186.745 201.594 185.89 204.814C182.76 212.441 175.776 217.121 167.602 217.121" fill="#0A0B0B"/>
<path d="M160.225 109.894L171.263 120.895L179.511 104.873L177.752 97.5931L162.762 103.16L160.225 109.894Z" fill="#0A0B0B"/>
<path d="M177.739 126.504C174.785 127.014 171.978 125.034 171.468 122.081L166.483 93.2041C165.973 90.2509 167.954 87.4435 170.907 86.9338C173.86 86.4241 176.668 88.4047 177.177 91.358L182.163 120.234C182.672 123.188 180.692 125.994 177.739 126.504Z" fill="#5E50B1"/>
<path d="M171.841 87.1695C171.548 87.1695 171.255 87.1948 170.961 87.2453C169.616 87.4777 168.441 88.2198 167.654 89.3346C166.867 90.4506 166.562 91.8059 166.795 93.1506L171.779 122.027C172.011 123.372 172.753 124.546 173.869 125.333C174.985 126.12 176.338 126.426 177.685 126.194C180.462 125.714 182.331 123.065 181.851 120.288L176.866 91.4118C176.634 90.0666 175.892 88.8925 174.777 88.1055C173.905 87.4904 172.886 87.1695 171.841 87.1695V87.1695ZM176.803 126.901C175.628 126.901 174.485 126.54 173.505 125.849C172.252 124.965 171.418 123.646 171.156 122.134L166.172 93.2579C165.91 91.7466 166.254 90.2245 167.139 88.9708C168.022 87.7177 169.342 86.884 170.854 86.6226C172.364 86.3617 173.887 86.7053 175.141 87.5895C176.394 88.4737 177.228 89.7931 177.488 91.3045L182.474 120.181C183.012 123.301 180.912 126.278 177.792 126.816C177.463 126.872 177.131 126.901 176.803 126.901" fill="#0A0B0B"/>
<path d="M176.887 91.4736L166.882 93.201C164.786 93.5622 162.795 92.157 162.433 90.0614L162.048 87.8313C161.686 85.7363 163.092 83.7443 165.187 83.3824L175.192 81.6551C177.287 81.2938 179.278 82.6991 179.641 84.794L180.025 87.0247C180.387 89.1197 178.982 91.1117 176.887 91.4736" fill="#FEF7EE"/>
<path d="M176.887 91.4735H176.893H176.887ZM175.849 81.9146C175.649 81.9146 175.449 81.9316 175.246 81.9664L165.24 83.6937C163.32 84.0253 162.027 85.8575 162.359 87.7775L162.744 90.0076C163.076 91.9276 164.907 93.2192 166.828 92.8889L176.833 91.1622C178.753 90.8306 180.046 88.9984 179.714 87.0784L179.33 84.8476C179.033 83.1304 177.535 81.9146 175.849 81.9146V81.9146ZM166.225 93.5723C164.236 93.5723 162.471 92.1398 162.121 90.115L161.736 87.8849C161.346 85.6213 162.87 83.462 165.133 83.071L175.138 81.3443C177.402 80.9533 179.561 82.4773 179.952 84.7409L180.337 86.971C180.727 89.2346 179.203 91.3939 176.94 91.7843L166.935 93.5116C166.697 93.5527 166.459 93.5723 166.225 93.5723" fill="#0A0B0B"/>
<path d="M149.84 78.1251L146.926 78.6278C145.501 78.8741 144.147 77.9186 143.902 76.4943L143.809 75.9575C143.564 74.5339 144.518 73.1798 145.942 72.9341L148.857 72.4308L149.84 78.1251" fill="#F5E9D7"/>
<path d="M148.6 72.796L145.996 73.2456C144.747 73.4616 143.905 74.6541 144.12 75.9046L144.213 76.4408C144.318 77.0465 144.651 77.5751 145.154 77.9294C145.656 78.2844 146.267 78.4221 146.872 78.3172L149.475 77.8675L148.6 72.796ZM146.474 78.9829C145.875 78.9829 145.29 78.7985 144.79 78.4454C144.149 77.9939 143.724 77.32 143.591 76.5482L143.498 76.012C143.223 74.4185 144.296 72.8983 145.889 72.6229L148.804 72.1202C148.885 72.1056 148.971 72.1252 149.04 72.1732C149.108 72.2212 149.154 72.2945 149.169 72.3772L150.152 78.0715C150.166 78.1537 150.147 78.2389 150.098 78.3071C150.05 78.3753 149.977 78.4221 149.894 78.4366L146.979 78.9393C146.811 78.9684 146.642 78.9829 146.474 78.9829" fill="#0A0B0B"/>
<path d="M179.746 85.408L164.458 88.0473C156.988 89.3364 149.888 84.3267 148.598 76.8576L148.112 74.0414C146.823 66.5724 151.832 59.4716 159.302 58.1825L174.591 55.5431L179.746 85.408" fill="#5E50B1"/>
<path d="M174.333 55.908L159.356 58.4931C152.07 59.7512 147.166 66.7017 148.424 73.9876L148.909 76.8038C150.168 84.0891 157.116 88.9933 164.405 87.7358L179.381 85.1501L174.333 55.908ZM162.116 88.5645C155.413 88.5645 149.465 83.736 148.287 76.9112L147.801 74.095C146.485 66.4661 151.62 59.1878 159.248 57.871L174.537 55.2316C174.706 55.2032 174.872 55.3169 174.902 55.4893L180.058 85.3541C180.072 85.4369 180.053 85.5215 180.004 85.5897C179.956 85.6586 179.883 85.7047 179.8 85.7192L164.512 88.3586C163.707 88.4975 162.907 88.5645 162.116 88.5645" fill="#0A0B0B"/>
<path d="M174.591 55.543L179.746 85.4079C191.582 83.3647 203.779 85.118 214.684 90.4308L238.821 102.19L224.619 19.9258L205.822 39.0967C197.33 47.7582 186.427 53.4999 174.591 55.543Z" fill="#F5E9D7"/>
<path d="M174.591 55.543L174.279 55.5967L179.435 85.4616C179.449 85.5437 179.496 85.6182 179.564 85.6662C179.632 85.7142 179.718 85.7331 179.8 85.7192C182.994 85.1679 186.215 84.8944 189.429 84.8944C198.059 84.8944 206.643 86.8649 214.546 90.715L238.683 102.474C238.789 102.526 238.916 102.514 239.011 102.443C239.106 102.371 239.153 102.253 239.132 102.136L224.93 19.8721C224.91 19.7546 224.826 19.6599 224.713 19.6245C224.6 19.5885 224.477 19.6195 224.394 19.7047L205.597 38.8757C197.149 47.4904 186.307 53.1999 174.537 55.2317C174.365 55.2614 174.25 55.4249 174.279 55.5967L174.591 55.543L174.644 55.8544C186.546 53.7993 197.509 48.026 206.048 39.3178L224.413 20.5871L238.405 101.636L214.822 90.1472C206.834 86.2555 198.155 84.2628 189.429 84.2628C186.179 84.2628 182.922 84.5395 179.693 85.0965L179.746 85.4079L180.057 85.3542L174.901 55.4894L174.591 55.543L174.644 55.8544L174.591 55.543" fill="#0A0B0B"/>
<path d="M242.649 59.1716C246.59 81.9982 245.293 101.278 239.754 102.235C234.215 103.191 226.53 85.4611 222.589 62.6346C218.648 39.8074 219.944 20.5272 225.484 19.571C231.023 18.6148 238.708 36.3445 242.649 59.1716" fill="#FEF7EE"/>
<path d="M242.649 59.1716L242.338 59.2252C243.875 68.128 244.613 76.4894 244.613 83.4217C244.614 88.8261 244.163 93.364 243.302 96.5951C242.873 98.2101 242.339 99.4972 241.726 100.396C241.109 101.298 240.433 101.797 239.7 101.923C239.575 101.945 239.449 101.955 239.321 101.955C238.719 101.956 238.063 101.717 237.362 101.222C236.136 100.36 234.804 98.7242 233.471 96.4536C229.463 89.6383 225.413 77.1457 222.9 62.5802C221.364 53.6774 220.625 45.3147 220.625 38.3825C220.625 32.9781 221.075 28.4408 221.936 25.2097C222.365 23.5947 222.899 22.3075 223.512 21.4088C224.129 20.5075 224.805 20.0086 225.538 19.8823C225.663 19.8608 225.789 19.8501 225.917 19.8501C226.519 19.8494 227.175 20.0888 227.876 20.5833C229.102 21.4454 230.434 23.0812 231.767 25.3518C235.775 32.1671 239.825 44.6598 242.338 59.2252L242.649 59.1716L242.96 59.1179C241.037 47.9787 238.225 38.0515 235.197 30.8907C233.682 27.3096 232.114 24.4202 230.562 22.4073C229.785 21.4012 229.012 20.6124 228.24 20.0673C227.469 19.5236 226.69 19.2191 225.917 19.2185C225.754 19.2185 225.591 19.2324 225.43 19.2602C224.475 19.425 223.661 20.068 222.991 21.0532C221.983 22.5362 221.245 24.8237 220.745 27.7656C220.247 30.7069 219.994 34.3025 219.994 38.3825C219.994 45.3589 220.736 53.7526 222.278 62.6882C224.201 73.8267 227.013 83.7539 230.041 90.9147C231.556 94.4958 233.124 97.3852 234.676 99.3981C235.453 100.404 236.226 101.193 236.998 101.738C237.769 102.282 238.548 102.587 239.321 102.587C239.484 102.587 239.647 102.573 239.808 102.545C240.763 102.38 241.577 101.737 242.247 100.752C243.255 99.2692 243.992 96.9816 244.493 94.0391C244.992 91.0972 245.245 87.5017 245.245 83.4217C245.245 76.4452 244.503 68.0522 242.96 59.1179L242.649 59.1716" fill="#0A0B0B"/>
<path d="M240.68 58.7219C243.847 77.0674 242.805 92.5625 238.354 93.3311C233.902 94.0998 227.725 79.8507 224.558 61.5046C221.391 43.1592 222.433 27.664 226.884 26.896C231.336 26.1267 237.513 40.3758 240.68 58.7219Z" fill="#F5E9D7"/>
<path d="M215.44 55.7176L226.143 53.8702C230.515 53.1148 234.67 56.0473 235.425 60.4184C236.18 64.7902 233.248 68.9454 228.876 69.7001L218.173 71.5481L215.44 55.7176" fill="#5E50B1"/>
<path d="M215.44 55.7175L215.494 56.0288L226.197 54.1808C226.642 54.1044 227.084 54.0671 227.519 54.0671C231.203 54.0671 234.466 56.7166 235.114 60.472C235.191 60.9166 235.227 61.3587 235.227 61.7945C235.227 65.4791 232.578 68.7413 228.822 69.3886L218.43 71.1829L215.751 55.6638L215.44 55.7175L215.494 56.0288L215.44 55.7175L215.129 55.7711L217.862 71.6017C217.892 71.7735 218.055 71.889 218.227 71.8594L228.93 70.0114C232.993 69.309 235.859 65.7829 235.859 61.7945C235.859 61.3227 235.819 60.8453 235.736 60.3646C235.034 56.3023 231.508 53.4356 227.519 53.4356C227.048 53.4356 226.57 53.476 226.09 53.5587L215.386 55.4061C215.214 55.4358 215.099 55.5994 215.129 55.7711L215.44 55.7175" fill="#0A0B0B"/>
<path d="M240.68 58.7218L240.368 58.7755C241.604 65.9275 242.197 72.645 242.197 78.2123C242.197 82.5519 241.835 86.1948 241.145 88.783C240.801 90.0771 240.374 91.1054 239.886 91.819C239.397 92.5353 238.866 92.9224 238.3 93.0197C238.203 93.0367 238.105 93.0449 238.005 93.0449C237.538 93.0456 237.023 92.8593 236.466 92.467C235.493 91.783 234.426 90.4744 233.357 88.6536C230.142 83.1879 226.887 73.1515 224.869 61.4508C223.634 54.2988 223.041 47.5814 223.041 42.014C223.041 37.6744 223.403 34.0315 224.093 31.4433C224.437 30.1498 224.864 29.1209 225.351 28.4079C225.841 27.6911 226.371 27.3045 226.938 27.2066C227.035 27.1902 227.133 27.182 227.233 27.182C227.7 27.1814 228.215 27.3671 228.771 27.7599C229.745 28.4439 230.813 29.7525 231.881 31.5728C235.095 37.0384 238.35 47.0755 240.368 58.7755L240.68 58.7218L240.991 58.6681C239.444 49.7117 237.184 41.7298 234.748 35.9692C233.529 33.0873 232.268 30.7618 231.015 29.1374C230.388 28.3252 229.763 27.6873 229.135 27.2439C228.509 26.8012 227.871 26.5504 227.233 26.5504C227.098 26.5504 226.964 26.5618 226.83 26.5846C226.042 26.721 225.373 27.2515 224.83 28.0517C224.01 29.2568 223.418 31.1016 223.015 33.4713C222.613 35.8403 222.41 38.7323 222.409 42.014C222.41 47.6256 223.006 54.374 224.247 61.5588C225.793 70.5146 228.054 78.4965 230.49 84.2578C231.709 87.139 232.97 89.4645 234.223 91.0896C234.85 91.9018 235.475 92.5397 236.103 92.983C236.729 93.4251 237.367 93.6759 238.005 93.6765C238.14 93.6765 238.274 93.6651 238.407 93.6424C239.196 93.506 239.864 92.9755 240.408 92.1746C241.227 90.9696 241.82 89.1247 242.223 86.7557C242.624 84.3866 242.828 81.494 242.828 78.2123C242.828 72.6007 242.232 65.8523 240.991 58.6681L240.68 58.7218" fill="#0A0B0B"/>
<path d="M177.752 54.9045L182.756 84.9714Z" fill="#F5E9D7"/>
<path d="M182.755 85.2874C182.604 85.2874 182.47 85.1781 182.444 85.0233L177.44 54.9564C177.411 54.784 177.528 54.6216 177.699 54.5932C177.869 54.5629 178.034 54.6804 178.063 54.8528L183.068 84.9198C183.096 85.0922 182.98 85.2545 182.808 85.2829L182.755 85.2874" fill="#0A0B0B"/>
<path d="M188.819 102.857L188.857 102.979C189.466 104.895 188.396 106.961 186.481 107.569L175.577 111.031C173.662 111.64 171.596 110.57 170.988 108.655L170.949 108.532C170.341 106.616 171.41 104.551 173.326 103.943L184.229 100.48C186.145 99.8718 188.21 100.942 188.819 102.857" fill="#F5E9D7"/>
<path d="M185.333 100.624C184.999 100.624 184.66 100.675 184.325 100.781L173.422 104.244C171.667 104.801 170.693 106.682 171.25 108.437L171.289 108.558C171.557 109.405 172.143 110.098 172.937 110.509C173.732 110.921 174.636 110.999 175.482 110.73L186.385 107.267C188.14 106.71 189.114 104.83 188.557 103.075L188.518 102.953C188.067 101.533 186.749 100.624 185.333 100.624ZM174.474 111.519C173.847 111.519 173.223 111.368 172.647 111.07C171.702 110.581 171.006 109.757 170.687 108.75L170.648 108.628C169.986 106.541 171.144 104.305 173.23 103.642L184.134 100.179C186.222 99.5161 188.457 100.675 189.12 102.762L189.159 102.884C189.821 104.97 188.663 107.207 186.576 107.87L175.673 111.332C175.28 111.457 174.877 111.519 174.474 111.519Z" fill="#0A0B0B"/>
<path d="M186.666 95.4936L186.705 95.6162C187.314 97.5317 186.244 99.597 184.328 100.205L173.425 103.668C171.509 104.277 169.444 103.207 168.836 101.292L168.797 101.169C168.188 99.2534 169.258 97.1882 171.174 96.58L182.077 93.117C183.993 92.5088 186.058 93.5781 186.666 95.4936Z" fill="#F5E9D7"/>
<path d="M183.181 93.261C182.847 93.261 182.508 93.3116 182.173 93.4177L171.27 96.8806C170.424 97.149 169.731 97.7351 169.32 98.5297C168.908 99.3236 168.829 100.227 169.098 101.073L169.137 101.196C169.405 102.042 169.991 102.735 170.785 103.146C171.581 103.558 172.485 103.636 173.33 103.368L184.232 99.9046C185.079 99.6356 185.772 99.0501 186.183 98.2555C186.595 97.4617 186.673 96.5579 186.404 95.7115L186.365 95.5897C185.914 94.1699 184.597 93.261 183.181 93.261V93.261ZM172.323 104.156C171.695 104.156 171.071 104.005 170.495 103.707C169.551 103.218 168.855 102.394 168.535 101.387L168.496 101.264C168.176 100.258 168.269 99.1833 168.759 98.2391C169.248 97.2943 170.071 96.5983 171.079 96.2787L181.981 92.8158C184.068 92.1526 186.305 93.3122 186.967 95.3983L187.006 95.5202C187.327 96.5275 187.233 97.6019 186.744 98.5461C186.255 99.4909 185.431 100.187 184.424 100.506L173.521 103.969C173.128 104.094 172.725 104.156 172.323 104.156" fill="#0A0B0B"/>
<path d="M188.857 110.409L188.867 110.441C189.469 112.333 188.412 114.373 186.52 114.973L179.082 117.336C177.191 117.937 175.151 116.88 174.551 114.989L174.541 114.955C173.939 113.064 174.995 111.024 176.888 110.424L184.324 108.061C186.217 107.461 188.256 108.517 188.857 110.409" fill="#F5E9D7"/>
<path d="M185.413 108.208C185.08 108.208 184.746 108.259 184.42 108.363L176.984 110.724C175.253 111.274 174.292 113.129 174.841 114.86C175.402 116.623 177.257 117.584 178.988 117.035L186.425 114.673C187.26 114.408 187.943 113.83 188.349 113.047C188.755 112.263 188.832 111.372 188.567 110.537L188.556 110.504C188.291 109.669 187.714 108.987 186.93 108.581C186.452 108.333 185.934 108.208 185.413 108.208V108.208ZM177.993 117.821C176.329 117.821 174.78 116.753 174.25 115.084C173.585 112.988 174.73 110.777 176.792 110.122L184.229 107.761C185.225 107.444 186.288 107.537 187.22 108.02C188.154 108.504 188.842 109.318 189.158 110.313L189.169 110.345C189.485 111.341 189.393 112.404 188.91 113.337C188.426 114.271 187.612 114.958 186.617 115.275L179.179 117.637C178.785 117.762 178.386 117.821 177.993 117.821" fill="#0A0B0B"/>
<path d="M190.889 117.391L190.928 117.514C191.537 119.429 190.467 121.495 188.551 122.103L184.869 123.272C182.953 123.881 180.887 122.811 180.279 120.895L180.241 120.773C179.632 118.857 180.702 116.792 182.618 116.184L186.299 115.015C188.216 114.406 190.28 115.476 190.889 117.391" fill="#F5E9D7"/>
<path d="M187.404 115.159C187.069 115.159 186.73 115.209 186.395 115.315L182.713 116.485C181.867 116.753 181.174 117.339 180.763 118.133C180.351 118.928 180.273 119.832 180.541 120.677L180.581 120.8C180.849 121.646 181.435 122.338 182.229 122.75C183.025 123.162 183.929 123.24 184.774 122.971L188.456 121.802C189.302 121.533 189.994 120.948 190.406 120.153C190.817 119.359 190.896 118.455 190.627 117.609L190.589 117.487C190.138 116.067 188.82 115.159 187.404 115.159ZM183.766 123.76C183.139 123.76 182.515 123.609 181.939 123.311C180.994 122.821 180.298 121.998 179.979 120.991L179.94 120.869C179.62 119.862 179.713 118.787 180.202 117.843C180.692 116.899 181.515 116.203 182.522 115.883L186.204 114.713C188.291 114.05 190.527 115.209 191.191 117.296L191.191 117.297L191.229 117.419C191.549 118.425 191.456 119.499 190.966 120.444C190.477 121.388 189.654 122.084 188.647 122.404L184.964 123.573C184.572 123.698 184.169 123.76 183.766 123.76" fill="#0A0B0B"/>
<path d="M162.411 103.925C162.411 103.925 163.755 100.099 164.343 98.4956C164.967 96.7967 165.601 94.9859 165.227 93.215C164.855 91.444 163.038 89.8518 161.317 90.4146C159.624 90.9685 156.418 97.9847 155.408 99.6356" fill="#F5E9D7"/>
<path d="M162.709 104.029L162.114 103.82C162.114 103.82 163.458 99.991 164.047 98.3868C164.598 96.8849 165.285 95.0154 164.919 93.2798C164.722 92.3451 164.063 91.4343 163.242 90.96C162.817 90.7143 162.156 90.4737 161.415 90.7143C160.261 91.0927 157.993 95.436 156.775 97.7691C156.303 98.6722 155.931 99.3859 155.677 99.8009C155.585 99.9499 155.389 99.9941 155.243 99.9051C155.094 99.8141 155.047 99.6196 155.138 99.4705C155.381 99.0745 155.767 98.3337 156.215 97.4773C158.115 93.8381 159.927 90.5369 161.219 90.1143C161.967 89.868 162.799 89.9754 163.558 90.4131C164.542 90.9815 165.301 92.0299 165.537 93.1497C165.94 95.0621 165.22 97.0263 164.641 98.6047C164.051 100.206 162.709 104.029 162.709 104.029" fill="#0A0B0B"/>
<path d="M159.423 114.457H159.42C159.245 114.455 159.106 114.313 159.108 114.138C159.147 110.664 162.001 104.077 162.122 103.799C162.193 103.638 162.379 103.567 162.538 103.635C162.698 103.705 162.771 103.891 162.701 104.051C162.672 104.118 159.777 110.799 159.739 114.145C159.737 114.318 159.596 114.457 159.423 114.457" fill="#0A0B0B"/>
<path d="M137.607 31.9466C137.755 31.7451 137.885 31.5335 137.975 31.2979C139.679 29.371 140.811 26.9097 141.068 24.151C141.71 17.2257 136.616 11.09 129.691 10.4476C129.106 10.3933 128.531 10.3946 127.961 10.4199C121.854 5.14554 117.595 -0.559511 106.887 0.818594C102.76 1.34975 98.9245 3.47691 96.5763 6.91333C96.2497 7.39143 95.963 7.90488 95.7015 8.43415C95.4912 8.85983 90.0306 9.47184 89.3043 9.67331C84.2011 11.0855 77.6738 13.1874 75.1279 18.2413C74.0018 20.4765 73.6462 22.9958 73.5527 25.5139C69.7045 28.5695 68.1375 33.9752 69.6906 38.868L73.7024 51.5066C74.5424 51.2956 75.4165 51.1712 76.3203 51.1712H81.4361C81.7493 51.7049 82.0626 52.2411 82.3702 52.7855C83.9586 55.5923 84.9868 58.5758 84.8643 61.8398C91.482 52.5866 123.154 54.9998 130.184 54.9998C137.213 54.9998 142.912 49.3011 142.912 42.2716C142.912 38.0154 140.815 34.2575 137.607 31.9466" fill="#0A0B0B"/>
<path d="M76.3203 50.8555H81.4361C81.5478 50.8555 81.6514 50.9143 81.7083 51.0115C82.0222 51.5465 82.3361 52.0846 82.6455 52.6303C84.2782 55.5172 85.1144 58.2456 85.1851 60.9412C91.8982 53.5296 114.98 54.2427 126.25 54.5907C127.934 54.6431 129.264 54.6842 130.184 54.6842C137.028 54.6842 142.596 49.1155 142.596 42.2718C142.596 38.3004 140.662 34.5368 137.423 32.2031C137.355 32.1539 137.309 32.0793 137.295 31.996C137.282 31.9132 137.303 31.828 137.353 31.7604C137.506 31.5501 137.611 31.3675 137.68 31.185L137.738 31.089C139.469 29.1318 140.512 26.7229 140.753 24.1214C141.056 20.8562 140.069 17.6686 137.974 15.1448C135.879 12.6216 132.927 11.0654 129.662 10.7623C129.155 10.7156 128.619 10.7073 127.975 10.7351C127.892 10.7427 127.817 10.7118 127.754 10.6587C126.894 9.91597 126.065 9.15933 125.263 8.42733C120.285 3.88754 115.989 -0.0351821 106.928 1.13198C102.734 1.67198 99.0565 3.84397 96.8371 7.09155C96.5466 7.51597 96.2681 8.00103 95.9851 8.57388C95.8215 8.90545 95.1457 9.10061 91.2401 9.67661C90.4007 9.8004 89.6074 9.91724 89.3883 9.97787C83.5083 11.6055 77.7445 13.7497 75.4095 18.3835C74.4691 20.2505 73.9796 22.5198 73.8685 25.5254C73.8647 25.6183 73.8217 25.7042 73.7491 25.761C69.9811 28.7534 68.471 33.9816 69.9912 38.7728L73.9146 51.1315C74.7293 50.9484 75.5377 50.8555 76.3203 50.8555V50.8555ZM84.8643 62.1558L84.7626 62.1387C84.6306 62.0939 84.5434 61.9675 84.5485 61.828C84.6565 58.9555 83.8537 56.0484 82.0948 52.941C81.8182 52.4515 81.5371 51.9678 81.2548 51.4871H76.3203C75.4961 51.4871 74.6422 51.5964 73.7794 51.813C73.6171 51.8534 73.4523 51.7612 73.4017 51.6021L69.3893 38.9635C67.8053 33.9728 69.354 28.5255 73.2426 25.3581C73.3222 23.4109 73.5862 20.5998 74.8462 18.0993C77.291 13.2463 83.1994 11.0351 89.2196 9.36902C89.4767 9.29765 90.2144 9.18901 91.1478 9.05132C92.5133 8.85048 95.0276 8.47911 95.4432 8.24479C95.7312 7.66627 96.0167 7.17239 96.3154 6.73471C98.6365 3.33934 102.475 1.06882 106.848 0.505454C116.192 -0.69644 120.807 3.50797 125.688 7.96123C126.458 8.66292 127.252 9.38797 128.073 10.0991C128.69 10.077 129.219 10.0871 129.72 10.1332C133.153 10.4522 136.257 12.0886 138.46 14.7412C140.662 17.3945 141.7 20.7469 141.382 24.1802C141.13 26.8972 140.047 29.4147 138.248 31.4654C138.193 31.6006 138.124 31.7339 138.039 31.8728C141.294 34.3353 143.228 38.2 143.228 42.2718C143.228 49.4642 137.377 55.3158 130.184 55.3158C129.254 55.3158 127.92 55.2741 126.23 55.2223C115.619 54.8926 90.7695 54.1252 85.1207 62.0238C85.0607 62.1084 84.9641 62.1558 84.8643 62.1558" fill="#0A0B0B"/>
<path d="M112.611 33.2029C111.295 32.5012 109.976 31.7118 108.5 31.4964C104.857 30.964 101.52 34.0233 97.8388 33.9229C95.1919 33.8509 92.6952 31.941 91.9323 29.4052C94.0999 40.5722 91.482 52.5867 84.8643 61.84C84.9868 58.576 83.9586 55.5924 82.3702 52.7856C82.0626 52.2412 81.7493 51.705 81.4361 51.1713H76.3203C75.4165 51.1713 74.5424 51.2957 73.7024 51.5067C69.0003 52.6871 65.4868 56.9503 65.4868 62.0048V63.0621C65.4868 69.0204 70.3613 73.8962 76.3203 73.8962H79.211L76.3165 110.064C75.4702 120.638 83.3567 129.896 93.9312 130.743L95.7994 130.892C106.374 131.739 115.632 123.852 116.479 113.278L117.569 99.6545C127.126 99.496 134.829 91.7111 134.829 82.1155V39.7839C134.829 37.9423 134.53 36.1745 134 34.5084C133.147 35.0256 132.244 35.4551 131.309 35.7766C125.186 37.8785 118.323 36.2484 112.611 33.2029Z" fill="#F5E9D7"/>
<path d="M76.3202 51.4872C75.4959 51.4872 74.6421 51.5965 73.7793 51.8131C69.0829 52.9916 65.8025 57.1828 65.8025 62.0049V63.0621C65.8025 68.8619 70.5204 73.5804 76.3202 73.5804H79.2109C79.2993 73.5804 79.3833 73.6171 79.4427 73.6815C79.5027 73.7466 79.533 73.8331 79.5254 73.9215L76.6309 110.089C76.2286 115.119 77.8088 120.005 81.081 123.847C84.3538 127.688 88.9258 130.025 93.9564 130.428L95.8246 130.577C100.853 130.983 105.74 129.4 109.582 126.128C113.424 122.856 115.761 118.283 116.164 113.252L117.254 99.6293C117.267 99.4676 117.401 99.3419 117.564 99.3388C126.91 99.184 134.513 91.4573 134.513 82.1156V39.784C134.513 38.1754 134.278 36.5617 133.815 34.9834C133.035 35.4287 132.228 35.795 131.411 36.0754C123.958 38.6339 116.34 35.5487 112.462 33.4815L112.001 33.2333C110.872 32.6232 109.704 31.9916 108.455 31.8085C106.606 31.54 104.849 32.2316 102.987 32.9642C101.334 33.6148 99.6178 34.2849 97.8305 34.2388C95.7621 34.1826 93.7941 33.0716 92.5871 31.4118C94.0732 42.0204 91.3467 53.3194 85.1206 62.0238C85.0404 62.1369 84.8945 62.1836 84.7625 62.1388C84.6305 62.0939 84.5433 61.9676 84.5484 61.828C84.6564 58.9556 83.8536 56.0484 82.0947 52.9411C81.8181 52.4516 81.537 51.9678 81.2547 51.4872H76.3202ZM97.3637 131.271C96.8357 131.271 96.3058 131.25 95.7741 131.207L93.9058 131.057C88.7073 130.642 83.9825 128.226 80.6004 124.256C77.2189 120.286 75.5856 115.237 76.0018 110.038L78.8686 74.212H76.3202C70.1724 74.212 65.1709 69.2099 65.1709 63.0621V62.0049C65.1709 56.8929 68.6471 52.4497 73.6252 51.2004C74.5385 50.9712 75.4448 50.8556 76.3202 50.8556H81.4359C81.5477 50.8556 81.6513 50.9143 81.7082 51.0116C82.0221 51.5466 82.3359 52.0847 82.6454 52.6303C84.2559 55.4781 85.0909 58.1712 85.1812 60.8314C91.2917 51.8055 93.6981 40.1592 91.6214 29.4653C91.5898 29.3005 91.6928 29.1388 91.8564 29.0983C92.0212 29.0579 92.1861 29.1539 92.2341 29.3137C92.9623 31.7333 95.3231 33.539 97.8475 33.6072C99.5294 33.6533 101.162 33.004 102.755 32.3769C104.613 31.6455 106.532 30.8901 108.546 31.1838C109.906 31.3821 111.124 32.0409 112.302 32.6781L112.759 32.9238C116.546 34.9436 123.978 37.9607 131.206 35.4779C132.102 35.1703 132.987 34.7535 133.836 34.2381C133.92 34.1882 134.021 34.1794 134.111 34.2123C134.201 34.2464 134.271 34.3202 134.301 34.4131C134.861 36.1733 135.145 37.9809 135.145 39.784V82.1156C135.145 91.7042 127.417 99.6508 117.861 99.9634L116.793 113.303C116.377 118.501 113.962 123.227 109.992 126.608C106.428 129.644 101.994 131.271 97.3637 131.271" fill="#0A0B0B"/>
<path d="M81.782 73.9219L78.3702 83.2542L76.2317 73.8885L81.782 73.9219Z" fill="#0A0B0B"/>
<path d="M76.6284 74.2069L78.4404 82.1433L81.3311 74.2353L76.6284 74.2069ZM78.3703 83.5701H78.3507C78.2105 83.5606 78.0937 83.4614 78.0627 83.325L75.9242 73.9587C75.9027 73.8646 75.9254 73.7661 75.9861 73.6909C76.0461 73.6158 76.161 73.5779 76.2336 73.5728L81.784 73.6063C81.8869 73.6069 81.9829 73.6575 82.0417 73.7421C82.1004 73.8267 82.1143 73.9341 82.0789 74.0307L78.6671 83.3629C78.621 83.488 78.5023 83.5701 78.3703 83.5701" fill="#0A0B0B"/>
<path d="M74.8145 59.0522L78.7877 63.4732L75.0696 65.8972" fill="#F5E9D7"/>
<path d="M75.0703 66.2129C74.9674 66.2129 74.8663 66.1624 74.8057 66.0695C74.711 65.9236 74.752 65.7278 74.8979 65.6325L78.3065 63.4099L74.5796 59.263C74.4628 59.1335 74.4735 58.9333 74.6036 58.8171C74.7324 58.7009 74.9333 58.7104 75.0495 58.8411L79.0227 63.2621C79.0846 63.331 79.1131 63.4232 79.1011 63.5141C79.0891 63.6057 79.0379 63.6872 78.9609 63.7377L75.2434 66.1617C75.1897 66.1965 75.1297 66.2129 75.0703 66.2129" fill="#0A0B0B"/>
<path d="M117.48 67.915H114.443C114.269 67.915 114.128 67.7736 114.128 67.5992C114.128 67.4249 114.269 67.2835 114.443 67.2835H117.48C118.481 67.2835 119.423 66.8439 120.066 66.0778C120.709 65.3117 120.978 64.3068 120.805 63.3216L118.93 52.6643C118.899 52.4931 119.014 52.3296 119.185 52.2993C119.352 52.267 119.521 52.3833 119.551 52.5557L121.427 63.2129C121.633 64.382 121.313 65.5744 120.55 66.4839C119.786 67.3933 118.667 67.915 117.48 67.915" fill="#0A0B0B"/>
<path d="M127.414 58.2608C127.632 59.4602 126.835 60.609 125.636 60.8257C124.436 61.0436 123.288 60.2471 123.071 59.0478C122.854 57.8484 123.65 56.7002 124.849 56.4829C126.049 56.2657 127.198 57.0615 127.414 58.2608Z" fill="#0A0B0B"/>
<path d="M115.561 88.0783C115.462 88.1042 115.354 88.0972 115.253 88.0524C115.151 88.0063 112.721 86.9395 110.917 88.8488C110.743 89.0326 110.453 89.0414 110.267 88.8671C110.083 88.6928 110.074 88.4023 110.249 88.2178C112.513 85.8242 115.604 87.2029 115.635 87.2168C115.865 87.3223 115.966 87.5945 115.86 87.8244C115.802 87.9545 115.689 88.0435 115.561 88.0783" fill="#0A0B0B"/>
<path d="M97.8722 50.0932C98.9718 50.2188 100.195 49.7161 101.403 49.298C102.613 48.8515 103.837 48.434 104.914 48.1081C105.994 47.7803 107.247 47.4475 108.5 47.1481C109.738 46.8235 111.041 46.5607 111.871 45.8508C112.678 45.1782 112.716 43.9422 111.2 42.8951C109.764 41.8643 106.628 41.2201 103.054 42.2938C99.4897 43.3839 97.283 45.6475 96.7 47.2896C96.0665 48.9885 96.8156 49.9858 97.8722 50.0932" fill="#0A0B0B"/>
<path d="M132.027 48.2901C131.208 48.4455 130.301 48.083 129.404 47.7899C128.507 47.4735 127.597 47.1817 126.798 46.9594C125.997 46.7365 125.067 46.5167 124.136 46.3247C123.217 46.1118 122.25 45.9527 121.635 45.3981C121.039 44.8752 121.019 43.8464 122.153 42.9021C123.228 41.9762 125.567 41.2948 128.22 42.0249C130.866 42.7689 132.494 44.5543 132.916 45.8977C133.378 47.2853 132.814 48.1518 132.027 48.2901Z" fill="#0A0B0B"/>
<path d="M108.203 59.0257C108.103 60.3558 106.944 61.3524 105.614 61.2526C104.283 61.1528 103.287 59.9933 103.387 58.6632C103.488 57.3331 104.647 56.3364 105.976 56.4369C107.305 56.5366 108.303 57.6962 108.203 59.0257" fill="#0A0B0B"/>
<path d="M103.304 61.3771C103.304 61.3771 105.46 59.8266 107.551 61.6746Z" fill="#F5E9D7"/>
<path d="M107.551 61.9902C107.477 61.9902 107.402 61.9643 107.342 61.9113C105.473 60.2597 103.568 61.5766 103.487 61.6334C103.345 61.7345 103.148 61.7016 103.047 61.5601C102.946 61.418 102.978 61.2216 103.119 61.1206C103.143 61.1029 105.508 59.4469 107.76 61.4382C107.891 61.5532 107.903 61.7528 107.788 61.8835C107.725 61.9542 107.638 61.9902 107.551 61.9902" fill="#0A0B0B"/>
<path d="M123.526 61.221C123.526 61.221 125.479 60.3463 127.28 61.2595Z" fill="#F5E9D7"/>
<path d="M127.28 61.5752L127.138 61.5411C125.49 60.7055 123.673 61.5007 123.654 61.5089C123.495 61.579 123.308 61.5089 123.238 61.3497C123.166 61.1906 123.238 61.0043 123.397 60.9322C123.482 60.8944 125.507 60.0057 127.424 60.9777C127.579 61.0567 127.642 61.2468 127.563 61.4021C127.507 61.512 127.395 61.5752 127.28 61.5752" fill="#0A0B0B"/>
<path d="M102.654 68.4051C103.49 67.8487 104.602 67.9857 105.343 68.664C106.692 69.8994 109.628 72.0916 113.835 72.5198C114.868 72.6253 115.402 73.8266 114.958 74.7657C113.983 76.8297 111.372 80.0122 105.937 77.4632C99.3154 74.3583 100.474 69.8546 102.654 68.4051Z" fill="#FEF7EE"/>
<path d="M102.829 68.6679C102.037 69.1947 101.154 70.3719 101.271 71.9566C101.419 73.941 103.123 75.7953 106.071 77.1772C111.541 79.7427 113.909 76.25 114.673 74.6307C114.857 74.2416 114.838 73.7673 114.626 73.3915C114.443 73.0675 114.151 72.8698 113.804 72.8345C109.521 72.398 106.53 70.1799 105.129 68.8972C104.474 68.2966 103.529 68.2025 102.829 68.6679H102.829ZM109.649 78.7183C108.556 78.7183 107.281 78.4423 105.803 77.7494C101.535 75.7479 100.737 73.2905 100.642 72.0033C100.528 70.4755 101.25 68.9597 102.479 68.1418H102.479C103.42 67.5159 104.686 67.6347 105.556 68.4311C106.899 69.662 109.766 71.7879 113.867 72.206C114.417 72.2623 114.894 72.5812 115.176 73.0814C115.492 73.6404 115.517 74.3206 115.244 74.9004C114.742 75.962 113.103 78.7183 109.649 78.7183Z" fill="#0A0B0B"/>
<path d="M117.456 99.7549C117.456 99.7549 97.7167 101.029 92.8447 93.033C92.8447 93.033 97.2323 106.218 116.571 110.804L117.456 99.7549" fill="#0A0B0B"/>
<path d="M94.1857 95.1228C96.3571 99.0045 102.374 107 116.286 110.41L117.113 100.091C114.569 100.216 100.277 100.66 94.1857 95.1228V95.1228ZM116.571 111.119L116.499 111.111C97.2116 106.538 92.5897 93.2659 92.5449 93.1327C92.4944 92.9798 92.5664 92.8137 92.7123 92.7461C92.8556 92.6804 93.0312 92.731 93.1146 92.8687C97.8312 100.61 117.24 99.4541 117.436 99.4396C117.528 99.4352 117.617 99.468 117.681 99.5337C117.746 99.5988 117.778 99.6885 117.771 99.7807L116.886 110.829C116.879 110.92 116.832 111.004 116.757 111.059C116.703 111.099 116.638 111.119 116.571 111.119" fill="#333333"/>
<path d="M6.44189 236.262L8.19819 190.782L55.9441 192.316C55.927 192.592 60.4889 158.533 60.4681 158.809L55.9441 192.316L49.5879 192.121L48.9506 207.252C48.9506 207.252 92.2365 185.116 95.9414 180.653C95.9414 180.653 108.469 168.16 113.471 164.769C114.008 164.406 114.563 164.047 115.191 163.885C115.818 163.721 116.537 163.782 117.037 164.195C117.687 164.731 117.797 165.68 117.759 166.521C117.644 169.137 116.609 171.591 115.575 174.015C115.88 173.916 147.516 163.436 149.257 162.997C152.254 162.241 152.11 166.379 149.987 168.623C147.276 171.489 134.677 178.124 133.992 178.285C137.034 178.172 139.942 177.556 140.67 182.51C141.171 185.928 138.147 186.878 135.077 187.232C137.014 187.304 138.675 187.95 138.854 190.252C139.617 194.144 136.383 195.722 133.159 196.12C133.062 196.132 133.047 196.26 133.138 196.295C135.783 197.332 133.953 202.195 130.059 203.608L108.298 212.785C106.065 213.793 47.7999 258.115 47.7999 258.115C41.0508 262.84 33.2161 263.894 26.1759 262.098C14.4896 259.117 6.48876 248.324 6.44189 236.262" fill="#F5E9D7"/>
<path d="M6.7578 236.268C6.80763 248.382 14.824 258.877 26.2543 261.792C33.6931 263.689 41.2815 262.292 47.6187 257.857C49.9884 256.053 105.928 213.508 108.168 212.497L129.936 203.317C132.464 202.399 134.044 199.997 134.065 198.294C134.072 197.706 133.898 196.933 133.022 196.59C132.848 196.52 132.742 196.344 132.765 196.16C132.788 195.976 132.934 195.831 133.119 195.807C135.394 195.526 137.119 194.719 137.977 193.535C138.603 192.671 138.794 191.588 138.544 190.313C138.401 188.497 137.297 187.63 135.065 187.548C134.9 187.542 134.768 187.41 134.761 187.245C134.755 187.08 134.876 186.938 135.041 186.918C137.546 186.629 139.071 186.029 139.839 185.029C140.337 184.381 140.506 183.572 140.357 182.555C139.733 178.309 137.552 178.419 134.782 178.565C134.525 178.577 134.265 178.591 134.004 178.601C133.832 178.596 133.701 178.488 133.68 178.327C133.657 178.166 133.762 178.015 133.92 177.977C134.748 177.753 147.128 171.186 149.757 168.407C151.147 166.938 151.549 164.754 150.98 163.783C150.676 163.266 150.121 163.105 149.335 163.303C148.64 163.478 142.468 165.454 117.01 173.873C116.189 174.145 115.709 174.303 115.673 174.315C115.556 174.353 115.426 174.318 115.342 174.227C115.259 174.136 115.236 174.005 115.285 173.89C116.29 171.533 117.331 169.094 117.444 166.508C117.488 165.49 117.29 164.813 116.836 164.439C116.458 164.126 115.872 164.035 115.27 164.19C114.701 164.338 114.178 164.672 113.648 165.031C108.728 168.366 96.2895 180.752 96.1651 180.877C92.4811 185.317 50.8644 206.627 49.0941 207.533C48.995 207.583 48.8756 207.579 48.7802 207.517C48.6855 207.457 48.6305 207.351 48.635 207.238L49.259 192.418L8.50203 191.108L6.7578 236.268ZM32.7602 263.25C30.5497 263.25 28.3183 262.97 26.0977 262.404C14.3873 259.417 6.17409 248.668 6.12622 236.264V236.25L7.88251 190.77C7.88946 190.597 8.0202 190.468 8.20822 190.467L55.6695 191.991L59.9762 160.064C60.0236 159.716 60.0608 159.444 60.0931 159.231L60.1556 158.766L60.1758 158.77C60.2497 158.467 60.3248 158.477 60.5017 158.493C60.6716 158.511 60.7966 158.663 60.7834 158.833L58.9486 172.424C58.8646 173.047 58.78 173.673 58.6966 174.297L56.4766 190.775C56.4147 191.229 56.368 191.574 56.3282 191.835L56.2568 192.359C56.248 192.43 56.2152 192.492 56.1678 192.54C56.1072 192.652 56.0345 192.645 55.9133 192.632L55.9025 192.631L49.8899 192.445L49.2893 206.723C54.0501 204.278 92.2859 184.563 95.699 180.452C95.8442 180.305 108.325 167.876 113.294 164.508C113.871 164.117 114.445 163.752 115.111 163.578C115.909 163.373 116.703 163.511 117.238 163.951C117.855 164.461 118.129 165.306 118.075 166.535C117.967 168.997 117.074 171.285 116.139 173.495C116.327 173.434 116.552 173.36 116.811 173.274C142.287 164.849 148.476 162.868 149.18 162.69C150.61 162.327 151.264 163.019 151.525 163.465C152.307 164.801 151.709 167.263 150.216 168.841C148.013 171.171 139.199 176.074 135.58 177.896C138.019 177.814 140.347 178.139 140.983 182.465C141.155 183.642 140.939 184.634 140.34 185.413C139.573 186.411 138.268 186.938 136.982 187.236C138.331 187.709 139.05 188.699 139.169 190.228C139.448 191.645 139.222 192.894 138.488 193.906C137.405 195.401 135.478 196.055 133.85 196.337C134.411 196.775 134.708 197.453 134.697 198.303C134.672 200.257 132.971 202.887 130.167 203.905L108.421 213.076C106.687 213.858 68.1337 243.044 47.9907 258.366C43.384 261.592 38.1381 263.25 32.7602 263.25" fill="#0A0B0B"/>
<path d="M49.0386 199.442L30.2681 217.136L48.9508 207.583L49.0386 199.442Z" fill="#333333"/>
<path d="M115.302 174.416L103.531 179.905C103.531 179.905 114.567 171.144 116.787 170.442L115.302 174.416" fill="#0A0B0B"/>
<path d="M127.432 180.308C127.432 180.308 134.589 177.937 135.831 177.882Z" fill="#F5E9D7"/>
<path d="M127.432 180.624C127.299 180.624 127.176 180.541 127.132 180.408C127.077 180.243 127.167 180.064 127.332 180.009C127.626 179.912 134.546 177.623 135.817 177.567C135.986 177.558 136.138 177.695 136.147 177.868C136.154 178.043 136.018 178.19 135.844 178.198C134.861 178.24 129.511 179.952 127.531 180.608L127.432 180.624Z" fill="#0A0B0B"/>
<path d="M135.717 187.134L129.07 189.209Z" fill="#F5E9D7"/>
<path d="M129.07 189.525C128.936 189.525 128.811 189.438 128.768 189.304C128.717 189.137 128.81 188.96 128.976 188.908L135.622 186.833C135.792 186.781 135.966 186.874 136.018 187.04C136.07 187.206 135.977 187.384 135.811 187.436L129.164 189.511L129.07 189.525Z" fill="#0A0B0B"/>
<path d="M132.705 196.169L129.1 197.207Z" fill="#F5E9D7"/>
<path d="M129.1 197.523C128.962 197.523 128.837 197.433 128.797 197.295C128.749 197.127 128.845 196.952 129.013 196.904L132.618 195.865C132.788 195.816 132.96 195.914 133.009 196.081C133.057 196.249 132.96 196.424 132.793 196.472L129.188 197.511L129.1 197.523" fill="#0A0B0B"/>
<path d="M65.0117 458.441C65.0117 459.457 64.7578 460.324 64.25 461.043C63.75 461.754 63.0469 462.297 62.1406 462.672C61.2344 463.047 60.168 463.234 58.9414 463.234C58.293 463.234 57.6797 463.203 57.1016 463.141C56.5234 463.078 55.9922 462.988 55.5078 462.871C55.0234 462.754 54.5977 462.609 54.2305 462.438V460.527C54.8164 460.77 55.5312 460.996 56.375 461.207C57.2188 461.41 58.1016 461.512 59.0234 461.512C59.8828 461.512 60.6094 461.398 61.2031 461.172C61.7969 460.938 62.2461 460.605 62.5508 460.176C62.8633 459.738 63.0195 459.215 63.0195 458.605C63.0195 458.02 62.8906 457.531 62.6328 457.141C62.375 456.742 61.9453 456.383 61.3438 456.062C60.75 455.734 59.9375 455.387 58.9062 455.02C58.1797 454.762 57.5391 454.48 56.9844 454.176C56.4297 453.863 55.9648 453.512 55.5898 453.121C55.2148 452.73 54.9297 452.277 54.7344 451.762C54.5469 451.246 54.4531 450.656 54.4531 449.992C54.4531 449.078 54.6836 448.297 55.1445 447.648C55.6133 446.992 56.2578 446.492 57.0781 446.148C57.9062 445.797 58.8555 445.621 59.9258 445.621C60.8398 445.621 61.6836 445.707 62.457 445.879C63.2383 446.051 63.9531 446.281 64.6016 446.57L63.9805 448.281C63.3633 448.023 62.707 447.809 62.0117 447.637C61.3242 447.465 60.6133 447.379 59.8789 447.379C59.1445 447.379 58.5234 447.488 58.0156 447.707C57.5156 447.918 57.1328 448.219 56.8672 448.609C56.6016 449 56.4688 449.465 56.4688 450.004C56.4688 450.605 56.5938 451.105 56.8438 451.504C57.1016 451.902 57.5078 452.258 58.0625 452.57C58.625 452.875 59.3672 453.195 60.2891 453.531C61.2969 453.898 62.1523 454.289 62.8555 454.703C63.5586 455.109 64.0938 455.609 64.4609 456.203C64.8281 456.789 65.0117 457.535 65.0117 458.441ZM73.7773 463H71.7734V447.625H66.3828V445.867H79.1445V447.625H73.7773V463ZM92.4805 463L90.3711 457.562H83.5039L81.4062 463H79.3906L86.0938 445.797H87.8867L94.543 463H92.4805ZM89.7734 455.793L87.7695 450.391C87.7227 450.25 87.6445 450.02 87.5352 449.699C87.4336 449.379 87.3281 449.047 87.2188 448.703C87.1094 448.359 87.0195 448.082 86.9492 447.871C86.8711 448.191 86.7852 448.512 86.6914 448.832C86.6055 449.145 86.5195 449.438 86.4336 449.711C86.3477 449.977 86.2734 450.203 86.2109 450.391L84.1719 455.793H89.7734ZM101.293 454.457L105.852 445.867H107.996L102.289 456.355V463H100.297V456.449L94.5781 445.867H96.7578L101.293 454.457ZM121.848 463H119.844V447.625H114.453V445.867H127.215V447.625H121.848V463ZM142.766 445.867V456.953C142.766 458.164 142.52 459.242 142.027 460.188C141.543 461.133 140.809 461.879 139.824 462.426C138.84 462.965 137.605 463.234 136.121 463.234C134.004 463.234 132.391 462.66 131.281 461.512C130.18 460.363 129.629 458.828 129.629 456.906V445.867H131.633V456.965C131.633 458.418 132.016 459.539 132.781 460.328C133.555 461.117 134.707 461.512 136.238 461.512C137.285 461.512 138.141 461.324 138.805 460.949C139.477 460.566 139.973 460.035 140.293 459.355C140.621 458.668 140.785 457.875 140.785 456.977V445.867H142.766ZM160.707 463H158.41L149.07 448.609H148.977C149 448.992 149.027 449.43 149.059 449.922C149.09 450.406 149.113 450.926 149.129 451.48C149.152 452.027 149.164 452.586 149.164 453.156V463H147.312V445.867H149.598L158.902 460.211H158.984C158.969 459.938 158.949 459.551 158.926 459.051C158.902 458.543 158.879 458 158.855 457.422C158.84 456.836 158.832 456.293 158.832 455.793V445.867H160.707V463ZM174.922 463H165.383V445.867H174.922V447.625H167.375V453.168H174.488V454.902H167.375V461.242H174.922V463ZM192.324 454.27C192.324 456.199 191.973 457.812 191.27 459.109C190.566 460.398 189.547 461.371 188.211 462.027C186.883 462.676 185.27 463 183.371 463H178.719V445.867H183.887C185.629 445.867 187.129 446.188 188.387 446.828C189.645 447.461 190.613 448.402 191.293 449.652C191.98 450.895 192.324 452.434 192.324 454.27ZM190.227 454.34C190.227 452.801 189.969 451.531 189.453 450.531C188.945 449.531 188.195 448.789 187.203 448.305C186.219 447.812 185.012 447.566 183.582 447.566H180.711V461.289H183.137C185.496 461.289 187.266 460.707 188.445 459.543C189.633 458.379 190.227 456.645 190.227 454.34Z" fill="#5E50B1"/>
<path d="M12.5781 389.859C11.651 389.859 10.8281 390.042 10.1094 390.406C9.40104 390.76 8.80208 391.276 8.3125 391.953C7.83333 392.63 7.46875 393.448 7.21875 394.406C6.96875 395.365 6.84375 396.443 6.84375 397.641C6.84375 399.255 7.04167 400.635 7.4375 401.781C7.84375 402.917 8.46875 403.786 9.3125 404.391C10.1562 404.984 11.2448 405.281 12.5781 405.281C13.5052 405.281 14.4323 405.177 15.3594 404.969C16.2969 404.76 17.3125 404.464 18.4062 404.078V408.141C17.3958 408.557 16.401 408.854 15.4219 409.031C14.4427 409.219 13.3438 409.312 12.125 409.312C9.77083 409.312 7.83333 408.828 6.3125 407.859C4.80208 406.88 3.68229 405.516 2.95312 403.766C2.22396 402.005 1.85938 399.953 1.85938 397.609C1.85938 395.88 2.09375 394.297 2.5625 392.859C3.03125 391.422 3.71875 390.177 4.625 389.125C5.53125 388.073 6.65104 387.26 7.98438 386.688C9.31771 386.115 10.849 385.828 12.5781 385.828C13.7135 385.828 14.849 385.974 15.9844 386.266C17.1302 386.547 18.224 386.938 19.2656 387.438L17.7031 391.375C16.849 390.969 15.9896 390.615 15.125 390.312C14.2604 390.01 13.4115 389.859 12.5781 389.859ZM44.0156 397.547C44.0156 399.307 43.7969 400.911 43.3594 402.359C42.9219 403.797 42.2552 405.036 41.3594 406.078C40.474 407.12 39.349 407.922 37.9844 408.484C36.6198 409.036 35.0052 409.312 33.1406 409.312C31.276 409.312 29.6615 409.036 28.2969 408.484C26.9323 407.922 25.8021 407.12 24.9062 406.078C24.0208 405.036 23.3594 403.792 22.9219 402.344C22.4844 400.896 22.2656 399.286 22.2656 397.516C22.2656 395.151 22.651 393.094 23.4219 391.344C24.2031 389.583 25.401 388.219 27.0156 387.25C28.6302 386.281 30.6823 385.797 33.1719 385.797C35.651 385.797 37.6875 386.281 39.2812 387.25C40.8854 388.219 42.0729 389.583 42.8438 391.344C43.625 393.104 44.0156 395.172 44.0156 397.547ZM27.3438 397.547C27.3438 399.141 27.5417 400.516 27.9375 401.672C28.3438 402.818 28.974 403.703 29.8281 404.328C30.6823 404.943 31.7865 405.25 33.1406 405.25C34.5156 405.25 35.6302 404.943 36.4844 404.328C37.3385 403.703 37.9583 402.818 38.3438 401.672C38.7396 400.516 38.9375 399.141 38.9375 397.547C38.9375 395.151 38.4896 393.266 37.5938 391.891C36.6979 390.516 35.224 389.828 33.1719 389.828C31.8073 389.828 30.6927 390.141 29.8281 390.766C28.974 391.38 28.3438 392.266 27.9375 393.422C27.5417 394.568 27.3438 395.943 27.3438 397.547ZM58.4219 409L52.9219 391.078H52.7812C52.8021 391.505 52.8333 392.151 52.875 393.016C52.9271 393.87 52.974 394.781 53.0156 395.75C53.0573 396.719 53.0781 397.594 53.0781 398.375V409H48.75V386.156H55.3438L60.75 403.625H60.8438L66.5781 386.156H73.1719V409H68.6562V398.188C68.6562 397.469 68.6667 396.641 68.6875 395.703C68.7188 394.766 68.7552 393.875 68.7969 393.031C68.8385 392.177 68.8698 391.536 68.8906 391.109H68.75L62.8594 409H58.4219ZM78.9375 409V386.156H83.7812V409H78.9375ZM109.797 409H103.641L93.7031 391.719H93.5625C93.6042 392.438 93.6406 393.161 93.6719 393.891C93.7031 394.62 93.7344 395.349 93.7656 396.078C93.7969 396.797 93.8281 397.521 93.8594 398.25V409H89.5312V386.156H95.6406L105.562 403.266H105.672C105.651 402.557 105.625 401.854 105.594 401.156C105.562 400.458 105.531 399.76 105.5 399.062C105.479 398.365 105.458 397.667 105.438 396.969V386.156H109.797V409ZM124.234 396.172H133.297V408.016C132.099 408.411 130.854 408.729 129.562 408.969C128.271 409.198 126.807 409.312 125.172 409.312C122.901 409.312 120.974 408.865 119.391 407.969C117.807 407.073 116.604 405.75 115.781 404C114.958 402.25 114.547 400.099 114.547 397.547C114.547 395.151 115.005 393.078 115.922 391.328C116.849 389.578 118.198 388.224 119.969 387.266C121.75 386.307 123.922 385.828 126.484 385.828C127.693 385.828 128.885 385.958 130.062 386.219C131.24 386.479 132.307 386.818 133.266 387.234L131.656 391.109C130.958 390.755 130.161 390.458 129.266 390.219C128.37 389.979 127.432 389.859 126.453 389.859C125.047 389.859 123.823 390.182 122.781 390.828C121.75 391.474 120.948 392.38 120.375 393.547C119.812 394.703 119.531 396.068 119.531 397.641C119.531 399.13 119.734 400.453 120.141 401.609C120.547 402.755 121.188 403.656 122.062 404.312C122.938 404.958 124.078 405.281 125.484 405.281C126.172 405.281 126.75 405.25 127.219 405.188C127.698 405.115 128.146 405.042 128.562 404.969V400.203H124.234V396.172ZM160.547 402.656C160.547 404.01 160.219 405.188 159.562 406.188C158.906 407.188 157.948 407.958 156.688 408.5C155.438 409.042 153.917 409.312 152.125 409.312C151.333 409.312 150.557 409.26 149.797 409.156C149.047 409.052 148.323 408.901 147.625 408.703C146.938 408.495 146.281 408.24 145.656 407.938V403.438C146.74 403.917 147.865 404.349 149.031 404.734C150.198 405.12 151.354 405.312 152.5 405.312C153.292 405.312 153.927 405.208 154.406 405C154.896 404.792 155.25 404.505 155.469 404.141C155.688 403.776 155.797 403.359 155.797 402.891C155.797 402.318 155.604 401.828 155.219 401.422C154.833 401.016 154.302 400.635 153.625 400.281C152.958 399.927 152.203 399.547 151.359 399.141C150.828 398.891 150.25 398.589 149.625 398.234C149 397.87 148.406 397.427 147.844 396.906C147.281 396.385 146.818 395.755 146.453 395.016C146.099 394.266 145.922 393.37 145.922 392.328C145.922 390.964 146.234 389.797 146.859 388.828C147.484 387.859 148.375 387.12 149.531 386.609C150.698 386.089 152.073 385.828 153.656 385.828C154.844 385.828 155.974 385.969 157.047 386.25C158.13 386.521 159.26 386.917 160.438 387.438L158.875 391.203C157.823 390.776 156.88 390.448 156.047 390.219C155.214 389.979 154.365 389.859 153.5 389.859C152.896 389.859 152.38 389.958 151.953 390.156C151.526 390.344 151.203 390.615 150.984 390.969C150.766 391.312 150.656 391.714 150.656 392.172C150.656 392.714 150.812 393.172 151.125 393.547C151.448 393.911 151.927 394.266 152.562 394.609C153.208 394.953 154.01 395.354 154.969 395.812C156.135 396.365 157.13 396.943 157.953 397.547C158.786 398.141 159.427 398.844 159.875 399.656C160.323 400.458 160.547 401.458 160.547 402.656ZM185.422 397.547C185.422 399.307 185.203 400.911 184.766 402.359C184.328 403.797 183.661 405.036 182.766 406.078C181.88 407.12 180.755 407.922 179.391 408.484C178.026 409.036 176.411 409.312 174.547 409.312C172.682 409.312 171.068 409.036 169.703 408.484C168.339 407.922 167.208 407.12 166.312 406.078C165.427 405.036 164.766 403.792 164.328 402.344C163.891 400.896 163.672 399.286 163.672 397.516C163.672 395.151 164.057 393.094 164.828 391.344C165.609 389.583 166.807 388.219 168.422 387.25C170.036 386.281 172.089 385.797 174.578 385.797C177.057 385.797 179.094 386.281 180.688 387.25C182.292 388.219 183.479 389.583 184.25 391.344C185.031 393.104 185.422 395.172 185.422 397.547ZM168.75 397.547C168.75 399.141 168.948 400.516 169.344 401.672C169.75 402.818 170.38 403.703 171.234 404.328C172.089 404.943 173.193 405.25 174.547 405.25C175.922 405.25 177.036 404.943 177.891 404.328C178.745 403.703 179.365 402.818 179.75 401.672C180.146 400.516 180.344 399.141 180.344 397.547C180.344 395.151 179.896 393.266 179 391.891C178.104 390.516 176.63 389.828 174.578 389.828C173.214 389.828 172.099 390.141 171.234 390.766C170.38 391.38 169.75 392.266 169.344 393.422C168.948 394.568 168.75 395.943 168.75 397.547ZM210.891 397.547C210.891 399.307 210.672 400.911 210.234 402.359C209.797 403.797 209.13 405.036 208.234 406.078C207.349 407.12 206.224 407.922 204.859 408.484C203.495 409.036 201.88 409.312 200.016 409.312C198.151 409.312 196.536 409.036 195.172 408.484C193.807 407.922 192.677 407.12 191.781 406.078C190.896 405.036 190.234 403.792 189.797 402.344C189.359 400.896 189.141 399.286 189.141 397.516C189.141 395.151 189.526 393.094 190.297 391.344C191.078 389.583 192.276 388.219 193.891 387.25C195.505 386.281 197.557 385.797 200.047 385.797C202.526 385.797 204.562 386.281 206.156 387.25C207.76 388.219 208.948 389.583 209.719 391.344C210.5 393.104 210.891 395.172 210.891 397.547ZM194.219 397.547C194.219 399.141 194.417 400.516 194.812 401.672C195.219 402.818 195.849 403.703 196.703 404.328C197.557 404.943 198.661 405.25 200.016 405.25C201.391 405.25 202.505 404.943 203.359 404.328C204.214 403.703 204.833 402.818 205.219 401.672C205.615 400.516 205.812 399.141 205.812 397.547C205.812 395.151 205.365 393.266 204.469 391.891C203.573 390.516 202.099 389.828 200.047 389.828C198.682 389.828 197.568 390.141 196.703 390.766C195.849 391.38 195.219 392.266 194.812 393.422C194.417 394.568 194.219 395.943 194.219 397.547ZM235.891 409H229.734L219.797 391.719H219.656C219.698 392.438 219.734 393.161 219.766 393.891C219.797 394.62 219.828 395.349 219.859 396.078C219.891 396.797 219.922 397.521 219.953 398.25V409H215.625V386.156H221.734L231.656 403.266H231.766C231.745 402.557 231.719 401.854 231.688 401.156C231.656 400.458 231.625 399.76 231.594 399.062C231.573 398.365 231.552 397.667 231.531 396.969V386.156H235.891V409Z" fill="#333333"/>
</svg>
