<svg width="48" height="40" viewBox="0 0 48 40" version="1.1" xmlns="http://www.w3.org/2000/svg" xmlns:xlink="http://www.w3.org/1999/xlink" xmlns:figma="http://www.figma.com/figma/ns">
<title>intervies</title>
<desc>Created using Figma</desc>
<g id="Canvas" transform="translate(-1596 235)" figma:type="canvas">
<g id="intervies" style="mix-blend-mode:normal;" figma:type="frame">
<g id="Group" style="mix-blend-mode:normal;" figma:type="frame">
<g id="Group" style="mix-blend-mode:normal;" figma:type="frame">
<g id="Vector" style="mix-blend-mode:normal;" figma:type="vector">
<use xlink:href="#path0_fill" transform="translate(1613.65 -208.299)" fill="#56C3C0" style="mix-blend-mode:normal;"/>
</g>
<g id="Vector" style="mix-blend-mode:normal;" figma:type="vector">
<use xlink:href="#path1_fill" transform="translate(1596 -217.764)" fill="#5D5CA9" style="mix-blend-mode:normal;"/>
</g>
<g id="Vector" style="mix-blend-mode:normal;" figma:type="vector">
<use xlink:href="#path2_fill" transform="translate(1628.48 -217.867)" fill="#5D5CA9" style="mix-blend-mode:normal;"/>
</g>
<g id="Vector" style="mix-blend-mode:normal;" figma:type="vector">
<use xlink:href="#path3_fill" transform="translate(1607.92 -210.038)" fill="#5D5CA9" style="mix-blend-mode:normal;"/>
</g>
</g>
</g>
<g id="Vector" style="mix-blend-mode:normal;" figma:type="vector">
<use xlink:href="#path4_fill" transform="translate(1621.42 -224.77)" fill="#56C3C0" style="mix-blend-mode:normal;"/>
</g>
<g id="Vector" style="mix-blend-mode:normal;" figma:type="vector">
<use xlink:href="#path5_fill" transform="translate(1605.16 -235)" fill="#56C3C0" style="mix-blend-mode:normal;"/>
</g>
</g>
</g>
<defs>
<path id="path0_fill" d="M 11.5601 0L 0 0L 0 11.3555L 11.5601 11.3555L 11.5601 0Z"/>
<path id="path1_fill" d="M 13.2502 13.3525L 5.37292 13.3525L 2.30386 0.871639C 2.09926 0.257828 1.48545 -0.151381 0.871638 0.0532231C 0.257827 0.257827 -0.15138 0.871637 0.0532234 1.48545L 3.42918 14.887C 3.53148 15.3985 4.04299 15.8077 4.5545 15.8077L 6.08903 15.8077C 6.08903 16.4215 6.60054 16.933 7.31665 16.933L 8.03276 16.933L 8.03276 19.3883C 6.90744 19.3883 5.98673 20.4113 5.98673 21.5366C 5.98673 22.1504 6.49824 22.7642 7.21435 22.7642C 7.82816 22.7642 8.23737 22.355 8.33967 21.7412L 10.1811 21.7412C 10.2834 22.2527 10.7949 22.7642 11.3064 22.7642C 11.9202 22.7642 12.534 22.2527 12.534 21.5366C 12.534 20.4113 11.6133 19.3883 10.488 19.3883L 10.488 16.933L 10.7949 16.933C 11.4087 16.933 11.9202 16.4215 12.0225 15.8077L 13.2502 15.8077C 13.864 15.8077 14.4778 15.2962 14.4778 14.5801C 14.3755 13.864 13.864 13.3525 13.2502 13.3525Z"/>
<path id="path2_fill" d="M 13.6061 0.0532227C 12.9923 -0.151381 12.3785 0.257827 12.1739 0.871638L 9.10486 13.3525L 1.22762 13.3525C 0.613811 13.3525 -7.80501e-07 13.864 -7.80501e-07 14.5801C -7.80501e-07 15.1939 0.511509 15.8077 1.22762 15.8077L 2.76215 15.8077C 2.76215 16.4215 3.27366 16.933 3.98977 16.933L 4.29668 16.933L 4.29668 19.3883C 3.17136 19.3883 2.25064 20.4113 2.25064 21.5366C 2.25064 22.1504 2.76215 22.7642 3.47826 22.7642C 4.09207 22.7642 4.50128 22.355 4.60358 21.7412L 6.34271 21.7412C 6.44501 22.2527 6.95652 22.7642 7.46803 22.7642C 8.08184 22.7642 8.69565 22.2527 8.69565 21.5366C 8.69565 20.4113 7.77494 19.3883 6.64962 19.3883L 6.64962 16.933L 7.36573 16.933C 7.97954 16.933 8.49105 16.4215 8.59335 15.8077L 10.1279 15.8077C 10.6394 15.8077 11.1509 15.3985 11.2532 14.887L 14.5269 1.48545C 14.6292 0.871639 14.2199 0.257826 13.6061 0.0532227Z"/>
<path id="path3_fill" d="M 21.8926 2.45524C 22.5064 2.45524 23.1202 1.94373 23.1202 1.22762C 23.1202 0.613811 22.6087 -3.9025e-07 21.8926 -3.9025e-07L 1.22762 -3.9025e-07C 0.61381 -3.9025e-07 -1.95125e-07 0.511509 -1.95125e-07 1.22762C -1.95125e-07 1.84143 0.511509 2.45524 1.22762 2.45524L 4.09207 2.45524L 4.09207 13.8107C 4.09207 14.4246 4.60358 15.0384 5.31969 15.0384L 17.9028 15.0384C 18.5166 15.0384 19.1304 14.5269 19.1304 13.8107L 19.1304 2.45524C 19.0281 2.45524 21.8926 2.45524 21.8926 2.45524ZM 16.6752 12.5831L 6.44501 12.5831L 6.44501 2.45524L 16.6752 2.45524L 16.6752 12.5831Z"/>
<path id="path4_fill" d="M 12.1739 7.16113C 12.7877 6.44501 13.0946 5.5243 13.0946 4.50128C 13.0946 2.04604 11.0486 0 8.59335 0L 4.50128 0C 2.04603 0 -3.9025e-07 2.04604 -3.9025e-07 4.50128C -3.9025e-07 6.95652 2.04603 9.00256 4.50128 9.00256L 6.85422 9.00256L 7.16113 9.00256L 8.59335 9.00256L 14.3223 9.00256L 12.1739 7.16113Z"/>
<path id="path5_fill" d="M 2.25064 7.16113C 1.63683 6.44501 1.32992 5.5243 1.32992 4.50128C 1.32992 2.04604 3.37596 0 5.8312 0L 9.92327 0C 12.2762 0 14.3223 2.04604 14.3223 4.50128C 14.3223 6.95652 12.2762 9.00256 9.82097 9.00256L 7.46803 9.00256L 7.16113 9.00256L 5.7289 9.00256L 0 9.00256L 2.25064 7.16113Z"/>
</defs>
</svg>
